{"glyphs":{"0":{"ha":857,"x_min":63,"x_max":794,"o":"m 428 -21 q 159 114 256 -21 q 63 500 63 249 q 163 865 63 739 q 428 993 265 993 q 693 865 593 993 q 794 500 794 739 q 698 113 794 247 q 428 -21 601 -21 m 653 500 q 428 864 653 864 q 260 772 318 864 q 203 500 203 679 q 428 107 203 107 q 653 500 653 107 z "},"1":{"ha":640,"x_min":90,"x_max":432,"o":"m 432 0 l 300 0 l 300 814 l 90 682 l 90 833 l 314 972 l 432 972 l 432 0 z "},"2":{"ha":810,"x_min":76,"x_max":733,"o":"m 733 0 l 82 0 l 82 104 q 138 314 82 238 q 356 471 183 379 l 429 510 q 485 542 465 529 q 535 578 524 564 q 594 711 603 646 q 546 819 594 771 q 410 868 497 868 q 268 813 319 868 q 210 654 217 758 l 76 671 q 175 908 82 822 q 414 993 265 993 q 643 911 557 993 q 729 704 729 829 q 674 533 729 611 q 610 472 651 501 q 540 426 561 438 q 463 383 499 403 q 293 286 326 313 q 258 247 271 268 q 232 136 232 208 l 733 136 l 733 0 z "},"3":{"ha":822,"x_min":56,"x_max":753,"o":"m 56 318 l 190 346 q 259 163 206 221 q 415 104 313 104 q 563 153 510 104 q 615 279 615 201 q 559 413 615 367 q 401 458 503 458 l 346 458 l 346 574 l 385 574 q 504 597 442 574 q 579 717 579 628 q 533 828 579 788 q 410 868 488 868 q 235 696 257 868 l 104 719 q 201 919 118 846 q 413 993 285 993 q 626 922 542 993 q 711 731 711 854 q 674 605 711 656 q 576 531 636 554 l 576 528 q 703 439 654 504 q 753 272 753 374 q 660 63 753 146 q 417 -21 567 -21 q 169 65 263 -21 q 56 318 75 150 z "},"4":{"ha":794,"x_min":42,"x_max":753,"o":"m 500 211 l 42 211 l 42 340 l 425 972 l 633 972 l 633 340 l 753 340 l 753 211 l 633 211 l 633 0 l 500 0 l 500 211 m 497 867 l 179 340 l 500 340 l 500 867 l 497 867 z "},"5":{"ha":826,"x_min":69,"x_max":771,"o":"m 69 246 l 201 297 q 424 106 253 106 q 578 165 521 106 q 636 326 636 224 q 579 483 636 425 q 429 540 522 540 q 219 426 296 540 l 103 481 l 189 972 l 685 972 l 685 843 l 294 843 l 246 565 l 249 564 q 461 650 322 650 q 681 558 592 650 q 771 324 771 468 q 672 72 771 167 q 424 -21 575 -21 q 197 51 289 -21 q 69 246 104 124 z "},"6":{"ha":876,"x_min":76,"x_max":807,"o":"m 311 168 q 469 106 374 106 q 620 164 565 106 q 675 321 675 222 q 619 475 675 418 q 464 532 563 532 q 310 472 369 532 q 250 331 250 413 q 311 168 250 233 m 765 744 l 639 711 q 456 868 597 868 q 288 772 356 868 q 218 503 221 678 l 221 501 q 317 597 247 550 q 494 644 385 644 q 713 556 619 644 q 807 319 807 465 q 711 69 807 161 q 469 -21 614 -21 q 189 101 301 -21 q 76 472 76 225 q 183 846 76 697 q 461 993 289 993 q 664 925 586 993 q 765 744 742 857 z "},"7":{"ha":690,"x_min":21,"x_max":649,"o":"m 203 0 l 44 0 l 506 839 l 506 842 l 21 842 l 21 972 l 649 972 l 649 828 l 203 0 z "},"8":{"ha":797,"x_min":50,"x_max":747,"o":"m 522 831 q 399 874 481 874 q 274 831 317 874 q 232 726 232 789 q 278 621 232 664 q 399 579 324 579 q 519 621 474 579 q 565 726 565 664 q 522 831 565 789 m 554 156 q 581 179 554 156 q 608 285 608 203 q 551 417 608 367 q 399 467 494 467 q 246 417 303 467 q 189 285 189 367 q 243 156 189 203 q 399 108 297 108 q 554 156 500 108 m 100 739 q 182 918 100 843 q 399 993 264 993 q 617 918 536 993 q 700 739 700 843 q 579 531 700 597 l 579 528 q 700 431 653 499 q 747 276 747 364 q 651 57 747 136 q 399 -21 554 -21 q 146 57 243 -21 q 50 276 50 136 q 97 431 50 364 q 218 528 144 499 l 218 531 q 100 739 100 594 z "},"9":{"ha":851,"x_min":63,"x_max":768,"o":"m 101 222 l 228 265 q 422 104 268 104 q 636 464 638 104 l 632 464 q 557 376 619 425 q 386 331 494 331 q 157 421 251 331 q 63 661 63 513 q 158 901 63 811 q 393 993 254 993 q 664 865 560 993 q 768 483 768 739 q 676 105 768 231 q 418 -21 583 -21 q 210 45 292 -21 q 101 222 128 111 m 401 453 q 549 508 493 453 q 606 653 606 563 q 547 807 606 747 q 394 868 489 868 q 252 810 307 868 q 197 661 197 753 q 253 510 197 567 q 401 453 308 453 z "},"\u0000":{"ha":0,"x_min":0,"x_max":0,"o":""},"\r":{"ha":347,"x_min":0,"x_max":0,"o":""}," ":{"ha":347,"x_min":0,"x_max":0,"o":""},"!":{"ha":454,"x_min":139,"x_max":315,"o":"m 296 300 l 157 300 l 157 972 l 296 972 l 296 300 m 315 0 l 139 0 l 139 172 l 315 172 l 315 0 z "},"\"":{"ha":526,"x_min":111,"x_max":388,"o":"m 208 651 l 111 651 l 111 972 l 208 972 l 208 651 m 388 651 l 290 651 l 290 972 l 388 972 l 388 651 z "},"#":{"ha":947,"x_min":97,"x_max":850,"o":"m 365 201 l 263 201 l 274 396 l 97 396 l 97 492 l 281 492 l 293 682 l 143 682 l 143 776 l 300 776 l 313 972 l 415 972 l 403 776 l 569 776 l 583 972 l 686 972 l 674 776 l 850 776 l 850 682 l 667 682 l 654 492 l 804 492 l 804 396 l 649 396 l 636 201 l 533 201 l 544 396 l 378 396 l 365 201 m 396 682 l 385 492 l 551 492 l 564 682 l 396 682 z "},"$":{"ha":921,"x_min":76,"x_max":844,"o":"m 76 332 l 222 361 q 290 184 244 242 q 431 114 336 126 l 431 453 q 194 563 268 497 q 121 728 121 629 q 204 910 121 833 q 432 992 286 985 l 432 1076 l 497 1076 l 497 990 q 705 913 624 979 q 810 728 786 846 l 675 693 q 497 858 638 843 l 497 568 q 769 443 697 511 q 844 267 844 376 q 752 60 844 138 q 496 -21 660 -18 l 496 -136 l 431 -136 l 431 -18 q 76 332 118 8 m 497 433 q 496 272 497 344 l 496 110 q 653 151 599 110 q 707 265 707 192 q 664 361 707 326 q 497 433 619 399 m 260 729 q 298 648 260 679 q 431 589 336 617 l 431 861 q 303 822 347 858 q 260 729 260 786 z "},"%":{"ha":1315,"x_min":97,"x_max":1218,"o":"m 449 715 q 417 843 449 799 q 326 888 385 888 q 236 843 268 888 q 204 715 204 799 q 236 576 204 626 q 326 526 268 526 q 417 576 385 526 q 449 715 449 626 m 97 717 q 165 917 97 847 q 326 989 233 989 q 488 917 419 989 q 557 717 557 844 q 494 502 557 578 q 326 426 432 426 q 159 502 221 426 q 97 717 97 578 m 1110 272 q 1078 400 1110 356 q 988 444 1046 444 q 897 400 929 444 q 865 272 865 356 q 897 133 865 183 q 988 83 929 83 q 1078 133 1046 83 q 1110 272 1110 183 m 758 274 q 826 474 758 404 q 988 546 894 546 q 1149 474 1081 546 q 1218 274 1218 401 q 1156 59 1218 135 q 988 -17 1093 -17 q 820 59 882 -17 q 758 274 758 135 m 343 -101 l 261 -51 l 940 1081 l 1021 1029 l 343 -101 z "},"&":{"ha":982,"x_min":83,"x_max":954,"o":"m 954 144 l 871 46 l 733 161 q 626 36 706 92 q 418 -21 544 -21 q 176 54 269 -21 q 83 267 83 131 q 272 560 83 446 q 175 764 175 651 q 249 929 175 864 q 436 993 322 993 q 619 934 547 993 q 707 767 690 875 l 581 738 q 435 871 551 871 q 344 842 376 871 q 311 763 311 813 q 388 633 311 700 l 640 414 l 643 414 l 643 567 l 765 567 l 765 307 l 954 144 m 636 253 l 363 488 q 215 281 215 417 q 272 153 215 200 q 421 107 328 107 q 560 149 501 107 q 636 253 619 192 z "},"'":{"ha":347,"x_min":125,"x_max":222,"o":"m 222 651 l 125 651 l 125 972 l 222 972 l 222 651 z "},"(":{"ha":529,"x_min":111,"x_max":460,"o":"m 458 -214 l 388 -274 q 236 -56 335 -225 q 147 163 182 38 q 111 421 111 292 q 136 639 111 533 q 196 817 164 750 q 274 953 229 886 q 343 1044 317 1017 q 388 1092 358 1063 l 460 1031 q 340 874 386 946 q 258 676 290 796 q 225 422 225 557 q 292 74 225 239 q 458 -214 358 -92 z "},")":{"ha":529,"x_min":42,"x_max":390,"o":"m 114 -274 l 43 -214 q 210 74 143 -92 q 276 422 276 239 q 242 683 276 567 q 161 874 207 801 q 42 1031 115 946 l 114 1092 q 158 1044 143 1063 q 226 953 186 1014 q 306 817 271 889 q 364 639 339 746 q 390 421 390 535 q 354 163 390 292 q 265 -56 319 38 q 114 -274 167 -225 z "},"*":{"ha":693,"x_min":83,"x_max":610,"o":"m 204 460 l 124 531 l 249 682 l 83 779 l 138 871 l 293 781 l 293 972 l 400 972 l 400 781 l 557 872 l 610 779 l 444 682 l 571 531 l 490 461 l 346 636 l 204 460 z "},"+":{"ha":806,"x_min":69,"x_max":736,"o":"m 460 153 l 346 153 l 346 465 l 69 465 l 69 574 l 346 574 l 346 854 l 460 854 l 460 574 l 736 574 l 736 465 l 460 465 l 460 153 z "},",":{"ha":426,"x_min":125,"x_max":301,"o":"m 125 -161 l 125 -87 q 178 -61 164 -81 q 192 0 192 -42 l 125 0 l 125 172 l 301 172 l 301 21 q 125 -161 301 -149 z "},"-":{"ha":596,"x_min":69,"x_max":526,"o":"m 526 410 l 69 410 l 69 525 l 526 525 l 526 410 z "},".":{"ha":426,"x_min":125,"x_max":301,"o":"m 301 0 l 125 0 l 125 172 l 301 172 l 301 0 z "},"/":{"ha":631,"x_min":21,"x_max":610,"o":"m 110 -58 l 21 -19 l 521 1036 l 610 994 l 110 -58 z "},":":{"ha":426,"x_min":125,"x_max":301,"o":"m 301 0 l 125 0 l 125 172 l 301 172 l 301 0 m 301 564 l 125 564 l 125 736 l 301 736 l 301 564 z "},";":{"ha":426,"x_min":125,"x_max":301,"o":"m 301 564 l 125 564 l 125 736 l 301 736 l 301 564 m 125 -161 l 125 -87 q 178 -61 164 -81 q 192 0 192 -42 l 125 0 l 125 172 l 301 172 l 301 21 q 125 -161 301 -149 z "},"<":{"ha":742,"x_min":69,"x_max":672,"o":"m 611 114 l 69 440 l 69 538 l 613 861 l 672 765 l 210 489 l 671 210 l 611 114 z "},"=":{"ha":810,"x_min":83,"x_max":726,"o":"m 726 336 l 83 336 l 83 447 l 726 447 l 726 336 m 726 576 l 83 576 l 83 688 l 726 688 l 726 576 z "},">":{"ha":742,"x_min":56,"x_max":658,"o":"m 115 861 l 658 538 l 658 440 l 117 114 l 57 210 l 518 489 l 56 765 l 115 861 z "},"?":{"ha":728,"x_min":42,"x_max":672,"o":"m 390 281 l 261 281 l 261 346 q 288 441 261 403 q 385 528 315 479 q 493 617 472 592 q 532 722 532 661 q 490 824 532 783 q 367 865 447 865 q 179 661 189 865 l 42 672 q 128 903 44 813 q 369 993 214 993 q 586 918 500 993 q 672 731 672 844 q 626 576 672 632 q 522 485 589 532 q 489 461 507 474 q 463 442 479 453 q 435 421 446 431 q 390 336 390 385 l 390 281 m 421 0 l 243 0 l 243 172 l 421 172 l 421 0 z "},"@":{"ha":1019,"x_min":69,"x_max":950,"o":"m 610 378 l 610 501 l 607 501 q 549 469 600 485 l 476 450 q 415 419 433 439 q 397 367 397 400 q 506 289 397 289 q 578 313 547 289 q 610 378 610 338 m 700 119 l 742 47 q 508 -21 643 -21 q 182 117 294 -21 q 69 481 69 256 q 190 846 69 703 q 518 990 311 990 q 836 851 722 990 q 950 496 950 713 q 901 269 950 338 q 751 200 853 200 q 636 264 665 200 l 633 264 q 489 200 588 200 q 356 245 408 200 q 303 361 303 290 q 338 465 303 426 q 449 524 374 503 l 521 543 q 591 569 574 557 q 608 608 608 581 q 584 661 608 640 q 519 682 560 682 q 446 660 471 682 q 408 589 421 639 l 321 608 q 383 725 331 682 q 515 768 436 768 q 648 720 596 768 q 700 590 700 672 l 700 339 q 756 286 700 286 q 839 336 813 286 q 865 492 865 386 q 776 793 865 678 q 518 910 689 910 q 250 790 346 910 q 154 481 154 672 q 243 176 154 292 q 508 61 333 61 q 700 119 608 61 z "},"A":{"ha":876,"x_min":21,"x_max":856,"o":"m 856 0 l 708 0 l 644 179 l 228 179 l 165 0 l 21 0 l 372 972 l 506 972 l 856 0 m 438 772 l 435 772 l 269 299 l 603 299 l 438 772 z "},"B":{"ha":901,"x_min":125,"x_max":832,"o":"m 482 0 l 125 0 l 125 972 l 511 972 q 718 899 640 972 q 796 717 796 825 q 676 525 796 586 l 676 522 q 788 437 744 497 q 832 292 832 376 q 482 0 832 0 m 264 843 l 264 568 l 489 568 q 657 706 657 568 q 613 808 657 772 q 488 843 568 843 l 264 843 m 264 449 l 264 128 l 460 128 q 637 164 581 128 q 693 292 693 200 q 638 413 693 378 q 463 449 583 449 l 264 449 z "},"C":{"ha":924,"x_min":69,"x_max":861,"o":"m 485 -21 q 197 96 317 -21 q 69 494 69 226 q 190 863 69 731 q 485 993 313 993 q 739 900 640 993 q 860 650 842 806 l 718 626 q 485 863 681 863 q 290 766 364 863 q 215 494 215 669 q 288 208 215 307 q 485 110 361 110 q 713 371 688 110 l 861 347 q 747 78 847 176 q 485 -21 647 -21 z "},"D":{"ha":919,"x_min":125,"x_max":857,"o":"m 264 843 l 264 128 l 421 128 q 635 213 563 128 q 707 488 707 299 q 633 752 707 661 q 429 843 560 843 l 264 843 m 428 0 l 125 0 l 125 972 l 436 972 q 593 943 519 972 q 726 857 667 914 q 822 705 786 800 q 857 488 857 610 q 722 103 857 219 q 428 0 601 0 z "},"E":{"ha":810,"x_min":125,"x_max":719,"o":"m 719 0 l 125 0 l 125 972 l 719 972 l 719 843 l 264 843 l 264 561 l 681 561 l 681 438 l 264 438 l 264 128 l 719 128 l 719 0 z "},"F":{"ha":783,"x_min":125,"x_max":721,"o":"m 264 0 l 125 0 l 125 972 l 721 972 l 721 843 l 264 843 l 264 524 l 682 524 l 682 401 l 264 401 l 264 0 z "},"G":{"ha":926,"x_min":69,"x_max":857,"o":"m 485 -21 q 326 9 399 -21 q 194 99 253 39 q 103 260 136 158 q 69 497 69 363 q 104 713 69 617 q 197 869 139 810 q 329 961 256 929 q 483 993 403 993 q 728 904 629 993 q 851 669 829 814 l 710 644 q 485 863 667 863 q 292 768 369 863 q 214 497 214 674 q 288 210 214 310 q 485 110 361 110 q 660 176 597 110 q 721 363 722 243 l 497 363 l 497 486 l 857 486 l 857 381 q 754 86 857 193 q 485 -21 651 -21 z "},"H":{"ha":928,"x_min":125,"x_max":803,"o":"m 264 0 l 125 0 l 125 972 l 264 972 l 264 563 l 664 563 l 664 972 l 803 972 l 803 0 l 664 0 l 664 442 l 264 442 l 264 0 z "},"I":{"ha":403,"x_min":132,"x_max":271,"o":"m 271 0 l 132 0 l 132 972 l 271 972 l 271 0 z "},"J":{"ha":632,"x_min":28,"x_max":514,"o":"m 28 208 l 164 249 q 274 110 193 110 q 351 142 328 110 q 375 244 375 174 l 375 972 l 514 972 l 514 249 q 274 -21 514 -21 q 110 42 175 -21 q 28 208 46 104 z "},"K":{"ha":844,"x_min":111,"x_max":844,"o":"m 250 0 l 111 0 l 111 972 l 250 972 l 250 519 l 254 519 l 632 972 l 804 972 l 447 546 l 844 0 l 676 0 l 351 446 l 349 446 l 250 325 l 250 0 z "},"L":{"ha":714,"x_min":125,"x_max":679,"o":"m 679 0 l 125 0 l 125 972 l 264 972 l 264 128 l 679 128 l 679 0 z "},"M":{"ha":1197,"x_min":125,"x_max":1072,"o":"m 264 0 l 125 0 l 125 972 l 301 972 l 597 264 l 600 264 l 897 972 l 1072 972 l 1072 0 l 933 0 l 933 739 l 931 739 l 615 0 l 582 0 l 267 739 l 264 739 l 264 0 z "},"N":{"ha":954,"x_min":125,"x_max":829,"o":"m 264 0 l 125 0 l 125 972 l 268 972 l 686 247 l 689 247 l 689 972 l 829 972 l 829 0 l 689 0 l 267 725 l 264 725 l 264 0 z "},"O":{"ha":965,"x_min":69,"x_max":896,"o":"m 485 108 q 678 206 607 108 q 750 490 750 303 q 674 767 750 672 q 485 863 599 863 q 290 766 364 863 q 215 494 215 669 q 288 208 215 307 q 485 108 361 108 m 768 94 q 485 -21 653 -21 q 197 96 317 -21 q 69 494 69 226 q 190 863 69 731 q 485 993 313 993 q 775 860 654 993 q 896 490 896 729 q 768 94 896 219 z "},"P":{"ha":854,"x_min":125,"x_max":833,"o":"m 264 0 l 125 0 l 125 972 l 506 972 q 743 892 654 972 q 833 669 833 810 q 746 449 833 529 q 507 368 658 368 l 264 368 l 264 0 m 264 843 l 264 496 l 501 496 q 638 542 586 496 q 690 669 690 588 q 638 799 690 754 q 500 843 586 843 l 264 843 z "},"Q":{"ha":965,"x_min":69,"x_max":896,"o":"m 892 51 l 817 -22 l 729 64 q 485 -21 624 -21 q 197 96 317 -21 q 69 494 69 226 q 190 863 69 731 q 485 993 313 993 q 775 860 654 993 q 896 490 896 729 q 800 142 896 278 l 892 51 m 638 156 l 410 383 l 485 457 l 703 236 q 750 490 750 325 q 674 767 750 672 q 485 863 599 863 q 290 766 364 863 q 215 494 215 669 q 288 208 215 307 q 485 108 361 108 q 638 156 578 108 z "},"R":{"ha":889,"x_min":125,"x_max":833,"o":"m 264 0 l 125 0 l 125 972 l 506 972 q 745 894 657 972 q 833 676 833 817 q 776 488 833 556 q 606 396 719 421 l 818 0 l 665 0 l 460 385 l 264 385 l 264 0 m 264 846 l 264 508 l 494 508 q 641 550 589 508 q 693 676 693 592 q 493 846 693 846 l 264 846 z "},"S":{"ha":846,"x_min":63,"x_max":797,"o":"m 63 332 l 208 361 q 281 169 226 232 q 454 110 332 110 q 606 151 551 110 q 660 258 660 192 q 611 361 660 324 q 396 451 563 400 q 170 566 238 501 q 103 731 103 631 q 188 915 103 839 q 417 993 274 993 q 649 924 557 993 q 763 725 742 854 l 624 694 q 557 820 606 778 q 417 863 508 863 q 288 826 333 863 q 242 731 242 790 q 286 647 242 679 q 486 565 326 618 q 732 440 667 506 q 797 267 797 375 q 704 61 797 142 q 453 -21 611 -21 q 182 69 281 -21 q 63 332 83 158 z "},"T":{"ha":785,"x_min":28,"x_max":757,"o":"m 461 0 l 322 0 l 322 843 l 28 843 l 28 972 l 757 972 l 757 843 l 461 843 l 461 0 z "},"U":{"ha":913,"x_min":104,"x_max":808,"o":"m 104 317 l 104 972 l 243 972 l 243 325 q 297 165 243 221 q 456 110 351 110 q 615 165 561 110 q 669 322 669 219 l 669 972 l 808 972 l 808 317 q 716 66 808 153 q 456 -21 624 -21 q 197 66 289 -21 q 104 317 104 153 z "},"V":{"ha":872,"x_min":21,"x_max":851,"o":"m 513 0 l 365 0 l 21 972 l 168 972 l 439 190 l 442 190 l 706 972 l 851 972 l 513 0 z "},"W":{"ha":1253,"x_min":56,"x_max":1197,"o":"m 394 0 l 238 0 l 56 972 l 197 972 l 336 229 l 339 229 l 574 972 l 681 972 l 917 229 l 919 229 l 1058 972 l 1197 972 l 1015 0 l 860 0 l 626 736 l 624 736 l 394 0 z "},"X":{"ha":818,"x_min":28,"x_max":790,"o":"m 181 0 l 28 0 l 329 513 l 58 972 l 215 972 l 418 606 l 421 606 l 618 972 l 772 972 l 499 494 l 790 0 l 633 0 l 410 401 l 407 401 l 181 0 z "},"Y":{"ha":801,"x_min":14,"x_max":788,"o":"m 468 0 l 332 0 l 332 410 l 14 972 l 164 972 l 399 538 l 401 538 l 638 972 l 788 972 l 468 410 l 468 0 z "},"Z":{"ha":832,"x_min":69,"x_max":763,"o":"m 756 0 l 69 0 l 69 121 l 586 838 l 586 840 l 92 840 l 92 972 l 763 972 l 763 850 l 243 135 l 243 132 l 756 132 l 756 0 z "},"[":{"ha":510,"x_min":111,"x_max":454,"o":"m 454 -253 l 111 -253 l 111 1014 l 454 1014 l 454 919 l 211 919 l 211 -160 l 454 -160 l 454 -253 z "},"\\":{"ha":631,"x_min":21,"x_max":610,"o":"m 610 -19 l 521 -58 l 21 994 l 110 1036 l 610 -19 z "},"]":{"ha":510,"x_min":83,"x_max":426,"o":"m 83 1014 l 426 1014 l 426 -253 l 83 -253 l 83 -160 l 326 -160 l 326 919 l 83 919 l 83 1014 z "},"^":{"ha":764,"x_min":97,"x_max":667,"o":"m 213 451 l 97 451 l 338 972 l 426 972 l 667 451 l 550 451 l 382 836 l 213 451 z "},"_":{"ha":864,"x_min":83,"x_max":781,"o":"m 781 -201 l 83 -201 l 83 -97 l 781 -97 l 781 -201 z "},"`":{"ha":407,"x_min":69,"x_max":338,"o":"m 338 826 l 221 826 l 69 996 l 226 996 l 338 826 z "},"a":{"ha":750,"x_min":63,"x_max":653,"o":"m 653 0 l 535 0 l 535 78 l 532 78 q 460 13 519 50 q 315 -21 403 -21 q 128 38 193 -21 q 63 192 63 96 q 119 335 63 283 q 310 421 175 388 q 471 474 435 454 q 514 539 514 496 q 476 611 514 583 q 369 639 439 639 q 199 500 232 639 l 81 542 q 176 699 101 640 q 367 757 250 757 q 576 689 500 757 q 653 486 653 621 l 653 0 m 340 322 q 226 272 257 299 q 194 200 194 244 q 328 99 194 99 q 469 138 418 99 q 521 238 521 178 l 521 403 l 518 403 q 478 367 513 385 q 340 322 443 350 z "},"b":{"ha":828,"x_min":111,"x_max":765,"o":"m 246 460 l 246 263 q 296 149 246 197 q 425 101 344 101 q 578 170 525 101 q 631 368 631 239 q 577 565 631 496 q 425 633 524 633 q 294 581 343 633 q 246 460 246 528 m 235 0 l 111 0 l 111 1014 l 246 1014 l 246 665 l 249 665 q 449 757 328 757 q 675 650 585 757 q 765 368 765 543 q 678 85 765 192 q 446 -21 593 -21 q 238 71 319 -21 l 235 71 l 235 0 z "},"c":{"ha":768,"x_min":63,"x_max":713,"o":"m 578 288 l 713 254 q 610 52 693 125 q 399 -21 528 -21 q 156 83 250 -21 q 63 368 63 186 q 160 653 63 551 q 400 757 258 757 q 610 681 528 757 q 708 485 693 607 l 576 464 q 519 588 564 542 q 400 633 475 633 q 251 563 306 633 q 196 368 196 493 q 251 172 196 243 q 401 101 306 101 q 520 152 476 101 q 578 288 564 203 z "},"d":{"ha":828,"x_min":63,"x_max":717,"o":"m 582 263 l 582 460 q 533 581 582 528 q 403 633 485 633 q 251 565 304 633 q 197 368 197 496 q 250 170 197 239 q 403 101 303 101 q 532 149 483 101 q 582 263 582 196 m 717 0 l 593 0 l 593 71 l 590 71 q 382 -21 508 -21 q 149 85 236 -21 q 63 368 63 192 q 154 650 63 544 q 381 757 249 757 q 579 665 500 757 l 582 665 l 582 1014 l 717 1014 l 717 0 z "},"e":{"ha":796,"x_min":63,"x_max":733,"o":"m 611 235 l 713 158 q 407 -21 614 -21 q 158 85 254 -21 q 63 368 63 192 q 157 650 63 543 q 400 757 253 757 q 640 651 547 757 q 733 368 733 549 l 733 328 l 200 328 q 256 163 203 225 q 404 100 310 100 q 546 150 496 100 q 611 235 583 188 m 201 433 l 599 433 q 544 579 594 522 q 400 636 493 636 q 256 572 307 636 q 201 433 203 510 z "},"f":{"ha":474,"x_min":35,"x_max":460,"o":"m 279 0 l 143 0 l 143 618 l 35 618 l 35 736 l 146 736 l 146 844 q 189 974 146 935 q 317 1014 232 1014 l 431 1014 l 431 892 l 343 892 q 290 876 304 892 q 276 815 276 861 l 276 736 l 460 736 l 460 618 l 279 618 l 279 0 z "},"g":{"ha":828,"x_min":63,"x_max":724,"o":"m 117 -139 l 225 -76 q 299 -180 256 -146 q 413 -214 342 -214 q 542 -166 496 -214 q 589 -31 589 -118 l 589 65 l 586 65 q 389 -21 521 -21 q 153 83 244 -21 q 63 368 63 190 q 156 650 63 544 q 388 757 250 757 q 590 665 515 757 l 593 665 l 593 736 l 724 736 l 724 -7 q 641 -249 724 -164 q 414 -333 558 -333 q 227 -281 304 -333 q 117 -139 150 -229 m 589 258 l 589 464 q 539 582 589 531 q 410 633 492 633 q 253 564 310 633 q 197 368 197 494 q 253 172 197 242 q 410 101 310 101 q 538 147 488 101 q 589 258 589 194 z "},"h":{"ha":819,"x_min":111,"x_max":715,"o":"m 246 0 l 111 0 l 111 1014 l 246 1014 l 246 663 l 249 663 q 334 731 278 704 q 453 757 390 757 q 644 684 572 757 q 715 483 715 611 l 715 0 l 581 0 l 581 450 q 540 583 581 535 q 421 632 499 632 q 294 585 343 632 q 246 463 246 538 l 246 0 z "},"i":{"ha":368,"x_min":111,"x_max":257,"o":"m 251 0 l 117 0 l 117 736 l 251 736 l 251 0 m 257 871 l 111 871 l 111 1014 l 257 1014 l 257 871 z "},"j":{"ha":364,"x_min":28,"x_max":253,"o":"m 83 -271 l 28 -271 l 28 -143 l 54 -143 q 99 -127 85 -143 q 114 -71 114 -111 l 114 736 l 249 736 l 249 -82 q 208 -226 249 -181 q 83 -271 168 -271 m 253 871 l 107 871 l 107 1014 l 253 1014 l 253 871 z "},"k":{"ha":765,"x_min":111,"x_max":751,"o":"m 246 0 l 111 0 l 111 1014 l 246 1014 l 246 410 l 249 410 l 546 736 l 721 736 l 454 442 l 751 0 l 596 0 l 353 361 l 350 361 l 246 249 l 246 0 z "},"l":{"ha":361,"x_min":111,"x_max":250,"o":"m 250 0 l 111 0 l 111 1014 l 250 1014 l 250 0 z "},"m":{"ha":1186,"x_min":111,"x_max":1082,"o":"m 243 0 l 111 0 l 111 736 l 233 736 l 233 665 l 236 665 q 313 731 263 706 q 421 757 364 757 q 534 728 485 757 q 611 653 583 700 l 614 653 q 699 727 644 697 q 818 757 754 757 q 1011 688 940 757 q 1082 501 1082 618 l 1082 0 l 954 0 l 954 467 q 811 632 954 632 q 701 590 740 632 q 663 476 663 549 l 663 0 l 535 0 l 535 467 q 392 632 535 632 q 281 589 319 632 q 243 476 243 546 l 243 0 z "},"n":{"ha":817,"x_min":111,"x_max":713,"o":"m 246 0 l 111 0 l 111 736 l 243 736 l 243 665 l 246 665 q 332 731 276 704 q 447 757 388 757 q 640 683 568 757 q 713 482 713 610 l 713 0 l 576 0 l 576 443 q 421 632 576 632 q 294 587 342 632 q 246 463 246 542 l 246 0 z "},"o":{"ha":796,"x_min":63,"x_max":733,"o":"m 400 101 q 545 173 490 101 q 600 368 600 244 q 545 563 600 492 q 400 633 490 633 q 251 564 307 633 q 196 368 196 494 q 251 172 196 242 q 400 101 307 101 m 400 -21 q 157 82 253 -21 q 63 368 63 185 q 160 653 63 550 q 400 757 258 757 q 636 653 540 757 q 733 368 733 550 q 639 82 733 185 q 400 -21 544 -21 z "},"p":{"ha":835,"x_min":111,"x_max":772,"o":"m 246 464 l 246 258 q 296 147 246 196 q 425 101 347 101 q 581 172 525 101 q 638 368 638 242 q 581 564 638 494 q 425 633 525 633 q 294 582 344 633 q 246 464 246 529 m 246 -312 l 111 -312 l 111 736 l 240 736 l 240 665 l 243 665 q 279 701 257 683 q 352 740 304 722 q 450 757 400 757 q 678 650 583 757 q 772 368 772 543 q 682 83 772 190 q 451 -21 593 -21 q 329 7 383 -21 q 249 71 275 35 l 246 71 l 246 -312 z "},"q":{"ha":835,"x_min":63,"x_max":724,"o":"m 589 258 l 589 464 q 539 582 589 531 q 410 633 492 633 q 253 564 310 633 q 197 368 197 494 q 253 172 197 242 q 410 101 310 101 q 538 147 488 101 q 589 258 589 194 m 724 -312 l 589 -312 l 589 71 l 586 71 q 383 -21 513 -21 q 153 83 243 -21 q 63 368 63 190 q 156 650 63 544 q 385 757 250 757 q 508 730 454 757 q 592 665 563 703 l 594 665 l 594 736 l 724 736 l 724 -312 z "},"r":{"ha":494,"x_min":111,"x_max":460,"o":"m 246 0 l 111 0 l 111 736 l 240 736 l 240 657 l 243 657 q 307 724 265 699 q 394 749 349 749 q 460 735 433 749 l 436 601 q 379 613 407 613 q 246 432 246 613 l 246 0 z "},"s":{"ha":718,"x_min":56,"x_max":661,"o":"m 56 247 l 181 275 q 371 94 201 94 q 494 124 450 94 q 538 200 538 153 q 497 272 538 249 q 329 333 457 297 q 138 418 194 371 q 82 547 82 465 q 151 694 82 632 q 344 757 222 757 q 538 701 464 757 q 639 543 613 644 l 522 511 q 346 643 478 643 q 244 617 282 643 q 207 551 207 590 q 244 489 207 510 q 419 429 279 469 q 608 338 556 390 q 661 199 661 285 q 590 44 664 111 q 375 -21 517 -21 q 147 56 225 -21 q 56 247 68 133 z "},"t":{"ha":514,"x_min":35,"x_max":458,"o":"m 143 231 l 143 618 l 35 618 l 35 736 l 146 736 l 146 917 l 275 917 l 275 736 l 458 736 l 458 618 l 276 618 l 276 244 q 296 156 276 181 q 371 131 315 131 l 426 131 l 426 0 l 361 0 q 193 56 243 0 q 143 231 143 111 z "},"u":{"ha":800,"x_min":104,"x_max":689,"o":"m 104 258 l 104 736 l 239 736 l 239 276 q 273 145 239 183 q 388 107 307 107 q 509 153 464 107 q 554 283 554 200 l 554 736 l 689 736 l 689 0 l 558 0 l 558 71 l 556 71 q 357 -21 488 -21 q 169 51 235 -21 q 104 258 104 122 z "},"v":{"ha":760,"x_min":28,"x_max":732,"o":"m 436 0 l 324 0 l 28 736 l 168 736 l 381 190 l 383 190 l 593 736 l 732 736 l 436 0 z "},"w":{"ha":1097,"x_min":56,"x_max":1042,"o":"m 303 203 l 488 736 l 610 736 l 797 203 l 800 203 l 908 736 l 1042 736 l 879 0 l 749 0 l 550 578 l 547 578 l 349 0 l 218 0 l 56 736 l 189 736 l 300 203 l 303 203 z "},"x":{"ha":729,"x_min":28,"x_max":701,"o":"m 175 0 l 28 0 l 278 379 l 43 736 l 189 736 l 363 464 l 365 464 l 540 736 l 685 736 l 450 379 l 701 0 l 553 0 l 365 289 l 363 289 l 175 0 z "},"y":{"ha":724,"x_min":21,"x_max":703,"o":"m 289 -312 l 157 -312 l 299 51 l 21 736 l 163 736 l 364 210 l 564 736 l 703 736 l 289 -312 z "},"z":{"ha":758,"x_min":69,"x_max":689,"o":"m 689 0 l 69 0 l 69 110 l 507 608 l 507 611 l 92 611 l 92 736 l 682 736 l 682 629 l 250 131 l 250 128 l 689 128 l 689 0 z "},"{":{"ha":538,"x_min":69,"x_max":454,"o":"m 182 -47 l 182 253 q 165 315 182 297 q 108 333 149 333 l 69 333 l 69 457 l 108 457 q 165 476 149 457 q 182 542 182 496 l 182 808 q 229 968 182 922 q 379 1014 276 1014 l 454 1014 l 454 917 l 374 917 q 303 888 325 917 q 282 793 282 860 l 282 538 q 238 425 282 460 q 185 396 207 401 q 207 386 194 393 q 238 364 219 379 q 269 320 257 349 q 282 256 282 292 l 282 -32 q 304 -127 282 -99 q 378 -156 326 -156 l 454 -156 l 454 -253 l 379 -253 q 229 -207 276 -253 q 182 -47 182 -161 z "},"|":{"ha":375,"x_min":139,"x_max":236,"o":"m 236 -417 l 139 -417 l 139 1076 l 236 1076 l 236 -417 z "},"}":{"ha":538,"x_min":42,"x_max":426,"o":"m 314 253 l 314 -47 q 267 -207 314 -161 q 117 -253 219 -253 l 42 -253 l 42 -156 l 118 -156 q 192 -127 169 -156 q 214 -32 214 -99 l 214 256 q 258 364 214 329 q 310 396 290 389 q 257 425 293 400 q 214 538 214 458 l 214 793 q 192 888 214 860 q 122 917 171 917 l 42 917 l 42 1014 l 117 1014 q 267 968 219 1014 q 314 808 314 922 l 314 542 q 331 476 314 496 q 388 457 347 457 l 426 457 l 426 333 l 388 333 q 331 315 347 333 q 314 253 314 297 z "},"~":{"ha":831,"x_min":69,"x_max":761,"o":"m 263 529 q 186 485 211 529 q 156 406 169 454 l 69 428 q 137 583 86 524 q 265 642 188 642 q 375 612 315 643 q 487 549 435 581 q 568 521 539 518 q 643 564 619 521 q 675 644 661 596 l 761 622 q 694 467 744 526 q 565 408 643 408 q 398 469 501 406 q 263 529 294 532 z "}," ":{"ha":278,"x_min":0,"x_max":0,"o":""},"¡":{"ha":454,"x_min":125,"x_max":301,"o":"m 282 -236 l 143 -236 l 143 436 l 282 436 l 282 -236 m 301 564 l 125 564 l 125 736 l 301 736 l 301 564 z "},"¢":{"ha":789,"x_min":76,"x_max":726,"o":"m 592 288 l 726 254 q 632 59 708 132 q 436 -19 556 -14 l 436 -153 l 388 -153 l 388 -19 q 163 92 249 -11 q 76 368 76 194 q 164 643 76 542 q 388 756 254 746 l 388 876 l 436 876 l 436 756 q 631 675 553 749 q 722 485 708 601 l 590 464 q 539 580 578 535 q 436 632 500 625 l 436 103 q 592 288 563 115 m 388 103 l 388 632 q 257 553 304 622 q 210 368 210 483 q 257 182 210 251 q 388 103 304 113 z "},"£":{"ha":907,"x_min":125,"x_max":810,"o":"m 810 0 l 125 0 l 125 129 l 172 129 q 233 147 214 129 q 251 207 251 165 l 251 433 l 125 433 l 125 535 l 251 535 l 251 696 q 324 917 251 840 q 525 993 397 993 q 718 924 646 993 q 808 724 790 856 l 676 697 q 629 828 663 788 q 529 868 596 868 q 390 693 390 868 l 390 535 l 656 535 l 656 433 l 390 433 l 390 129 l 810 129 l 810 0 z "},"¤":{"ha":929,"x_min":111,"x_max":818,"o":"m 167 103 l 111 158 l 201 249 q 136 457 136 339 q 201 664 136 571 l 111 754 l 167 810 l 254 721 q 464 800 347 800 q 676 724 588 800 l 763 810 l 818 754 l 729 665 q 793 457 793 572 q 728 247 793 338 l 818 158 l 763 103 l 674 190 q 464 119 583 119 q 256 192 340 119 l 167 103 m 465 243 q 597 297 546 243 q 649 456 649 350 q 597 618 649 564 q 465 672 546 672 q 329 618 381 672 q 278 456 278 564 q 329 296 278 349 q 465 243 381 243 z "},"¥":{"ha":915,"x_min":69,"x_max":846,"o":"m 388 182 l 103 182 l 103 293 l 386 293 l 386 411 l 103 411 l 103 522 l 324 522 l 69 972 l 222 972 l 454 544 l 457 544 l 692 972 l 846 972 l 589 522 l 810 522 l 810 411 l 526 411 l 526 293 l 810 293 l 810 182 l 525 182 l 525 0 l 388 0 l 388 182 z "},"¦":{"ha":396,"x_min":139,"x_max":257,"o":"m 257 446 l 139 446 l 139 900 l 257 900 l 257 446 m 257 -182 l 139 -182 l 139 272 l 257 272 l 257 -182 z "},"§":{"ha":882,"x_min":85,"x_max":797,"o":"m 335 311 l 531 236 q 588 207 568 221 q 658 322 658 256 q 547 435 658 393 l 351 510 q 294 539 314 525 q 224 424 224 486 q 335 311 224 356 m 471 129 l 254 215 q 85 419 86 281 q 117 529 83 478 q 206 611 150 581 q 160 750 160 665 q 233 926 160 861 q 424 993 306 993 q 621 929 546 993 q 714 739 696 865 l 583 710 q 425 868 554 868 q 330 835 363 868 q 297 751 297 801 q 413 617 297 663 l 628 531 q 797 326 797 465 q 765 217 799 268 q 676 135 732 165 q 722 -1 722 81 q 649 -178 722 -112 q 458 -244 575 -244 q 261 -181 336 -244 q 168 10 186 -117 l 299 39 q 457 -119 328 -119 q 552 -86 519 -119 q 585 -3 585 -53 q 558 74 585 43 q 471 129 531 106 z "},"¨":{"ha":578,"x_min":83,"x_max":494,"o":"m 224 842 l 83 842 l 83 979 l 224 979 l 224 842 m 494 842 l 353 842 l 353 979 l 494 979 l 494 842 z "},"©":{"ha":994,"x_min":69,"x_max":925,"o":"m 497 919 q 801 796 678 919 q 925 492 925 672 q 801 186 925 310 q 497 63 678 63 q 192 186 315 63 q 69 492 69 308 q 192 796 69 674 q 497 919 315 919 m 844 492 q 744 739 844 639 q 497 840 644 840 q 250 739 350 840 q 150 492 150 639 q 250 242 150 344 q 497 140 350 140 q 744 242 644 140 q 844 492 844 344 m 599 433 l 696 411 q 633 274 683 324 q 503 224 582 224 q 347 294 407 224 q 286 488 286 365 q 349 682 286 611 q 503 754 411 754 q 631 705 581 754 q 693 572 682 656 l 596 554 q 503 661 581 661 q 419 615 451 661 q 388 488 388 569 q 419 359 388 403 q 503 315 450 315 q 599 433 585 315 z "},"ª":{"ha":496,"x_min":63,"x_max":419,"o":"m 419 533 l 340 533 l 340 578 l 339 578 q 324 558 326 561 q 281 533 311 546 q 217 521 250 521 q 103 556 143 521 q 63 647 63 592 q 96 732 63 701 q 210 783 129 763 q 306 813 285 801 q 326 847 326 824 q 306 886 326 871 q 246 901 285 901 q 150 822 172 901 l 71 853 q 130 944 85 910 q 243 979 175 979 q 372 938 325 979 q 419 814 419 896 l 419 533 m 229 717 q 169 692 185 706 q 153 654 153 678 q 224 601 153 601 q 302 622 275 601 q 329 675 329 643 l 329 761 l 328 761 q 229 717 317 739 z "},"«":{"ha":786,"x_min":125,"x_max":675,"o":"m 406 133 l 276 133 l 125 390 l 275 649 l 404 649 l 253 390 l 406 133 m 675 133 l 546 133 l 394 390 l 544 649 l 674 649 l 522 390 l 675 133 z "},"¬":{"ha":857,"x_min":83,"x_max":746,"o":"m 614 501 l 83 501 l 83 626 l 746 626 l 746 268 l 614 268 l 614 501 z "},"®":{"ha":628,"x_min":69,"x_max":558,"o":"m 314 533 q 457 592 399 533 q 515 736 515 650 q 457 881 515 822 q 314 939 400 939 q 169 881 228 939 q 111 736 111 822 q 169 592 111 650 q 314 533 228 533 m 314 492 q 139 563 210 492 q 69 736 69 635 q 139 910 69 838 q 314 981 210 981 q 488 910 417 981 q 558 736 558 839 q 488 563 558 633 q 314 492 417 492 m 274 589 l 226 589 l 226 882 l 319 882 q 424 793 424 882 q 354 710 424 726 l 418 589 l 368 589 l 308 706 l 274 706 l 274 589 m 274 840 l 274 746 l 318 746 q 378 793 378 746 q 318 840 378 840 l 274 840 z "},"¯":{"ha":567,"x_min":83,"x_max":483,"o":"m 483 861 l 83 861 l 83 954 l 483 954 l 483 861 z "},"°":{"ha":542,"x_min":76,"x_max":465,"o":"m 269 671 q 131 728 185 671 q 76 872 76 786 q 132 1015 76 958 q 269 1075 188 1075 q 410 1017 356 1075 q 465 872 465 960 q 410 728 465 785 q 269 671 356 671 m 269 764 q 363 872 363 764 q 269 982 363 982 q 178 872 178 982 q 203 790 178 817 q 269 764 228 764 z "},"±":{"ha":838,"x_min":69,"x_max":768,"o":"m 360 581 l 69 581 l 69 692 l 360 692 l 360 917 l 478 917 l 478 692 l 768 692 l 768 581 l 478 581 l 478 326 l 360 326 l 360 581 m 742 126 l 104 126 l 104 238 l 742 238 l 742 126 z "},"²":{"ha":494,"x_min":42,"x_max":453,"o":"m 453 657 l 47 657 l 47 736 q 86 860 47 813 q 215 947 117 897 q 326 1017 308 997 q 351 1081 351 1044 q 326 1142 351 1118 q 253 1165 300 1165 q 140 1043 153 1165 l 42 1056 q 103 1204 47 1151 q 254 1257 160 1257 q 394 1206 339 1257 q 449 1074 449 1156 q 411 967 449 1010 q 293 886 374 925 q 172 808 192 836 q 161 761 161 789 l 453 761 l 453 657 z "},"³":{"ha":485,"x_min":21,"x_max":450,"o":"m 21 853 l 121 875 q 244 742 138 742 q 326 767 297 742 q 354 835 354 792 q 239 926 354 926 l 201 926 l 201 1008 l 232 1008 q 301 1027 275 1008 q 328 1082 328 1046 q 304 1142 328 1119 q 238 1164 281 1164 q 144 1071 158 1164 l 50 1089 q 108 1212 57 1167 q 242 1257 160 1257 q 372 1213 321 1257 q 424 1097 424 1169 q 401 1021 424 1051 q 347 979 379 990 l 347 976 q 419 926 389 965 q 450 826 450 888 q 394 699 450 749 q 244 650 339 650 q 92 702 150 650 q 21 853 33 754 z "},"´":{"ha":406,"x_min":69,"x_max":336,"o":"m 186 826 l 69 826 l 179 996 l 336 996 l 186 826 z "},"µ":{"ha":826,"x_min":118,"x_max":722,"o":"m 250 -312 l 118 -312 l 118 736 l 253 736 l 253 293 q 298 155 253 203 q 424 107 343 107 q 544 153 501 107 q 588 278 588 199 l 588 736 l 722 736 l 722 0 l 590 0 l 590 71 l 588 71 q 525 11 572 42 q 411 -21 476 -21 q 251 39 303 -21 l 250 39 l 250 -312 z "},"¶":{"ha":764,"x_min":14,"x_max":653,"o":"m 349 -189 l 238 -189 l 238 428 q 78 494 142 431 q 14 658 14 558 q 78 826 14 764 q 243 889 142 889 l 653 889 l 653 -189 l 544 -189 l 544 771 l 349 771 l 349 -189 z "},"·":{"ha":426,"x_min":125,"x_max":301,"o":"m 301 433 l 125 433 l 125 606 l 301 606 l 301 433 z "},"¸":{"ha":379,"x_min":28,"x_max":339,"o":"m 28 -235 l 76 -171 q 183 -219 136 -219 q 233 -206 214 -219 q 251 -167 251 -192 q 183 -117 251 -117 q 119 -133 146 -117 l 111 -140 l 57 -110 l 122 0 l 193 0 l 142 -81 l 143 -82 q 224 -61 176 -61 q 305 -92 271 -61 q 339 -174 339 -122 q 297 -264 339 -231 q 188 -297 256 -297 q 28 -235 92 -297 z "},"¹":{"ha":367,"x_min":28,"x_max":256,"o":"m 256 657 l 156 657 l 156 1131 l 28 1051 l 28 1165 l 164 1250 l 256 1250 l 256 657 z "},"º":{"ha":493,"x_min":49,"x_max":444,"o":"m 247 607 q 323 646 294 607 q 351 751 351 685 q 323 856 351 818 q 247 894 294 894 q 169 856 197 894 q 140 751 140 818 q 169 644 140 682 q 247 607 197 607 m 49 751 q 105 919 49 857 q 247 981 161 981 q 386 919 329 981 q 444 751 444 858 q 390 583 444 644 q 247 521 335 521 q 104 583 160 521 q 49 751 49 644 z "},"»":{"ha":786,"x_min":97,"x_max":647,"o":"m 497 649 l 647 390 l 496 133 l 367 133 l 519 390 l 368 649 l 497 649 m 228 649 l 378 390 l 226 133 l 97 133 l 250 390 l 99 649 l 228 649 z "},"¼":{"ha":1142,"x_min":35,"x_max":1086,"o":"m 257 -101 l 175 -51 l 854 1081 l 935 1029 l 257 -101 m 263 379 l 163 379 l 163 853 l 35 774 l 35 888 l 171 972 l 263 972 l 263 379 m 914 128 l 646 128 l 646 222 l 871 593 l 1017 593 l 1017 222 l 1086 222 l 1086 128 l 1017 128 l 1017 0 l 914 0 l 914 128 m 913 503 l 742 222 l 915 222 l 915 503 l 913 503 z "},"½":{"ha":1221,"x_min":35,"x_max":1131,"o":"m 257 -103 l 175 -53 l 854 1079 l 935 1028 l 257 -103 m 263 378 l 163 378 l 163 851 l 35 772 l 35 886 l 171 971 l 263 971 l 263 378 m 1131 0 l 725 0 l 725 79 q 764 203 725 156 q 893 290 794 242 q 1004 360 986 340 q 1029 424 1029 386 q 1003 485 1029 461 q 931 508 978 508 q 818 386 831 508 l 719 399 q 781 547 725 494 q 932 600 838 600 q 1072 549 1017 600 q 1126 417 1126 499 q 1089 310 1126 353 q 971 229 1051 268 q 850 151 869 179 q 839 104 839 132 l 1131 104 l 1131 0 z "},"¾":{"ha":1238,"x_min":49,"x_max":1182,"o":"m 371 -101 l 289 -51 l 968 1081 l 1049 1029 l 371 -101 m 49 575 l 149 597 q 272 464 165 464 q 353 489 325 464 q 382 557 382 514 q 267 649 382 649 l 229 649 l 229 731 l 260 731 q 329 749 303 731 q 356 804 356 768 q 332 864 356 842 q 265 886 308 886 q 172 793 186 886 l 78 811 q 136 934 85 889 q 269 979 188 979 q 400 935 349 979 q 451 819 451 892 q 429 743 451 774 q 375 701 407 713 l 375 699 q 447 649 417 688 q 478 549 478 610 q 422 422 478 471 q 272 372 367 372 q 119 424 178 372 q 49 575 61 476 m 1010 128 l 742 128 l 742 222 l 967 593 l 1113 593 l 1113 222 l 1182 222 l 1182 128 l 1113 128 l 1113 0 l 1010 0 l 1010 128 m 1008 503 l 838 222 l 1011 222 l 1011 503 l 1008 503 z "},"¿":{"ha":728,"x_min":42,"x_max":672,"o":"m 324 456 l 453 456 l 453 390 q 426 295 453 333 q 329 208 399 257 q 221 119 242 144 q 182 14 182 75 q 224 -88 182 -47 q 347 -129 267 -129 q 535 75 525 -129 l 672 64 q 585 -167 669 -78 q 344 -257 501 -257 q 128 -182 214 -257 q 42 6 42 -108 q 88 158 42 106 q 132 206 108 185 q 192 251 144 217 l 224 275 q 278 314 276 313 q 311 351 297 329 q 324 400 324 369 l 324 456 m 293 736 l 471 736 l 471 564 l 293 564 l 293 736 z "},"À":{"ha":876,"x_min":21,"x_max":856,"o":"m 856 0 l 708 0 l 644 179 l 228 179 l 165 0 l 21 0 l 372 972 l 506 972 l 856 0 m 438 772 l 435 772 l 269 299 l 603 299 l 438 772 m 499 1063 l 382 1063 l 231 1232 l 388 1232 l 499 1063 z "},"Á":{"ha":876,"x_min":21,"x_max":856,"o":"m 856 0 l 708 0 l 644 179 l 228 179 l 165 0 l 21 0 l 372 972 l 506 972 l 856 0 m 438 772 l 435 772 l 269 299 l 603 299 l 438 772 m 504 1063 l 388 1063 l 497 1232 l 654 1232 l 504 1063 z "},"Â":{"ha":876,"x_min":21,"x_max":856,"o":"m 856 0 l 708 0 l 644 179 l 228 179 l 165 0 l 21 0 l 372 972 l 506 972 l 856 0 m 438 772 l 435 772 l 269 299 l 603 299 l 438 772 m 339 1038 l 264 1097 l 357 1215 l 519 1215 l 613 1097 l 538 1038 l 439 1163 l 339 1038 z "},"Ã":{"ha":876,"x_min":21,"x_max":856,"o":"m 856 0 l 708 0 l 644 179 l 228 179 l 165 0 l 21 0 l 372 972 l 506 972 l 856 0 m 438 772 l 435 772 l 269 299 l 603 299 l 438 772 m 311 1063 l 240 1063 q 369 1200 264 1200 q 461 1174 413 1200 q 532 1147 513 1147 q 582 1193 572 1147 l 654 1193 q 525 1056 629 1056 q 432 1082 483 1056 q 361 1108 381 1108 q 311 1063 322 1108 z "},"Ä":{"ha":876,"x_min":21,"x_max":856,"o":"m 856 0 l 708 0 l 644 179 l 228 179 l 165 0 l 21 0 l 372 972 l 506 972 l 856 0 m 438 772 l 435 772 l 269 299 l 603 299 l 438 772 m 372 1063 l 232 1063 l 232 1200 l 372 1200 l 372 1063 m 643 1063 l 501 1063 l 501 1200 l 643 1200 l 643 1063 z "},"Å":{"ha":876,"x_min":21,"x_max":856,"o":"m 856 0 l 708 0 l 644 179 l 228 179 l 165 0 l 21 0 l 369 964 q 299 1092 299 1001 q 339 1194 299 1151 q 438 1236 379 1236 q 538 1195 499 1236 q 576 1092 576 1154 q 508 964 576 1003 l 856 0 m 438 772 l 435 772 l 269 299 l 603 299 l 438 772 m 393 1036 q 402 1026 393 1036 q 438 1015 411 1015 q 483 1036 464 1015 q 501 1093 501 1057 q 483 1148 501 1128 q 438 1168 464 1168 q 392 1148 410 1168 q 375 1093 375 1128 q 393 1036 375 1057 z "},"Æ":{"ha":1203,"x_min":21,"x_max":1113,"o":"m 164 0 l 21 0 l 386 972 l 1113 972 l 1113 843 l 706 843 l 706 561 l 1074 561 l 1074 439 l 706 439 l 706 128 l 1113 128 l 1113 0 l 567 0 l 567 194 l 238 194 l 164 0 m 474 843 l 281 317 l 567 317 l 567 843 l 474 843 z "},"Ç":{"ha":924,"x_min":69,"x_max":861,"o":"m 375 -235 l 424 -171 q 531 -219 483 -219 q 580 -206 561 -219 q 599 -167 599 -192 q 531 -117 599 -117 q 467 -133 493 -117 l 458 -140 l 404 -110 l 457 -19 q 179 117 289 -8 q 69 494 69 243 q 190 863 69 731 q 485 993 313 993 q 739 900 640 993 q 860 650 842 806 l 718 626 q 485 863 681 863 q 290 766 364 863 q 215 494 215 669 q 288 208 215 307 q 485 110 361 110 q 713 371 688 110 l 861 347 q 760 92 849 189 q 528 -18 672 -4 l 489 -81 l 490 -82 q 571 -61 524 -61 q 652 -92 618 -61 q 686 -174 686 -122 q 644 -264 686 -231 q 535 -297 603 -297 q 375 -235 439 -297 z "},"È":{"ha":810,"x_min":125,"x_max":719,"o":"m 719 0 l 125 0 l 125 972 l 719 972 l 719 843 l 264 843 l 264 561 l 681 561 l 681 438 l 264 438 l 264 128 l 719 128 l 719 0 m 507 1063 l 390 1063 l 239 1232 l 396 1232 l 507 1063 z "},"É":{"ha":810,"x_min":125,"x_max":719,"o":"m 719 0 l 125 0 l 125 972 l 719 972 l 719 843 l 264 843 l 264 561 l 681 561 l 681 438 l 264 438 l 264 128 l 719 128 l 719 0 m 467 1063 l 350 1063 l 460 1232 l 617 1232 l 467 1063 z "},"Ê":{"ha":810,"x_min":125,"x_max":719,"o":"m 719 0 l 125 0 l 125 972 l 719 972 l 719 843 l 264 843 l 264 561 l 681 561 l 681 438 l 264 438 l 264 128 l 719 128 l 719 0 m 331 1038 l 256 1097 l 349 1215 l 511 1215 l 604 1097 l 529 1038 l 431 1163 l 331 1038 z "},"Ë":{"ha":810,"x_min":125,"x_max":719,"o":"m 719 0 l 125 0 l 125 972 l 719 972 l 719 843 l 264 843 l 264 561 l 681 561 l 681 438 l 264 438 l 264 128 l 719 128 l 719 0 m 357 1063 l 217 1063 l 217 1200 l 357 1200 l 357 1063 m 628 1063 l 486 1063 l 486 1200 l 628 1200 l 628 1063 z "},"Ì":{"ha":403,"x_min":-21,"x_max":271,"o":"m 271 0 l 132 0 l 132 972 l 271 972 l 271 0 m 247 1063 l 131 1063 l -21 1232 l 136 1232 l 247 1063 z "},"Í":{"ha":403,"x_min":124,"x_max":390,"o":"m 271 0 l 132 0 l 132 972 l 271 972 l 271 0 m 240 1063 l 124 1063 l 233 1232 l 390 1232 l 240 1063 z "},"Î":{"ha":403,"x_min":14,"x_max":363,"o":"m 271 0 l 132 0 l 132 972 l 271 972 l 271 0 m 89 1038 l 14 1097 l 107 1215 l 269 1215 l 363 1097 l 288 1038 l 189 1163 l 89 1038 z "},"Ï":{"ha":403,"x_min":-18,"x_max":393,"o":"m 271 0 l 132 0 l 132 972 l 271 972 l 271 0 m 122 1063 l -18 1063 l -18 1200 l 122 1200 l 122 1063 m 393 1063 l 251 1063 l 251 1200 l 393 1200 l 393 1063 z "},"Ð":{"ha":951,"x_min":49,"x_max":889,"o":"m 460 0 l 143 0 l 143 449 l 49 449 l 49 567 l 143 567 l 143 972 l 468 972 q 767 849 646 972 q 889 488 889 726 q 756 103 889 218 q 460 0 635 0 m 282 449 l 282 128 l 453 128 q 667 213 594 128 q 740 488 740 299 q 667 753 740 663 q 461 843 593 843 l 282 843 l 282 567 l 517 567 l 517 449 l 282 449 z "},"Ñ":{"ha":954,"x_min":125,"x_max":829,"o":"m 264 0 l 125 0 l 125 972 l 268 972 l 686 247 l 689 247 l 689 972 l 829 972 l 829 0 l 689 0 l 267 725 l 264 725 l 264 0 m 346 1063 l 275 1063 q 404 1200 297 1200 q 496 1174 447 1200 q 567 1147 547 1147 q 617 1193 606 1147 l 689 1193 q 560 1056 664 1056 q 467 1082 518 1056 q 396 1108 415 1108 q 346 1063 356 1108 z "},"Ò":{"ha":965,"x_min":69,"x_max":896,"o":"m 485 108 q 678 206 607 108 q 750 490 750 303 q 674 767 750 672 q 485 863 599 863 q 290 766 364 863 q 215 494 215 669 q 288 208 215 307 q 485 108 361 108 m 768 94 q 485 -21 653 -21 q 197 96 317 -21 q 69 494 69 226 q 190 863 69 731 q 485 993 313 993 q 775 860 654 993 q 896 490 896 729 q 768 94 896 219 m 551 1063 l 435 1063 l 283 1232 l 440 1232 l 551 1063 z "},"Ó":{"ha":965,"x_min":69,"x_max":896,"o":"m 485 108 q 678 206 607 108 q 750 490 750 303 q 674 767 750 672 q 485 863 599 863 q 290 766 364 863 q 215 494 215 669 q 288 208 215 307 q 485 108 361 108 m 768 94 q 485 -21 653 -21 q 197 96 317 -21 q 69 494 69 226 q 190 863 69 731 q 485 993 313 993 q 775 860 654 993 q 896 490 896 729 q 768 94 896 219 m 540 1063 l 424 1063 l 533 1232 l 690 1232 l 540 1063 z "},"Ô":{"ha":965,"x_min":69,"x_max":896,"o":"m 485 108 q 678 206 607 108 q 750 490 750 303 q 674 767 750 672 q 485 863 599 863 q 290 766 364 863 q 215 494 215 669 q 288 208 215 307 q 485 108 361 108 m 768 94 q 485 -21 653 -21 q 197 96 317 -21 q 69 494 69 226 q 190 863 69 731 q 485 993 313 993 q 775 860 654 993 q 896 490 896 729 q 768 94 896 219 m 396 1038 l 321 1097 l 414 1215 l 576 1215 l 669 1097 l 594 1038 l 496 1163 l 396 1038 z "},"Õ":{"ha":965,"x_min":69,"x_max":896,"o":"m 485 108 q 678 206 607 108 q 750 490 750 303 q 674 767 750 672 q 485 863 599 863 q 290 766 364 863 q 215 494 215 669 q 288 208 215 307 q 485 108 361 108 m 768 94 q 485 -21 653 -21 q 197 96 317 -21 q 69 494 69 226 q 190 863 69 731 q 485 993 313 993 q 775 860 654 993 q 896 490 896 729 q 768 94 896 219 m 360 1063 l 289 1063 q 418 1200 311 1200 q 510 1174 461 1200 q 581 1147 561 1147 q 631 1193 619 1147 l 703 1193 q 574 1056 678 1056 q 481 1082 532 1056 q 410 1108 429 1108 q 360 1063 369 1108 z "},"Ö":{"ha":965,"x_min":69,"x_max":896,"o":"m 485 108 q 678 206 607 108 q 750 490 750 303 q 674 767 750 672 q 485 863 599 863 q 290 766 364 863 q 215 494 215 669 q 288 208 215 307 q 485 108 361 108 m 768 94 q 485 -21 653 -21 q 197 96 317 -21 q 69 494 69 226 q 190 863 69 731 q 485 993 313 993 q 775 860 654 993 q 896 490 896 729 q 768 94 896 219 m 425 1063 l 285 1063 l 285 1200 l 425 1200 l 425 1063 m 696 1063 l 554 1063 l 554 1200 l 696 1200 l 696 1063 z "},"×":{"ha":757,"x_min":69,"x_max":688,"o":"m 149 158 l 69 239 l 299 468 l 83 683 l 163 763 l 378 547 l 593 763 l 674 682 l 458 468 l 688 239 l 607 160 l 378 388 l 149 158 z "},"Ø":{"ha":965,"x_min":69,"x_max":896,"o":"m 236 -21 l 171 15 l 210 83 q 69 494 69 219 q 190 863 69 731 q 485 993 313 993 q 693 931 597 993 l 729 993 l 792 954 l 751 885 q 896 490 896 743 q 768 94 896 219 q 485 -21 653 -21 q 269 38 364 -21 l 236 -21 m 679 757 l 338 157 q 485 108 399 108 q 678 206 607 108 q 750 490 750 303 q 679 757 750 658 m 285 214 l 626 814 q 485 863 561 863 q 290 766 364 863 q 215 494 215 669 q 285 214 215 317 z "},"Ù":{"ha":913,"x_min":104,"x_max":808,"o":"m 104 317 l 104 972 l 243 972 l 243 325 q 297 165 243 221 q 456 110 351 110 q 615 165 561 110 q 669 322 669 219 l 669 972 l 808 972 l 808 317 q 716 66 808 153 q 456 -21 624 -21 q 197 66 289 -21 q 104 317 104 153 m 539 1063 l 422 1063 l 271 1232 l 428 1232 l 539 1063 z "},"Ú":{"ha":913,"x_min":104,"x_max":808,"o":"m 104 317 l 104 972 l 243 972 l 243 325 q 297 165 243 221 q 456 110 351 110 q 615 165 561 110 q 669 322 669 219 l 669 972 l 808 972 l 808 317 q 716 66 808 153 q 456 -21 624 -21 q 197 66 289 -21 q 104 317 104 153 m 532 1063 l 415 1063 l 525 1232 l 682 1232 l 532 1063 z "},"Û":{"ha":913,"x_min":104,"x_max":808,"o":"m 104 317 l 104 972 l 243 972 l 243 325 q 297 165 243 221 q 456 110 351 110 q 615 165 561 110 q 669 322 669 219 l 669 972 l 808 972 l 808 317 q 716 66 808 153 q 456 -21 624 -21 q 197 66 289 -21 q 104 317 104 153 m 369 1038 l 294 1097 l 388 1215 l 550 1215 l 643 1097 l 568 1038 l 469 1163 l 369 1038 z "},"Ü":{"ha":913,"x_min":104,"x_max":808,"o":"m 104 317 l 104 972 l 243 972 l 243 325 q 297 165 243 221 q 456 110 351 110 q 615 165 561 110 q 669 322 669 219 l 669 972 l 808 972 l 808 317 q 716 66 808 153 q 456 -21 624 -21 q 197 66 289 -21 q 104 317 104 153 m 397 1063 l 257 1063 l 257 1200 l 397 1200 l 397 1063 m 668 1063 l 526 1063 l 526 1200 l 668 1200 l 668 1063 z "},"Ý":{"ha":801,"x_min":14,"x_max":788,"o":"m 468 0 l 332 0 l 332 410 l 14 972 l 164 972 l 399 538 l 401 538 l 638 972 l 788 972 l 468 410 l 468 0 m 472 1063 l 356 1063 l 465 1232 l 622 1232 l 472 1063 z "},"Þ":{"ha":896,"x_min":125,"x_max":854,"o":"m 264 0 l 125 0 l 125 972 l 264 972 l 264 811 l 507 811 q 763 731 671 811 q 854 501 854 651 q 507 193 854 193 l 264 193 l 264 0 m 264 682 l 264 321 l 511 321 q 660 367 606 321 q 715 501 715 413 q 661 636 715 590 q 511 682 607 682 l 264 682 z "},"ß":{"ha":794,"x_min":97,"x_max":725,"o":"m 232 0 l 97 0 l 97 682 q 178 911 97 829 q 392 993 260 993 q 599 921 518 993 q 682 736 682 849 q 564 544 682 604 l 564 542 q 635 504 603 528 q 698 422 671 478 q 725 297 725 365 q 401 0 725 0 l 357 0 l 357 118 l 389 118 q 597 301 597 118 q 421 475 597 475 l 357 475 l 357 581 l 392 581 q 511 616 465 581 q 557 717 557 651 q 513 829 557 788 q 393 871 468 871 q 269 817 307 871 q 232 661 232 764 l 232 0 z "},"à":{"ha":750,"x_min":63,"x_max":653,"o":"m 653 0 l 535 0 l 535 78 l 532 78 q 460 13 519 50 q 315 -21 403 -21 q 128 38 193 -21 q 63 192 63 96 q 119 335 63 283 q 310 421 175 388 q 471 474 435 454 q 514 539 514 496 q 476 611 514 583 q 369 639 439 639 q 199 500 232 639 l 81 542 q 176 699 101 640 q 367 757 250 757 q 576 689 500 757 q 653 486 653 621 l 653 0 m 340 322 q 226 272 257 299 q 194 200 194 244 q 328 99 194 99 q 469 138 418 99 q 521 238 521 178 l 521 403 l 518 403 q 478 367 513 385 q 340 322 443 350 m 454 826 l 338 826 l 186 996 l 343 996 l 454 826 z "},"á":{"ha":750,"x_min":63,"x_max":653,"o":"m 653 0 l 535 0 l 535 78 l 532 78 q 460 13 519 50 q 315 -21 403 -21 q 128 38 193 -21 q 63 192 63 96 q 119 335 63 283 q 310 421 175 388 q 471 474 435 454 q 514 539 514 496 q 476 611 514 583 q 369 639 439 639 q 199 500 232 639 l 81 542 q 176 699 101 640 q 367 757 250 757 q 576 689 500 757 q 653 486 653 621 l 653 0 m 340 322 q 226 272 257 299 q 194 200 194 244 q 328 99 194 99 q 469 138 418 99 q 521 238 521 178 l 521 403 l 518 403 q 478 367 513 385 q 340 322 443 350 m 414 826 l 297 826 l 407 996 l 564 996 l 414 826 z "},"â":{"ha":750,"x_min":63,"x_max":653,"o":"m 653 0 l 535 0 l 535 78 l 532 78 q 460 13 519 50 q 315 -21 403 -21 q 128 38 193 -21 q 63 192 63 96 q 119 335 63 283 q 310 421 175 388 q 471 474 435 454 q 514 539 514 496 q 476 611 514 583 q 369 639 439 639 q 199 500 232 639 l 81 542 q 176 699 101 640 q 367 757 250 757 q 576 689 500 757 q 653 486 653 621 l 653 0 m 340 322 q 226 272 257 299 q 194 200 194 244 q 328 99 194 99 q 469 138 418 99 q 521 238 521 178 l 521 403 l 518 403 q 478 367 513 385 q 340 322 443 350 m 281 807 l 206 867 l 299 986 l 461 986 l 554 867 l 479 807 l 381 932 l 281 807 z "},"ã":{"ha":750,"x_min":63,"x_max":653,"o":"m 653 0 l 535 0 l 535 78 l 532 78 q 460 13 519 50 q 315 -21 403 -21 q 128 38 193 -21 q 63 192 63 96 q 119 335 63 283 q 310 421 175 388 q 471 474 435 454 q 514 539 514 496 q 476 611 514 583 q 369 639 439 639 q 199 500 232 639 l 81 542 q 176 699 101 640 q 367 757 250 757 q 576 689 500 757 q 653 486 653 621 l 653 0 m 340 322 q 226 272 257 299 q 194 200 194 244 q 328 99 194 99 q 469 138 418 99 q 521 238 521 178 l 521 403 l 518 403 q 478 367 513 385 q 340 322 443 350 m 243 833 l 172 833 q 301 971 194 971 q 393 944 344 971 q 464 918 444 918 q 514 964 503 918 l 586 964 q 457 826 561 826 q 364 853 415 826 q 293 879 313 879 q 243 833 253 879 z "},"ä":{"ha":750,"x_min":63,"x_max":653,"o":"m 653 0 l 535 0 l 535 78 l 532 78 q 460 13 519 50 q 315 -21 403 -21 q 128 38 193 -21 q 63 192 63 96 q 119 335 63 283 q 310 421 175 388 q 471 474 435 454 q 514 539 514 496 q 476 611 514 583 q 369 639 439 639 q 199 500 232 639 l 81 542 q 176 699 101 640 q 367 757 250 757 q 576 689 500 757 q 653 486 653 621 l 653 0 m 340 322 q 226 272 257 299 q 194 200 194 244 q 328 99 194 99 q 469 138 418 99 q 521 238 521 178 l 521 403 l 518 403 q 478 367 513 385 q 340 322 443 350 m 315 842 l 175 842 l 175 979 l 315 979 l 315 842 m 586 842 l 444 842 l 444 979 l 586 979 l 586 842 z "},"å":{"ha":750,"x_min":63,"x_max":653,"o":"m 653 0 l 535 0 l 535 78 l 532 78 q 460 13 519 50 q 315 -21 403 -21 q 128 38 193 -21 q 63 192 63 96 q 119 335 63 283 q 310 421 175 388 q 471 474 435 454 q 514 539 514 496 q 476 611 514 583 q 369 639 439 639 q 199 500 232 639 l 81 542 q 153 678 97 622 q 294 750 208 733 q 238 869 238 790 q 278 972 238 929 q 376 1014 318 1014 q 476 973 438 1014 q 515 869 515 932 q 456 749 515 788 q 653 486 653 706 l 653 0 m 340 322 q 226 272 257 299 q 194 200 194 244 q 328 99 194 99 q 469 138 418 99 q 521 238 521 178 l 521 403 l 518 403 q 478 367 513 385 q 340 322 443 350 m 332 814 q 341 803 332 814 q 376 793 350 793 q 422 815 403 793 q 440 871 440 836 q 409 938 440 918 q 346 938 378 957 q 314 871 314 918 q 332 814 314 835 z "},"æ":{"ha":1258,"x_min":63,"x_max":1196,"o":"m 1069 251 l 1183 182 q 1063 34 1143 89 q 871 -21 982 -21 q 594 119 693 -21 l 592 119 q 582 99 590 113 q 553 63 574 85 q 505 24 533 42 q 429 -8 476 6 q 326 -21 382 -21 q 130 37 197 -21 q 63 192 63 94 q 117 335 63 282 q 300 418 172 388 q 471 472 428 450 q 514 540 514 497 q 478 610 514 582 q 376 639 443 639 q 200 500 233 639 l 81 539 q 177 699 100 640 q 371 757 254 757 q 615 644 542 757 q 863 757 708 757 q 1103 651 1010 757 q 1196 368 1196 549 l 1196 328 l 663 328 q 719 163 665 226 q 868 100 774 100 q 1010 161 960 100 q 1069 251 1047 204 m 340 322 q 226 272 257 299 q 194 200 194 244 q 328 99 194 99 q 469 138 418 99 q 521 238 521 178 l 521 403 l 518 403 q 478 367 513 385 q 340 322 443 350 m 663 433 l 1060 433 q 1005 579 1056 522 q 861 636 954 636 q 717 572 768 636 q 663 433 664 510 z "},"ç":{"ha":768,"x_min":63,"x_max":713,"o":"m 282 -235 l 331 -171 q 438 -219 390 -219 q 487 -206 468 -219 q 506 -167 506 -192 q 438 -117 506 -117 q 374 -133 400 -117 l 365 -140 l 311 -110 l 364 -19 q 146 94 229 -7 q 63 368 63 197 q 160 653 63 551 q 400 757 258 757 q 610 681 528 757 q 708 485 693 607 l 576 464 q 519 588 564 542 q 400 633 475 633 q 251 563 306 633 q 196 368 196 493 q 251 172 196 243 q 401 101 306 101 q 520 152 476 101 q 578 288 564 203 l 713 254 q 622 64 694 136 q 435 -18 550 -8 l 396 -81 l 397 -82 q 478 -61 431 -61 q 559 -92 525 -61 q 593 -174 593 -122 q 551 -264 593 -231 q 442 -297 510 -297 q 282 -235 347 -297 z "},"è":{"ha":796,"x_min":63,"x_max":733,"o":"m 611 235 l 713 158 q 407 -21 614 -21 q 158 85 254 -21 q 63 368 63 192 q 157 650 63 543 q 400 757 253 757 q 640 651 547 757 q 733 368 733 549 l 733 328 l 200 328 q 256 163 203 225 q 404 100 310 100 q 546 150 496 100 q 611 235 583 188 m 201 433 l 599 433 q 544 579 594 522 q 400 636 493 636 q 256 572 307 636 q 201 433 203 510 m 479 826 l 363 826 l 211 996 l 368 996 l 479 826 z "},"é":{"ha":796,"x_min":63,"x_max":733,"o":"m 611 235 l 713 158 q 407 -21 614 -21 q 158 85 254 -21 q 63 368 63 192 q 157 650 63 543 q 400 757 253 757 q 640 651 547 757 q 733 368 733 549 l 733 328 l 200 328 q 256 163 203 225 q 404 100 310 100 q 546 150 496 100 q 611 235 583 188 m 201 433 l 599 433 q 544 579 594 522 q 400 636 493 636 q 256 572 307 636 q 201 433 203 510 m 475 826 l 358 826 l 468 996 l 625 996 l 475 826 z "},"ê":{"ha":796,"x_min":63,"x_max":733,"o":"m 611 235 l 713 158 q 407 -21 614 -21 q 158 85 254 -21 q 63 368 63 192 q 157 650 63 543 q 400 757 253 757 q 640 651 547 757 q 733 368 733 549 l 733 328 l 200 328 q 256 163 203 225 q 404 100 310 100 q 546 150 496 100 q 611 235 583 188 m 201 433 l 599 433 q 544 579 594 522 q 400 636 493 636 q 256 572 307 636 q 201 433 203 510 m 318 807 l 243 867 l 336 986 l 499 986 l 592 867 l 517 807 l 418 932 l 318 807 z "},"ë":{"ha":796,"x_min":63,"x_max":733,"o":"m 611 235 l 713 158 q 407 -21 614 -21 q 158 85 254 -21 q 63 368 63 192 q 157 650 63 543 q 400 757 253 757 q 640 651 547 757 q 733 368 733 549 l 733 328 l 200 328 q 256 163 203 225 q 404 100 310 100 q 546 150 496 100 q 611 235 583 188 m 201 433 l 599 433 q 544 579 594 522 q 400 636 493 636 q 256 572 307 636 q 201 433 203 510 m 351 842 l 211 842 l 211 979 l 351 979 l 351 842 m 622 842 l 481 842 l 481 979 l 622 979 l 622 842 z "},"ì":{"ha":354,"x_min":-26,"x_max":243,"o":"m 243 0 l 111 0 l 111 736 l 243 736 l 243 0 m 242 826 l 125 826 l -26 996 l 131 996 l 242 826 z "},"í":{"ha":354,"x_min":111,"x_max":388,"o":"m 243 0 l 111 0 l 111 736 l 243 736 l 243 0 m 238 826 l 121 826 l 231 996 l 388 996 l 238 826 z "},"î":{"ha":354,"x_min":3,"x_max":351,"o":"m 243 0 l 111 0 l 111 736 l 243 736 l 243 0 m 78 807 l 3 867 l 96 986 l 258 986 l 351 867 l 276 807 l 178 932 l 78 807 z "},"ï":{"ha":354,"x_min":-29,"x_max":382,"o":"m 243 0 l 111 0 l 111 736 l 243 736 l 243 0 m 111 842 l -29 842 l -29 979 l 111 979 l 111 842 m 382 842 l 240 842 l 240 979 l 382 979 l 382 842 z "},"ð":{"ha":793,"x_min":63,"x_max":731,"o":"m 697 1035 l 719 971 l 558 925 q 731 374 731 664 q 642 81 731 182 q 396 -21 554 -21 q 154 81 247 -21 q 63 368 63 183 q 150 654 63 553 q 372 757 240 757 q 549 696 481 757 l 551 697 q 446 893 513 797 l 254 840 l 233 907 l 400 953 q 292 1074 356 1006 l 292 1076 l 442 1076 q 518 985 494 1015 l 697 1035 m 403 103 q 547 172 497 103 q 596 367 596 240 q 390 635 596 635 q 194 367 194 635 q 250 173 194 243 q 403 103 306 103 z "},"ñ":{"ha":817,"x_min":111,"x_max":713,"o":"m 246 0 l 111 0 l 111 736 l 243 736 l 243 665 l 246 665 q 332 731 276 704 q 447 757 388 757 q 640 683 568 757 q 713 482 713 610 l 713 0 l 576 0 l 576 443 q 421 632 576 632 q 294 587 342 632 q 246 463 246 542 l 246 0 m 275 833 l 204 833 q 333 971 228 971 q 425 944 376 971 q 496 918 476 918 q 546 964 536 918 l 618 964 q 489 826 593 826 q 396 853 447 826 q 325 879 344 879 q 275 833 286 879 z "},"ò":{"ha":796,"x_min":63,"x_max":733,"o":"m 400 101 q 545 173 490 101 q 600 368 600 244 q 545 563 600 492 q 400 633 490 633 q 251 564 307 633 q 196 368 196 494 q 251 172 196 242 q 400 101 307 101 m 400 -21 q 157 82 253 -21 q 63 368 63 185 q 160 653 63 550 q 400 757 258 757 q 636 653 540 757 q 733 368 733 550 q 639 82 733 185 q 400 -21 544 -21 m 464 826 l 347 826 l 196 996 l 353 996 l 464 826 z "},"ó":{"ha":796,"x_min":63,"x_max":733,"o":"m 400 101 q 545 173 490 101 q 600 368 600 244 q 545 563 600 492 q 400 633 490 633 q 251 564 307 633 q 196 368 196 494 q 251 172 196 242 q 400 101 307 101 m 400 -21 q 157 82 253 -21 q 63 368 63 185 q 160 653 63 550 q 400 757 258 757 q 636 653 540 757 q 733 368 733 550 q 639 82 733 185 q 400 -21 544 -21 m 469 826 l 353 826 l 463 996 l 619 996 l 469 826 z "},"ô":{"ha":796,"x_min":63,"x_max":733,"o":"m 400 101 q 545 173 490 101 q 600 368 600 244 q 545 563 600 492 q 400 633 490 633 q 251 564 307 633 q 196 368 196 494 q 251 172 196 242 q 400 101 307 101 m 400 -21 q 157 82 253 -21 q 63 368 63 185 q 160 653 63 550 q 400 757 258 757 q 636 653 540 757 q 733 368 733 550 q 639 82 733 185 q 400 -21 544 -21 m 308 807 l 233 867 l 326 986 l 489 986 l 582 867 l 507 807 l 408 932 l 308 807 z "},"õ":{"ha":796,"x_min":63,"x_max":733,"o":"m 400 101 q 545 173 490 101 q 600 368 600 244 q 545 563 600 492 q 400 633 490 633 q 251 564 307 633 q 196 368 196 494 q 251 172 196 242 q 400 101 307 101 m 400 -21 q 157 82 253 -21 q 63 368 63 185 q 160 653 63 550 q 400 757 258 757 q 636 653 540 757 q 733 368 733 550 q 639 82 733 185 q 400 -21 544 -21 m 275 833 l 204 833 q 333 971 228 971 q 425 944 376 971 q 496 918 476 918 q 546 964 536 918 l 618 964 q 489 826 593 826 q 396 853 447 826 q 325 879 344 879 q 275 833 286 879 z "},"ö":{"ha":796,"x_min":63,"x_max":733,"o":"m 400 101 q 545 173 490 101 q 600 368 600 244 q 545 563 600 492 q 400 633 490 633 q 251 564 307 633 q 196 368 196 494 q 251 172 196 242 q 400 101 307 101 m 400 -21 q 157 82 253 -21 q 63 368 63 185 q 160 653 63 550 q 400 757 258 757 q 636 653 540 757 q 733 368 733 550 q 639 82 733 185 q 400 -21 544 -21 m 347 842 l 207 842 l 207 979 l 347 979 l 347 842 m 618 842 l 476 842 l 476 979 l 618 979 l 618 842 z "},"÷":{"ha":672,"x_min":69,"x_max":603,"o":"m 226 786 q 258 865 226 833 q 335 896 289 896 q 413 865 381 896 q 444 786 444 833 q 413 710 444 742 q 335 678 381 678 q 258 710 289 678 q 226 786 226 742 m 226 192 q 258 270 226 239 q 335 301 289 301 q 413 270 381 301 q 444 192 444 239 q 413 115 444 147 q 335 83 381 83 q 258 115 289 83 q 226 192 226 147 m 603 436 l 69 436 l 69 547 l 603 547 l 603 436 z "},"ø":{"ha":796,"x_min":63,"x_max":733,"o":"m 138 -18 l 89 21 l 146 94 q 63 368 63 197 q 160 653 63 550 q 400 757 258 757 q 604 683 514 757 l 658 753 l 707 713 l 649 639 q 733 368 733 536 q 639 82 733 185 q 400 -21 544 -21 q 190 50 275 -21 l 138 -18 m 564 529 l 269 153 q 400 101 321 101 q 545 173 490 101 q 600 368 600 244 q 564 529 600 460 m 231 204 l 525 583 q 400 633 472 633 q 252 563 308 633 q 196 368 196 493 q 231 204 196 268 z "},"ù":{"ha":800,"x_min":104,"x_max":689,"o":"m 104 258 l 104 736 l 239 736 l 239 276 q 273 145 239 183 q 388 107 307 107 q 509 153 464 107 q 554 283 554 200 l 554 736 l 689 736 l 689 0 l 558 0 l 558 71 l 556 71 q 357 -21 488 -21 q 169 51 235 -21 q 104 258 104 122 m 465 826 l 349 826 l 197 996 l 354 996 l 465 826 z "},"ú":{"ha":800,"x_min":104,"x_max":689,"o":"m 104 258 l 104 736 l 239 736 l 239 276 q 273 145 239 183 q 388 107 307 107 q 509 153 464 107 q 554 283 554 200 l 554 736 l 689 736 l 689 0 l 558 0 l 558 71 l 556 71 q 357 -21 488 -21 q 169 51 235 -21 q 104 258 104 122 m 456 826 l 339 826 l 449 996 l 606 996 l 456 826 z "},"û":{"ha":800,"x_min":104,"x_max":689,"o":"m 104 258 l 104 736 l 239 736 l 239 276 q 273 145 239 183 q 388 107 307 107 q 509 153 464 107 q 554 283 554 200 l 554 736 l 689 736 l 689 0 l 558 0 l 558 71 l 556 71 q 357 -21 488 -21 q 169 51 235 -21 q 104 258 104 122 m 303 807 l 228 867 l 321 986 l 483 986 l 576 867 l 501 807 l 403 932 l 303 807 z "},"ü":{"ha":800,"x_min":104,"x_max":689,"o":"m 104 258 l 104 736 l 239 736 l 239 276 q 273 145 239 183 q 388 107 307 107 q 509 153 464 107 q 554 283 554 200 l 554 736 l 689 736 l 689 0 l 558 0 l 558 71 l 556 71 q 357 -21 488 -21 q 169 51 235 -21 q 104 258 104 122 m 340 842 l 200 842 l 200 979 l 340 979 l 340 842 m 611 842 l 469 842 l 469 979 l 611 979 l 611 842 z "},"ý":{"ha":724,"x_min":21,"x_max":703,"o":"m 289 -312 l 157 -312 l 299 51 l 21 736 l 163 736 l 364 210 l 564 736 l 703 736 l 289 -312 m 429 826 l 313 826 l 422 996 l 579 996 l 429 826 z "},"þ":{"ha":835,"x_min":111,"x_max":772,"o":"m 246 -312 l 111 -312 l 111 1014 l 243 1014 l 243 661 l 246 661 q 331 731 275 704 q 451 757 386 757 q 679 650 585 757 q 772 368 772 544 q 681 85 772 192 q 454 -21 592 -21 q 249 64 317 -21 l 246 64 l 246 -312 m 246 464 l 246 258 q 297 149 246 193 q 425 104 347 104 q 581 174 525 104 q 638 368 638 243 q 581 563 638 493 q 425 632 525 632 q 294 581 342 632 q 246 464 246 529 z "},"ÿ":{"ha":724,"x_min":21,"x_max":703,"o":"m 289 -312 l 157 -312 l 299 51 l 21 736 l 163 736 l 364 210 l 564 736 l 703 736 l 289 -312 m 300 842 l 160 842 l 160 979 l 300 979 l 300 842 m 571 842 l 429 842 l 429 979 l 571 979 l 571 842 z "},"Ā":{"ha":876,"x_min":21,"x_max":856,"o":"m 856 0 l 708 0 l 644 179 l 228 179 l 165 0 l 21 0 l 372 972 l 506 972 l 856 0 m 438 772 l 435 772 l 269 299 l 603 299 l 438 772 m 638 1063 l 238 1063 l 238 1156 l 638 1156 l 638 1063 z "},"ā":{"ha":750,"x_min":63,"x_max":653,"o":"m 653 0 l 535 0 l 535 78 l 532 78 q 460 13 519 50 q 315 -21 403 -21 q 128 38 193 -21 q 63 192 63 96 q 119 335 63 283 q 310 421 175 388 q 471 474 435 454 q 514 539 514 496 q 476 611 514 583 q 369 639 439 639 q 199 500 232 639 l 81 542 q 176 699 101 640 q 367 757 250 757 q 576 689 500 757 q 653 486 653 621 l 653 0 m 340 322 q 226 272 257 299 q 194 200 194 244 q 328 99 194 99 q 469 138 418 99 q 521 238 521 178 l 521 403 l 518 403 q 478 367 513 385 q 340 322 443 350 m 579 861 l 179 861 l 179 954 l 579 954 l 579 861 z "},"Ă":{"ha":876,"x_min":21,"x_max":856,"o":"m 856 0 l 708 0 l 644 179 l 228 179 l 165 0 l 21 0 l 372 972 l 506 972 l 856 0 m 438 772 l 435 772 l 269 299 l 603 299 l 438 772 m 261 1218 l 332 1218 q 364 1163 336 1183 q 439 1142 392 1142 q 512 1163 485 1142 q 543 1218 539 1183 l 615 1218 q 567 1094 615 1140 q 439 1049 518 1049 q 310 1094 360 1049 q 261 1218 261 1140 z "},"ă":{"ha":750,"x_min":63,"x_max":653,"o":"m 653 0 l 535 0 l 535 78 l 532 78 q 460 13 519 50 q 315 -21 403 -21 q 128 38 193 -21 q 63 192 63 96 q 119 335 63 283 q 310 421 175 388 q 471 474 435 454 q 514 539 514 496 q 476 611 514 583 q 369 639 439 639 q 199 500 232 639 l 81 542 q 176 699 101 640 q 367 757 250 757 q 576 689 500 757 q 653 486 653 621 l 653 0 m 340 322 q 226 272 257 299 q 194 200 194 244 q 328 99 194 99 q 469 138 418 99 q 521 238 521 178 l 521 403 l 518 403 q 478 367 513 385 q 340 322 443 350 m 201 982 l 272 982 q 304 926 276 947 q 379 906 332 906 q 452 926 425 906 q 483 982 479 947 l 556 982 q 507 858 556 904 q 379 813 458 813 q 251 858 300 813 q 201 982 201 904 z "},"Ą":{"ha":876,"x_min":21,"x_max":944,"o":"m 771 0 l 708 0 l 644 179 l 228 179 l 165 0 l 21 0 l 372 972 l 506 972 l 856 0 q 744 -162 744 -99 q 804 -212 744 -212 q 897 -162 850 -212 l 944 -206 q 772 -296 867 -296 q 672 -271 710 -296 q 633 -194 633 -246 q 771 0 633 -86 m 438 772 l 435 772 l 269 299 l 603 299 l 438 772 z "},"ą":{"ha":750,"x_min":63,"x_max":742,"o":"m 568 0 l 535 0 l 535 78 l 532 78 q 460 13 519 50 q 315 -21 403 -21 q 128 38 193 -21 q 63 192 63 96 q 119 335 63 283 q 310 421 175 388 q 471 474 435 454 q 514 539 514 496 q 476 611 514 583 q 369 639 439 639 q 199 500 232 639 l 81 542 q 176 699 101 640 q 367 757 250 757 q 576 689 500 757 q 653 486 653 621 l 653 0 q 542 -162 542 -99 q 601 -212 542 -212 q 694 -162 647 -212 l 742 -206 q 569 -296 664 -296 q 469 -271 507 -296 q 431 -194 431 -246 q 568 0 431 -86 m 340 322 q 226 272 257 299 q 194 200 194 244 q 328 99 194 99 q 469 138 418 99 q 521 238 521 178 l 521 403 l 518 403 q 478 367 513 385 q 340 322 443 350 z "},"Ć":{"ha":924,"x_min":69,"x_max":861,"o":"m 485 -21 q 197 96 317 -21 q 69 494 69 226 q 190 863 69 731 q 485 993 313 993 q 739 900 640 993 q 860 650 842 806 l 718 626 q 485 863 681 863 q 290 766 364 863 q 215 494 215 669 q 288 208 215 307 q 485 110 361 110 q 713 371 688 110 l 861 347 q 747 78 847 176 q 485 -21 647 -21 m 546 1063 l 429 1063 l 539 1232 l 696 1232 l 546 1063 z "},"ć":{"ha":768,"x_min":63,"x_max":713,"o":"m 578 288 l 713 254 q 610 52 693 125 q 399 -21 528 -21 q 156 83 250 -21 q 63 368 63 186 q 160 653 63 551 q 400 757 258 757 q 610 681 528 757 q 708 485 693 607 l 576 464 q 519 588 564 542 q 400 633 475 633 q 251 563 306 633 q 196 368 196 493 q 251 172 196 243 q 401 101 306 101 q 520 152 476 101 q 578 288 564 203 m 444 826 l 328 826 l 438 996 l 594 996 l 444 826 z "},"Ĉ":{"ha":924,"x_min":69,"x_max":861,"o":"m 485 -21 q 197 96 317 -21 q 69 494 69 226 q 190 863 69 731 q 485 993 313 993 q 739 900 640 993 q 860 650 842 806 l 718 626 q 485 863 681 863 q 290 766 364 863 q 215 494 215 669 q 288 208 215 307 q 485 110 361 110 q 713 371 688 110 l 861 347 q 747 78 847 176 q 485 -21 647 -21 m 382 1038 l 307 1097 l 400 1215 l 563 1215 l 656 1097 l 581 1038 l 482 1163 l 382 1038 z "},"ĉ":{"ha":768,"x_min":63,"x_max":713,"o":"m 578 288 l 713 254 q 610 52 693 125 q 399 -21 528 -21 q 156 83 250 -21 q 63 368 63 186 q 160 653 63 551 q 400 757 258 757 q 610 681 528 757 q 708 485 693 607 l 576 464 q 519 588 564 542 q 400 633 475 633 q 251 563 306 633 q 196 368 196 493 q 251 172 196 243 q 401 101 306 101 q 520 152 476 101 q 578 288 564 203 m 292 807 l 217 867 l 310 986 l 472 986 l 565 867 l 490 807 l 392 932 l 292 807 z "},"Ċ":{"ha":924,"x_min":69,"x_max":861,"o":"m 485 -21 q 197 96 317 -21 q 69 494 69 226 q 190 863 69 731 q 485 993 313 993 q 739 900 640 993 q 860 650 842 806 l 718 626 q 485 863 681 863 q 290 766 364 863 q 215 494 215 669 q 288 208 215 307 q 485 110 361 110 q 713 371 688 110 l 861 347 q 747 78 847 176 q 485 -21 647 -21 m 553 1063 l 403 1063 l 403 1208 l 553 1208 l 553 1063 z "},"ċ":{"ha":768,"x_min":63,"x_max":713,"o":"m 578 288 l 713 254 q 610 52 693 125 q 399 -21 528 -21 q 156 83 250 -21 q 63 368 63 186 q 160 653 63 551 q 400 757 258 757 q 610 681 528 757 q 708 485 693 607 l 576 464 q 519 588 564 542 q 400 633 475 633 q 251 563 306 633 q 196 368 196 493 q 251 172 196 243 q 401 101 306 101 q 520 152 476 101 q 578 288 564 203 m 469 838 l 319 838 l 319 985 l 469 985 l 469 838 z "},"Č":{"ha":924,"x_min":69,"x_max":861,"o":"m 485 -21 q 197 96 317 -21 q 69 494 69 226 q 190 863 69 731 q 485 993 313 993 q 739 900 640 993 q 860 650 842 806 l 718 626 q 485 863 681 863 q 290 766 364 863 q 215 494 215 669 q 288 208 215 307 q 485 110 361 110 q 713 371 688 110 l 861 347 q 747 78 847 176 q 485 -21 647 -21 m 564 1063 l 400 1063 l 308 1181 l 382 1240 l 482 1115 l 581 1240 l 657 1181 l 564 1063 z "},"č":{"ha":768,"x_min":63,"x_max":713,"o":"m 578 288 l 713 254 q 610 52 693 125 q 399 -21 528 -21 q 156 83 250 -21 q 63 368 63 186 q 160 653 63 551 q 400 757 258 757 q 610 681 528 757 q 708 485 693 607 l 576 464 q 519 588 564 542 q 400 633 475 633 q 251 563 306 633 q 196 368 196 493 q 251 172 196 243 q 401 101 306 101 q 520 152 476 101 q 578 288 564 203 m 476 825 l 313 825 l 221 943 l 294 1003 l 394 878 l 493 1003 l 569 943 l 476 825 z "},"Ď":{"ha":919,"x_min":125,"x_max":857,"o":"m 264 843 l 264 128 l 421 128 q 635 213 563 128 q 707 488 707 299 q 633 752 707 661 q 429 843 560 843 l 264 843 m 428 0 l 125 0 l 125 972 l 436 972 q 593 943 519 972 q 726 857 667 914 q 822 705 786 800 q 857 488 857 610 q 722 103 857 219 q 428 0 601 0 m 475 1063 l 311 1063 l 219 1181 l 293 1240 l 393 1115 l 492 1240 l 568 1181 l 475 1063 z "},"ď":{"ha":863,"x_min":63,"x_max":932,"o":"m 582 263 l 582 460 q 533 581 582 528 q 403 633 485 633 q 251 565 304 633 q 197 368 197 496 q 250 170 197 239 q 403 101 303 101 q 532 149 483 101 q 582 263 582 196 m 717 0 l 593 0 l 593 71 l 590 71 q 382 -21 508 -21 q 149 85 236 -21 q 63 368 63 192 q 154 650 63 544 q 381 757 249 757 q 579 665 500 757 l 582 665 l 582 1014 l 717 1014 l 717 0 m 856 797 l 769 797 l 811 1014 l 932 1014 l 856 797 z "},"Đ":{"ha":938,"x_min":42,"x_max":882,"o":"m 453 0 l 136 0 l 136 449 l 42 449 l 42 567 l 136 567 l 136 972 l 461 972 q 760 849 639 972 q 882 488 882 726 q 749 103 882 218 q 453 0 628 0 m 275 449 l 275 128 l 446 128 q 660 213 588 128 q 733 488 733 299 q 660 753 733 663 q 454 843 586 843 l 275 843 l 275 567 l 510 567 l 510 449 l 275 449 z "},"đ":{"ha":835,"x_min":63,"x_max":800,"o":"m 717 0 l 593 0 l 593 71 l 590 71 q 382 -21 508 -21 q 149 85 236 -21 q 63 368 63 192 q 151 650 63 544 q 382 757 242 757 q 579 665 500 757 l 582 665 l 582 875 l 408 875 l 408 972 l 582 972 l 582 1014 l 717 1014 l 717 972 l 800 972 l 800 875 l 717 875 l 717 0 m 582 263 l 582 460 q 533 579 582 526 q 403 632 485 632 q 251 563 304 632 q 197 368 197 494 q 250 172 197 240 q 403 104 303 104 q 531 150 481 104 q 582 263 582 196 z "},"Ē":{"ha":810,"x_min":125,"x_max":719,"o":"m 719 0 l 125 0 l 125 972 l 719 972 l 719 843 l 264 843 l 264 561 l 681 561 l 681 438 l 264 438 l 264 128 l 719 128 l 719 0 m 624 1063 l 224 1063 l 224 1156 l 624 1156 l 624 1063 z "},"ē":{"ha":796,"x_min":63,"x_max":733,"o":"m 611 235 l 713 158 q 407 -21 614 -21 q 158 85 254 -21 q 63 368 63 192 q 157 650 63 543 q 400 757 253 757 q 640 651 547 757 q 733 368 733 549 l 733 328 l 200 328 q 256 163 203 225 q 404 100 310 100 q 546 150 496 100 q 611 235 583 188 m 201 433 l 599 433 q 544 579 594 522 q 400 636 493 636 q 256 572 307 636 q 201 433 203 510 m 614 861 l 214 861 l 214 954 l 614 954 l 614 861 z "},"Ĕ":{"ha":810,"x_min":125,"x_max":719,"o":"m 719 0 l 125 0 l 125 972 l 719 972 l 719 843 l 264 843 l 264 561 l 681 561 l 681 438 l 264 438 l 264 128 l 719 128 l 719 0 m 258 1218 l 329 1218 q 361 1163 333 1183 q 436 1142 389 1142 q 509 1163 482 1142 q 540 1218 536 1183 l 613 1218 q 564 1094 613 1140 q 436 1049 515 1049 q 308 1094 357 1049 q 258 1218 258 1140 z "},"ĕ":{"ha":796,"x_min":63,"x_max":733,"o":"m 611 235 l 713 158 q 407 -21 614 -21 q 158 85 254 -21 q 63 368 63 192 q 157 650 63 543 q 400 757 253 757 q 640 651 547 757 q 733 368 733 549 l 733 328 l 200 328 q 256 163 203 225 q 404 100 310 100 q 546 150 496 100 q 611 235 583 188 m 201 433 l 599 433 q 544 579 594 522 q 400 636 493 636 q 256 572 307 636 q 201 433 203 510 m 236 982 l 307 982 q 339 926 311 947 q 414 906 367 906 q 487 926 460 906 q 518 982 514 947 l 590 982 q 542 858 590 904 q 414 813 493 813 q 285 858 335 813 q 236 982 236 904 z "},"Ė":{"ha":810,"x_min":125,"x_max":719,"o":"m 719 0 l 125 0 l 125 972 l 719 972 l 719 843 l 264 843 l 264 561 l 681 561 l 681 438 l 264 438 l 264 128 l 719 128 l 719 0 m 510 1063 l 360 1063 l 360 1208 l 510 1208 l 510 1063 z "},"ė":{"ha":796,"x_min":63,"x_max":733,"o":"m 611 235 l 713 158 q 407 -21 614 -21 q 158 85 254 -21 q 63 368 63 192 q 157 650 63 543 q 400 757 253 757 q 640 651 547 757 q 733 368 733 549 l 733 328 l 200 328 q 256 163 203 225 q 404 100 310 100 q 546 150 496 100 q 611 235 583 188 m 201 433 l 599 433 q 544 579 594 522 q 400 636 493 636 q 256 572 307 636 q 201 433 203 510 m 492 838 l 342 838 l 342 985 l 492 985 l 492 838 z "},"Ę":{"ha":810,"x_min":125,"x_max":719,"o":"m 538 0 l 125 0 l 125 972 l 719 972 l 719 843 l 264 843 l 264 561 l 681 561 l 681 438 l 264 438 l 264 128 l 719 128 l 719 0 l 622 0 q 511 -162 511 -99 q 571 -212 511 -212 q 664 -162 617 -212 l 711 -206 q 539 -296 633 -296 q 438 -271 476 -296 q 400 -194 400 -246 q 538 0 400 -86 z "},"ę":{"ha":796,"x_min":63,"x_max":733,"o":"m 543 -162 l 590 -206 q 418 -296 513 -296 q 317 -271 356 -296 q 279 -194 279 -246 q 386 -19 279 -101 q 151 92 242 -12 q 63 368 63 197 q 157 650 63 543 q 400 757 253 757 q 640 651 547 757 q 733 368 733 549 l 733 328 l 200 328 q 256 163 203 225 q 404 100 310 100 q 546 150 496 100 q 611 235 583 188 l 713 158 q 488 -12 638 19 q 390 -162 390 -101 q 450 -212 390 -212 q 543 -162 494 -212 m 201 433 l 599 433 q 544 579 594 522 q 400 636 493 636 q 256 572 307 636 q 201 433 203 510 z "},"Ě":{"ha":810,"x_min":125,"x_max":719,"o":"m 719 0 l 125 0 l 125 972 l 719 972 l 719 843 l 264 843 l 264 561 l 681 561 l 681 438 l 264 438 l 264 128 l 719 128 l 719 0 m 513 1063 l 349 1063 l 257 1181 l 331 1240 l 431 1115 l 529 1240 l 606 1181 l 513 1063 z "},"ě":{"ha":796,"x_min":63,"x_max":733,"o":"m 611 235 l 713 158 q 407 -21 614 -21 q 158 85 254 -21 q 63 368 63 192 q 157 650 63 543 q 400 757 253 757 q 640 651 547 757 q 733 368 733 549 l 733 328 l 200 328 q 256 163 203 225 q 404 100 310 100 q 546 150 496 100 q 611 235 583 188 m 201 433 l 599 433 q 544 579 594 522 q 400 636 493 636 q 256 572 307 636 q 201 433 203 510 m 497 825 l 333 825 l 242 943 l 315 1003 l 415 878 l 514 1003 l 590 943 l 497 825 z "},"Ĝ":{"ha":926,"x_min":69,"x_max":857,"o":"m 485 -21 q 326 9 399 -21 q 194 99 253 39 q 103 260 136 158 q 69 497 69 363 q 104 713 69 617 q 197 869 139 810 q 329 961 256 929 q 483 993 403 993 q 728 904 629 993 q 851 669 829 814 l 710 644 q 485 863 667 863 q 292 768 369 863 q 214 497 214 674 q 288 210 214 310 q 485 110 361 110 q 660 176 597 110 q 721 363 722 243 l 497 363 l 497 486 l 857 486 l 857 381 q 754 86 857 193 q 485 -21 651 -21 m 374 1038 l 299 1097 l 392 1215 l 554 1215 l 647 1097 l 572 1038 l 474 1163 l 374 1038 z "},"ĝ":{"ha":828,"x_min":63,"x_max":724,"o":"m 117 -139 l 225 -76 q 299 -180 256 -146 q 413 -214 342 -214 q 542 -166 496 -214 q 589 -31 589 -118 l 589 65 l 586 65 q 389 -21 521 -21 q 153 83 244 -21 q 63 368 63 190 q 156 650 63 544 q 388 757 250 757 q 590 665 515 757 l 593 665 l 593 736 l 724 736 l 724 -7 q 641 -249 724 -164 q 414 -333 558 -333 q 227 -281 304 -333 q 117 -139 150 -229 m 589 258 l 589 464 q 539 582 589 531 q 410 633 492 633 q 253 564 310 633 q 197 368 197 494 q 253 172 197 242 q 410 101 310 101 q 538 147 488 101 q 589 258 589 194 m 326 807 l 251 867 l 344 986 l 507 986 l 600 867 l 525 807 l 426 932 l 326 807 z "},"Ğ":{"ha":926,"x_min":69,"x_max":857,"o":"m 485 -21 q 326 9 399 -21 q 194 99 253 39 q 103 260 136 158 q 69 497 69 363 q 104 713 69 617 q 197 869 139 810 q 329 961 256 929 q 483 993 403 993 q 728 904 629 993 q 851 669 829 814 l 710 644 q 485 863 667 863 q 292 768 369 863 q 214 497 214 674 q 288 210 214 310 q 485 110 361 110 q 660 176 597 110 q 721 363 722 243 l 497 363 l 497 486 l 857 486 l 857 381 q 754 86 857 193 q 485 -21 651 -21 m 286 1218 l 357 1218 q 389 1163 361 1183 q 464 1142 417 1142 q 537 1163 510 1142 q 568 1218 564 1183 l 640 1218 q 592 1094 640 1140 q 464 1049 543 1049 q 335 1094 385 1049 q 286 1218 286 1140 z "},"ğ":{"ha":828,"x_min":63,"x_max":724,"o":"m 117 -139 l 225 -76 q 299 -180 256 -146 q 413 -214 342 -214 q 542 -166 496 -214 q 589 -31 589 -118 l 589 65 l 586 65 q 389 -21 521 -21 q 153 83 244 -21 q 63 368 63 190 q 156 650 63 544 q 388 757 250 757 q 590 665 515 757 l 593 665 l 593 736 l 724 736 l 724 -7 q 641 -249 724 -164 q 414 -333 558 -333 q 227 -281 304 -333 q 117 -139 150 -229 m 589 258 l 589 464 q 539 582 589 531 q 410 633 492 633 q 253 564 310 633 q 197 368 197 494 q 253 172 197 242 q 410 101 310 101 q 538 147 488 101 q 589 258 589 194 m 247 982 l 318 982 q 350 926 322 947 q 425 906 378 906 q 498 926 471 906 q 529 982 525 947 l 601 982 q 553 858 601 904 q 425 813 504 813 q 297 858 346 813 q 247 982 247 904 z "},"Ġ":{"ha":926,"x_min":69,"x_max":857,"o":"m 485 -21 q 326 9 399 -21 q 194 99 253 39 q 103 260 136 158 q 69 497 69 363 q 104 713 69 617 q 197 869 139 810 q 329 961 256 929 q 483 993 403 993 q 728 904 629 993 q 851 669 829 814 l 710 644 q 485 863 667 863 q 292 768 369 863 q 214 497 214 674 q 288 210 214 310 q 485 110 361 110 q 660 176 597 110 q 721 363 722 243 l 497 363 l 497 486 l 857 486 l 857 381 q 754 86 857 193 q 485 -21 651 -21 m 549 1063 l 399 1063 l 399 1208 l 549 1208 l 549 1063 z "},"ġ":{"ha":828,"x_min":63,"x_max":724,"o":"m 117 -139 l 225 -76 q 299 -180 256 -146 q 413 -214 342 -214 q 542 -166 496 -214 q 589 -31 589 -118 l 589 65 l 586 65 q 389 -21 521 -21 q 153 83 244 -21 q 63 368 63 190 q 156 650 63 544 q 388 757 250 757 q 590 665 515 757 l 593 665 l 593 736 l 724 736 l 724 -7 q 641 -249 724 -164 q 414 -333 558 -333 q 227 -281 304 -333 q 117 -139 150 -229 m 589 258 l 589 464 q 539 582 589 531 q 410 633 492 633 q 253 564 310 633 q 197 368 197 494 q 253 172 197 242 q 410 101 310 101 q 538 147 488 101 q 589 258 589 194 m 499 838 l 349 838 l 349 985 l 499 985 l 499 838 z "},"Ģ":{"ha":926,"x_min":69,"x_max":857,"o":"m 485 -21 q 326 9 399 -21 q 194 99 253 39 q 103 260 136 158 q 69 497 69 363 q 104 713 69 617 q 197 869 139 810 q 329 961 256 929 q 483 993 403 993 q 728 904 629 993 q 851 669 829 814 l 710 644 q 485 863 667 863 q 292 768 369 863 q 214 497 214 674 q 288 210 214 310 q 485 110 361 110 q 660 176 597 110 q 721 363 722 243 l 497 363 l 497 486 l 857 486 l 857 381 q 754 86 857 193 q 485 -21 651 -21 m 431 -335 l 431 -279 q 483 -257 468 -274 q 497 -207 497 -240 l 426 -207 l 426 -71 l 576 -71 l 576 -187 q 542 -293 576 -257 q 431 -335 507 -329 z "},"ģ":{"ha":828,"x_min":63,"x_max":724,"o":"m 117 -139 l 225 -76 q 299 -180 256 -146 q 413 -214 342 -214 q 542 -166 496 -214 q 589 -31 589 -118 l 589 65 l 586 65 q 389 -21 521 -21 q 153 83 244 -21 q 63 368 63 190 q 156 650 63 544 q 388 757 250 757 q 590 665 515 757 l 593 665 l 593 736 l 724 736 l 724 -7 q 641 -249 724 -164 q 414 -333 558 -333 q 227 -281 304 -333 q 117 -139 150 -229 m 589 258 l 589 464 q 539 582 589 531 q 410 633 492 633 q 253 564 310 633 q 197 368 197 494 q 253 172 197 242 q 410 101 310 101 q 538 147 488 101 q 589 258 589 194 m 489 1090 l 489 1042 q 435 972 435 1033 l 497 972 l 497 832 l 354 832 l 354 951 q 489 1090 354 1081 z "},"Ĥ":{"ha":928,"x_min":125,"x_max":803,"o":"m 264 0 l 125 0 l 125 972 l 264 972 l 264 563 l 664 563 l 664 972 l 803 972 l 803 0 l 664 0 l 664 442 l 264 442 l 264 0 m 360 1038 l 285 1097 l 378 1215 l 540 1215 l 633 1097 l 558 1038 l 460 1163 l 360 1038 z "},"ĥ":{"ha":819,"x_min":111,"x_max":715,"o":"m 246 0 l 111 0 l 111 1014 l 246 1014 l 246 663 l 249 663 q 334 731 278 704 q 453 757 390 757 q 644 684 572 757 q 715 483 715 611 l 715 0 l 581 0 l 581 450 q 540 583 581 535 q 421 632 499 632 q 294 585 343 632 q 246 463 246 538 l 246 0 m 368 807 l 293 867 l 386 986 l 549 986 l 642 867 l 567 807 l 468 932 l 368 807 z "},"Ħ":{"ha":942,"x_min":63,"x_max":879,"o":"m 269 0 l 131 0 l 131 704 l 63 704 l 63 815 l 131 815 l 131 972 l 269 972 l 269 815 l 671 815 l 671 972 l 810 972 l 810 815 l 879 815 l 879 704 l 810 704 l 810 0 l 671 0 l 671 442 l 269 442 l 269 0 m 269 704 l 269 563 l 671 563 l 671 704 l 269 704 z "},"ħ":{"ha":803,"x_min":35,"x_max":713,"o":"m 260 0 l 125 0 l 125 875 l 35 875 l 35 972 l 125 972 l 125 1014 l 260 1014 l 260 972 l 433 972 l 433 875 l 260 875 l 260 665 l 263 665 q 342 732 290 707 q 453 757 394 757 q 642 683 571 757 q 713 483 713 608 l 713 0 l 578 0 l 578 450 q 538 584 578 536 q 421 632 499 632 q 303 585 346 632 q 260 463 260 539 l 260 0 z "},"Ĩ":{"ha":403,"x_min":-21,"x_max":393,"o":"m 271 0 l 132 0 l 132 972 l 271 972 l 271 0 m 50 1063 l -21 1063 q 108 1200 3 1200 q 200 1174 151 1200 q 271 1147 251 1147 q 321 1193 311 1147 l 393 1193 q 264 1056 368 1056 q 171 1082 222 1056 q 100 1108 119 1108 q 50 1063 61 1108 z "},"ĩ":{"ha":354,"x_min":-31,"x_max":383,"o":"m 243 0 l 111 0 l 111 736 l 243 736 l 243 0 m 40 833 l -31 833 q 99 971 -8 971 q 190 944 142 971 q 261 918 242 918 q 311 964 300 918 l 383 964 q 254 826 358 826 q 161 853 213 826 q 90 879 110 879 q 40 833 50 879 z "},"Ī":{"ha":403,"x_min":-14,"x_max":386,"o":"m 271 0 l 132 0 l 132 972 l 271 972 l 271 0 m 386 1063 l -14 1063 l -14 1156 l 386 1156 l 386 1063 z "},"ī":{"ha":354,"x_min":-24,"x_max":376,"o":"m 243 0 l 111 0 l 111 736 l 243 736 l 243 0 m 376 861 l -24 861 l -24 954 l 376 954 l 376 861 z "},"Ĭ":{"ha":403,"x_min":10,"x_max":364,"o":"m 271 0 l 132 0 l 132 972 l 271 972 l 271 0 m 10 1218 l 81 1218 q 113 1163 85 1183 q 188 1142 140 1142 q 260 1163 233 1142 q 292 1218 288 1183 l 364 1218 q 315 1094 364 1140 q 188 1049 267 1049 q 59 1094 108 1049 q 10 1218 10 1140 z "},"ĭ":{"ha":354,"x_min":0,"x_max":354,"o":"m 243 0 l 111 0 l 111 736 l 243 736 l 243 0 m 0 982 l 71 982 q 103 926 75 947 q 178 906 131 906 q 251 926 224 906 q 282 982 278 947 l 354 982 q 306 858 354 904 q 178 813 257 813 q 49 858 99 813 q 0 982 0 904 z "},"Į":{"ha":403,"x_min":49,"x_max":360,"o":"m 186 0 l 132 0 l 132 972 l 271 972 l 271 0 q 160 -162 160 -99 q 219 -212 160 -212 q 313 -162 264 -212 l 360 -206 q 188 -296 282 -296 q 87 -271 125 -296 q 49 -194 49 -246 q 186 0 49 -86 z "},"į":{"ha":354,"x_min":29,"x_max":340,"o":"m 167 0 l 117 0 l 117 736 l 251 736 l 251 0 q 140 -162 140 -99 q 200 -212 140 -212 q 293 -162 244 -212 l 340 -206 q 168 -296 263 -296 q 67 -271 106 -296 q 29 -194 29 -246 q 167 0 29 -86 m 257 871 l 111 871 l 111 1014 l 257 1014 l 257 871 z "},"İ":{"ha":403,"x_min":114,"x_max":271,"o":"m 271 0 l 132 0 l 132 972 l 271 972 l 271 0 m 264 1063 l 114 1063 l 114 1208 l 264 1208 l 264 1063 z "},"ı":{"ha":354,"x_min":111,"x_max":243,"o":"m 243 0 l 111 0 l 111 736 l 243 736 l 243 0 z "},"Ĳ":{"ha":965,"x_min":132,"x_max":847,"o":"m 271 0 l 132 0 l 132 972 l 271 972 l 271 0 m 361 208 l 497 249 q 607 110 526 110 q 685 142 661 110 q 708 244 708 174 l 708 972 l 847 972 l 847 249 q 607 -21 847 -21 q 444 42 508 -21 q 361 208 379 104 z "},"ĳ":{"ha":690,"x_min":97,"x_max":565,"o":"m 238 0 l 103 0 l 103 736 l 238 736 l 238 0 m 243 871 l 97 871 l 97 1014 l 243 1014 l 243 871 m 396 -271 l 340 -271 l 340 -143 l 367 -143 q 412 -127 397 -143 q 426 -71 426 -111 l 426 736 l 561 736 l 561 -82 q 521 -226 561 -181 q 396 -271 481 -271 m 565 871 l 419 871 l 419 1014 l 565 1014 l 565 871 z "},"Ĵ":{"ha":632,"x_min":28,"x_max":615,"o":"m 28 208 l 164 249 q 274 110 193 110 q 351 142 328 110 q 375 244 375 174 l 375 972 l 514 972 l 514 249 q 274 -21 514 -21 q 110 42 175 -21 q 28 208 46 104 m 342 1038 l 267 1097 l 360 1215 l 522 1215 l 615 1097 l 540 1038 l 442 1163 l 342 1038 z "},"ĵ":{"ha":353,"x_min":4,"x_max":353,"o":"m 83 -271 l 28 -271 l 28 -147 l 54 -147 q 99 -131 85 -147 q 114 -75 114 -115 l 114 736 l 249 736 l 249 -82 q 208 -226 249 -181 q 83 -271 168 -271 m 79 807 l 4 867 l 97 986 l 260 986 l 353 867 l 278 807 l 179 932 l 79 807 z "},"Ķ":{"ha":844,"x_min":111,"x_max":844,"o":"m 250 0 l 111 0 l 111 972 l 250 972 l 250 519 l 254 519 l 632 972 l 804 972 l 447 546 l 844 0 l 676 0 l 351 446 l 349 446 l 250 325 l 250 0 m 361 -335 l 361 -279 q 413 -257 399 -274 q 428 -207 428 -240 l 357 -207 l 357 -71 l 507 -71 l 507 -187 q 472 -293 507 -257 q 361 -335 438 -329 z "},"ķ":{"ha":765,"x_min":111,"x_max":751,"o":"m 246 0 l 111 0 l 111 1014 l 246 1014 l 246 410 l 249 410 l 546 736 l 721 736 l 454 442 l 751 0 l 596 0 l 353 361 l 350 361 l 246 249 l 246 0 m 325 -335 l 325 -279 q 377 -257 363 -274 q 392 -207 392 -240 l 321 -207 l 321 -71 l 471 -71 l 471 -187 q 436 -293 471 -257 q 325 -335 401 -329 z "},"ĸ":{"ha":765,"x_min":111,"x_max":751,"o":"m 246 0 l 111 0 l 111 736 l 246 736 l 246 410 l 546 736 l 721 736 l 454 442 l 751 0 l 596 0 l 350 361 l 246 249 l 246 0 z "},"Ĺ":{"ha":714,"x_min":119,"x_max":679,"o":"m 679 0 l 125 0 l 125 972 l 264 972 l 264 128 l 679 128 l 679 0 m 236 1063 l 119 1063 l 229 1232 l 386 1232 l 236 1063 z "},"ĺ":{"ha":361,"x_min":111,"x_max":379,"o":"m 250 0 l 111 0 l 111 1014 l 250 1014 l 250 0 m 229 1076 l 113 1076 l 222 1246 l 379 1246 l 229 1076 z "},"Ļ":{"ha":714,"x_min":125,"x_max":679,"o":"m 679 0 l 125 0 l 125 972 l 264 972 l 264 128 l 679 128 l 679 0 m 315 -335 l 315 -279 q 367 -257 353 -274 q 382 -207 382 -240 l 311 -207 l 311 -71 l 461 -71 l 461 -187 q 426 -293 461 -257 q 315 -335 392 -329 z "},"ļ":{"ha":361,"x_min":99,"x_max":250,"o":"m 250 0 l 111 0 l 111 1014 l 250 1014 l 250 0 m 103 -335 l 103 -279 q 155 -257 140 -274 q 169 -207 169 -240 l 99 -207 l 99 -71 l 249 -71 l 249 -187 q 214 -293 249 -257 q 103 -335 179 -329 z "},"Ľ":{"ha":714,"x_min":125,"x_max":679,"o":"m 679 0 l 125 0 l 125 972 l 264 972 l 264 128 l 679 128 l 679 0 m 564 797 l 478 797 l 519 1014 l 640 1014 l 564 797 z "},"ľ":{"ha":413,"x_min":111,"x_max":482,"o":"m 250 0 l 111 0 l 111 1014 l 250 1014 l 250 0 m 406 797 l 319 797 l 361 1014 l 482 1014 l 406 797 z "},"Ŀ":{"ha":714,"x_min":125,"x_max":679,"o":"m 679 0 l 125 0 l 125 972 l 264 972 l 264 128 l 679 128 l 679 0 m 607 433 l 431 433 l 431 606 l 607 606 l 607 433 z "},"ŀ":{"ha":519,"x_min":111,"x_max":519,"o":"m 250 0 l 111 0 l 111 1014 l 250 1014 l 250 0 m 519 447 l 343 447 l 343 619 l 519 619 l 519 447 z "},"Ł":{"ha":779,"x_min":7,"x_max":744,"o":"m 744 0 l 156 0 l 156 453 l 58 356 l 7 408 l 156 557 l 156 972 l 294 972 l 294 676 l 449 831 l 500 778 l 294 572 l 294 128 l 744 128 l 744 0 z "},"ł":{"ha":397,"x_min":-35,"x_max":432,"o":"m 267 0 l 131 0 l 131 508 l 17 393 l -35 446 l 131 613 l 131 1014 l 267 1014 l 267 721 l 381 836 l 432 783 l 267 617 l 267 0 z "},"Ń":{"ha":954,"x_min":125,"x_max":829,"o":"m 264 0 l 125 0 l 125 972 l 268 972 l 686 247 l 689 247 l 689 972 l 829 972 l 829 0 l 689 0 l 267 725 l 264 725 l 264 0 m 533 1063 l 417 1063 l 526 1232 l 683 1232 l 533 1063 z "},"ń":{"ha":817,"x_min":111,"x_max":713,"o":"m 246 0 l 111 0 l 111 736 l 243 736 l 243 665 l 246 665 q 332 731 276 704 q 447 757 388 757 q 640 683 568 757 q 713 482 713 610 l 713 0 l 576 0 l 576 443 q 421 632 576 632 q 294 587 342 632 q 246 463 246 542 l 246 0 m 475 826 l 358 826 l 468 996 l 625 996 l 475 826 z "},"Ņ":{"ha":954,"x_min":125,"x_max":829,"o":"m 264 0 l 125 0 l 125 972 l 268 972 l 686 247 l 689 247 l 689 972 l 829 972 l 829 0 l 689 0 l 267 725 l 264 725 l 264 0 m 411 -335 l 411 -279 q 463 -257 449 -274 q 478 -207 478 -240 l 407 -207 l 407 -71 l 557 -71 l 557 -187 q 522 -293 557 -257 q 411 -335 488 -329 z "},"ņ":{"ha":817,"x_min":111,"x_max":713,"o":"m 246 0 l 111 0 l 111 736 l 243 736 l 243 665 l 246 665 q 332 731 276 704 q 447 757 388 757 q 640 683 568 757 q 713 482 713 610 l 713 0 l 576 0 l 576 443 q 421 632 576 632 q 294 587 342 632 q 246 463 246 542 l 246 0 m 340 -335 l 340 -279 q 392 -257 378 -274 q 407 -207 407 -240 l 336 -207 l 336 -71 l 486 -71 l 486 -187 q 451 -293 486 -257 q 340 -335 417 -329 z "},"Ň":{"ha":954,"x_min":125,"x_max":829,"o":"m 264 0 l 125 0 l 125 972 l 268 972 l 686 247 l 689 247 l 689 972 l 829 972 l 829 0 l 689 0 l 267 725 l 264 725 l 264 0 m 560 1063 l 396 1063 l 304 1181 l 378 1240 l 478 1115 l 576 1240 l 653 1181 l 560 1063 z "},"ň":{"ha":817,"x_min":111,"x_max":713,"o":"m 246 0 l 111 0 l 111 736 l 243 736 l 243 665 l 246 665 q 332 731 276 704 q 447 757 388 757 q 640 683 568 757 q 713 482 713 610 l 713 0 l 576 0 l 576 443 q 421 632 576 632 q 294 587 342 632 q 246 463 246 542 l 246 0 m 493 825 l 329 825 l 238 943 l 311 1003 l 411 878 l 510 1003 l 586 943 l 493 825 z "},"Ŋ":{"ha":954,"x_min":125,"x_max":829,"o":"m 264 0 l 125 0 l 125 972 l 254 972 l 686 261 l 689 261 l 689 972 l 829 972 l 829 -104 q 787 -244 829 -199 q 653 -289 744 -289 l 581 -289 l 581 -154 l 636 -154 q 686 -136 671 -154 q 701 -76 701 -118 l 701 4 l 268 710 l 264 710 l 264 0 z "},"ŋ":{"ha":810,"x_min":111,"x_max":706,"o":"m 246 0 l 111 0 l 111 736 l 243 736 l 243 665 l 246 665 q 327 732 275 707 q 438 757 379 757 q 632 674 558 757 q 706 451 706 592 l 706 -103 q 665 -247 706 -201 q 539 -292 624 -292 l 471 -292 l 471 -164 l 513 -164 q 557 -148 543 -164 q 571 -92 571 -132 l 571 443 q 530 583 571 535 q 411 632 489 632 q 290 584 333 632 q 246 456 246 536 l 246 0 z "},"Ō":{"ha":965,"x_min":69,"x_max":896,"o":"m 485 108 q 678 206 607 108 q 750 490 750 303 q 674 767 750 672 q 485 863 599 863 q 290 766 364 863 q 215 494 215 669 q 288 208 215 307 q 485 108 361 108 m 768 94 q 485 -21 653 -21 q 197 96 317 -21 q 69 494 69 226 q 190 863 69 731 q 485 993 313 993 q 775 860 654 993 q 896 490 896 729 q 768 94 896 219 m 689 1063 l 289 1063 l 289 1156 l 689 1156 l 689 1063 z "},"ō":{"ha":796,"x_min":63,"x_max":733,"o":"m 400 101 q 545 173 490 101 q 600 368 600 244 q 545 563 600 492 q 400 633 490 633 q 251 564 307 633 q 196 368 196 494 q 251 172 196 242 q 400 101 307 101 m 400 -21 q 157 82 253 -21 q 63 368 63 185 q 160 653 63 550 q 400 757 258 757 q 636 653 540 757 q 733 368 733 550 q 639 82 733 185 q 400 -21 544 -21 m 604 861 l 204 861 l 204 954 l 604 954 l 604 861 z "},"Ŏ":{"ha":965,"x_min":69,"x_max":896,"o":"m 485 108 q 678 206 607 108 q 750 490 750 303 q 674 767 750 672 q 485 863 599 863 q 290 766 364 863 q 215 494 215 669 q 288 208 215 307 q 485 108 361 108 m 768 94 q 485 -21 653 -21 q 197 96 317 -21 q 69 494 69 226 q 190 863 69 731 q 485 993 313 993 q 775 860 654 993 q 896 490 896 729 q 768 94 896 219 m 313 1218 l 383 1218 q 415 1163 388 1183 q 490 1142 443 1142 q 563 1163 536 1142 q 594 1218 590 1183 l 667 1218 q 618 1094 667 1140 q 490 1049 569 1049 q 362 1094 411 1049 q 313 1218 313 1140 z "},"ŏ":{"ha":796,"x_min":63,"x_max":733,"o":"m 400 101 q 545 173 490 101 q 600 368 600 244 q 545 563 600 492 q 400 633 490 633 q 251 564 307 633 q 196 368 196 494 q 251 172 196 242 q 400 101 307 101 m 400 -21 q 157 82 253 -21 q 63 368 63 185 q 160 653 63 550 q 400 757 258 757 q 636 653 540 757 q 733 368 733 550 q 639 82 733 185 q 400 -21 544 -21 m 229 982 l 300 982 q 332 926 304 947 q 407 906 360 906 q 480 926 453 906 q 511 982 507 947 l 583 982 q 535 858 583 904 q 407 813 486 813 q 278 858 328 813 q 229 982 229 904 z "},"Ő":{"ha":965,"x_min":69,"x_max":896,"o":"m 485 108 q 678 206 607 108 q 750 490 750 303 q 674 767 750 672 q 485 863 599 863 q 290 766 364 863 q 215 494 215 669 q 288 208 215 307 q 485 108 361 108 m 768 94 q 485 -21 653 -21 q 197 96 317 -21 q 69 494 69 226 q 190 863 69 731 q 485 993 313 993 q 775 860 654 993 q 896 490 896 729 q 768 94 896 219 m 436 1063 l 338 1063 l 442 1222 l 581 1222 l 436 1063 m 636 1063 l 538 1063 l 642 1222 l 781 1222 l 636 1063 z "},"ő":{"ha":796,"x_min":63,"x_max":733,"o":"m 400 101 q 545 173 490 101 q 600 368 600 244 q 545 563 600 492 q 400 633 490 633 q 251 564 307 633 q 196 368 196 494 q 251 172 196 242 q 400 101 307 101 m 400 -21 q 157 82 253 -21 q 63 368 63 185 q 160 653 63 550 q 400 757 258 757 q 636 653 540 757 q 733 368 733 550 q 639 82 733 185 q 400 -21 544 -21 m 353 838 l 254 838 l 358 997 l 497 997 l 353 838 m 553 838 l 454 838 l 558 997 l 697 997 l 553 838 z "},"Œ":{"ha":1390,"x_min":69,"x_max":1300,"o":"m 1300 0 l 713 0 l 713 61 q 485 -21 622 -21 q 197 96 317 -21 q 69 494 69 226 q 190 863 69 731 q 485 993 313 993 q 713 911 611 993 l 713 972 l 1300 972 l 1300 843 l 854 843 l 854 574 l 1261 574 l 1261 450 l 854 450 l 854 128 l 1300 128 l 1300 0 m 713 214 l 713 751 q 492 863 635 863 q 292 767 367 863 q 218 494 218 672 q 290 206 218 303 q 492 108 363 108 q 713 214 638 108 z "},"œ":{"ha":1328,"x_min":63,"x_max":1265,"o":"m 1153 247 l 1257 189 q 1140 38 1222 96 q 944 -21 1057 -21 q 668 132 763 -21 q 400 -21 582 -21 q 157 82 253 -21 q 63 368 63 185 q 160 653 63 550 q 400 757 258 757 q 553 717 483 757 q 665 603 624 676 q 933 757 765 757 q 1174 654 1082 757 q 1265 368 1265 551 l 1265 328 l 736 328 q 793 163 739 226 q 942 100 847 100 q 1153 247 1093 100 m 400 101 q 545 173 490 101 q 600 368 600 244 q 544 562 600 490 q 400 633 489 633 q 252 563 308 633 q 196 368 196 493 q 251 172 196 242 q 400 101 307 101 m 738 433 l 1135 433 q 1083 576 1135 517 q 933 638 1031 638 q 786 574 836 638 q 738 433 738 510 z "},"Ŕ":{"ha":889,"x_min":125,"x_max":833,"o":"m 264 0 l 125 0 l 125 972 l 506 972 q 745 894 657 972 q 833 676 833 817 q 776 488 833 556 q 606 396 719 421 l 818 0 l 665 0 l 460 385 l 264 385 l 264 0 m 264 846 l 264 508 l 494 508 q 641 550 589 508 q 693 676 693 592 q 493 846 693 846 l 264 846 m 460 1063 l 343 1063 l 453 1232 l 610 1232 l 460 1063 z "},"ŕ":{"ha":494,"x_min":111,"x_max":469,"o":"m 246 0 l 111 0 l 111 736 l 240 736 l 240 657 l 243 657 q 307 724 265 699 q 394 749 349 749 q 460 735 433 749 l 436 601 q 379 613 407 613 q 246 432 246 613 l 246 0 m 319 826 l 203 826 l 313 996 l 469 996 l 319 826 z "},"Ŗ":{"ha":889,"x_min":125,"x_max":833,"o":"m 264 0 l 125 0 l 125 972 l 506 972 q 745 894 657 972 q 833 676 833 817 q 776 488 833 556 q 606 396 719 421 l 818 0 l 665 0 l 460 385 l 264 385 l 264 0 m 264 846 l 264 508 l 494 508 q 641 550 589 508 q 693 676 693 592 q 493 846 693 846 l 264 846 m 372 -335 l 372 -279 q 424 -257 410 -274 q 439 -207 439 -240 l 368 -207 l 368 -71 l 518 -71 l 518 -187 q 483 -293 518 -257 q 372 -335 449 -329 z "},"ŗ":{"ha":494,"x_min":111,"x_max":460,"o":"m 246 0 l 111 0 l 111 736 l 240 736 l 240 657 l 243 657 q 307 724 265 699 q 394 749 349 749 q 460 735 433 749 l 436 601 q 379 613 407 613 q 246 432 246 613 l 246 0 m 117 -335 l 117 -279 q 169 -257 154 -274 q 183 -207 183 -240 l 113 -207 l 113 -71 l 263 -71 l 263 -187 q 228 -293 263 -257 q 117 -335 193 -329 z "},"Ř":{"ha":889,"x_min":125,"x_max":833,"o":"m 264 0 l 125 0 l 125 972 l 506 972 q 745 894 657 972 q 833 676 833 817 q 776 488 833 556 q 606 396 719 421 l 818 0 l 665 0 l 460 385 l 264 385 l 264 0 m 264 846 l 264 508 l 494 508 q 641 550 589 508 q 693 676 693 592 q 493 846 693 846 l 264 846 m 514 1063 l 350 1063 l 258 1181 l 332 1240 l 432 1115 l 531 1240 l 607 1181 l 514 1063 z "},"ř":{"ha":494,"x_min":96,"x_max":460,"o":"m 246 0 l 111 0 l 111 736 l 240 736 l 240 657 l 243 657 q 307 724 265 699 q 394 749 349 749 q 460 735 433 749 l 436 601 q 379 613 407 613 q 246 432 246 613 l 246 0 m 351 825 l 188 825 l 96 943 l 169 1003 l 269 878 l 368 1003 l 444 943 l 351 825 z "},"Ś":{"ha":846,"x_min":63,"x_max":797,"o":"m 63 332 l 208 361 q 281 169 226 232 q 454 110 332 110 q 606 151 551 110 q 660 258 660 192 q 611 361 660 324 q 396 451 563 400 q 170 566 238 501 q 103 731 103 631 q 188 915 103 839 q 417 993 274 993 q 649 924 557 993 q 763 725 742 854 l 624 694 q 557 820 606 778 q 417 863 508 863 q 288 826 333 863 q 242 731 242 790 q 286 647 242 679 q 486 565 326 618 q 732 440 667 506 q 797 267 797 375 q 704 61 797 142 q 453 -21 611 -21 q 182 69 281 -21 q 63 332 83 158 m 500 1063 l 383 1063 l 493 1232 l 650 1232 l 500 1063 z "},"ś":{"ha":718,"x_min":56,"x_max":661,"o":"m 56 247 l 181 275 q 371 94 201 94 q 494 124 450 94 q 538 200 538 153 q 497 272 538 249 q 329 333 457 297 q 138 418 194 371 q 82 547 82 465 q 151 694 82 632 q 344 757 222 757 q 538 701 464 757 q 639 543 613 644 l 522 511 q 346 643 478 643 q 244 617 282 643 q 207 551 207 590 q 244 489 207 510 q 419 429 279 469 q 608 338 556 390 q 661 199 661 285 q 590 44 664 111 q 375 -21 517 -21 q 147 56 225 -21 q 56 247 68 133 m 419 826 l 303 826 l 413 996 l 569 996 l 419 826 z "},"Ŝ":{"ha":846,"x_min":63,"x_max":797,"o":"m 63 332 l 208 361 q 281 169 226 232 q 454 110 332 110 q 606 151 551 110 q 660 258 660 192 q 611 361 660 324 q 396 451 563 400 q 170 566 238 501 q 103 731 103 631 q 188 915 103 839 q 417 993 274 993 q 649 924 557 993 q 763 725 742 854 l 624 694 q 557 820 606 778 q 417 863 508 863 q 288 826 333 863 q 242 731 242 790 q 286 647 242 679 q 486 565 326 618 q 732 440 667 506 q 797 267 797 375 q 704 61 797 142 q 453 -21 611 -21 q 182 69 281 -21 q 63 332 83 158 m 342 1038 l 267 1097 l 360 1215 l 522 1215 l 615 1097 l 540 1038 l 442 1163 l 342 1038 z "},"ŝ":{"ha":718,"x_min":56,"x_max":661,"o":"m 56 247 l 181 275 q 371 94 201 94 q 494 124 450 94 q 538 200 538 153 q 497 272 538 249 q 329 333 457 297 q 138 418 194 371 q 82 547 82 465 q 151 694 82 632 q 344 757 222 757 q 538 701 464 757 q 639 543 613 644 l 522 511 q 346 643 478 643 q 244 617 282 643 q 207 551 207 590 q 244 489 207 510 q 419 429 279 469 q 608 338 556 390 q 661 199 661 285 q 590 44 664 111 q 375 -21 517 -21 q 147 56 225 -21 q 56 247 68 133 m 263 807 l 188 867 l 281 986 l 443 986 l 536 867 l 461 807 l 363 932 l 263 807 z "},"Ş":{"ha":846,"x_min":63,"x_max":797,"o":"m 329 -235 l 378 -171 q 485 -219 438 -219 q 534 -206 515 -219 q 553 -167 553 -192 q 485 -117 553 -117 q 421 -133 447 -117 l 413 -140 l 358 -110 l 411 -19 q 63 332 101 1 l 208 361 q 281 169 226 232 q 454 110 332 110 q 606 151 551 110 q 660 258 660 192 q 611 361 660 324 q 396 451 563 400 q 170 566 238 501 q 103 731 103 631 q 188 915 103 839 q 417 993 274 993 q 649 924 557 993 q 763 725 742 854 l 624 694 q 557 820 606 778 q 417 863 508 863 q 288 826 333 863 q 242 731 242 790 q 286 647 242 679 q 486 565 326 618 q 732 440 667 506 q 797 267 797 375 q 713 68 797 149 q 481 -19 626 -14 l 443 -81 l 444 -82 q 525 -61 478 -61 q 606 -92 572 -61 q 640 -174 640 -122 q 599 -264 640 -231 q 489 -297 557 -297 q 329 -235 394 -297 z "},"ş":{"ha":718,"x_min":56,"x_max":661,"o":"m 244 -235 l 293 -171 q 400 -219 353 -219 q 449 -206 431 -219 q 468 -167 468 -192 q 400 -117 468 -117 q 336 -133 363 -117 l 328 -140 l 274 -110 l 328 -18 q 138 66 207 -6 q 56 247 68 138 l 181 275 q 371 94 201 94 q 494 124 450 94 q 538 200 538 153 q 497 272 538 249 q 329 333 457 297 q 138 418 194 371 q 82 547 82 465 q 151 694 82 632 q 344 757 222 757 q 538 701 464 757 q 639 543 613 644 l 522 511 q 346 643 478 643 q 244 617 282 643 q 207 551 207 590 q 244 489 207 510 q 419 429 279 469 q 608 338 556 390 q 661 199 661 285 q 592 47 663 110 q 396 -21 522 -15 l 358 -81 l 360 -82 q 440 -61 393 -61 q 522 -92 488 -61 q 556 -174 556 -122 q 514 -264 556 -231 q 404 -297 472 -297 q 244 -235 308 -297 z "},"Š":{"ha":846,"x_min":63,"x_max":797,"o":"m 63 332 l 208 361 q 281 169 226 232 q 454 110 332 110 q 606 151 551 110 q 660 258 660 192 q 611 361 660 324 q 396 451 563 400 q 170 566 238 501 q 103 731 103 631 q 188 915 103 839 q 417 993 274 993 q 649 924 557 993 q 763 725 742 854 l 624 694 q 557 820 606 778 q 417 863 508 863 q 288 826 333 863 q 242 731 242 790 q 286 647 242 679 q 486 565 326 618 q 732 440 667 506 q 797 267 797 375 q 704 61 797 142 q 453 -21 611 -21 q 182 69 281 -21 q 63 332 83 158 m 517 1063 l 353 1063 l 261 1181 l 335 1240 l 435 1115 l 533 1240 l 610 1181 l 517 1063 z "},"š":{"ha":718,"x_min":56,"x_max":661,"o":"m 56 247 l 181 275 q 371 94 201 94 q 494 124 450 94 q 538 200 538 153 q 497 272 538 249 q 329 333 457 297 q 138 418 194 371 q 82 547 82 465 q 151 694 82 632 q 344 757 222 757 q 538 701 464 757 q 639 543 613 644 l 522 511 q 346 643 478 643 q 244 617 282 643 q 207 551 207 590 q 244 489 207 510 q 419 429 279 469 q 608 338 556 390 q 661 199 661 285 q 590 44 664 111 q 375 -21 517 -21 q 147 56 225 -21 q 56 247 68 133 m 436 825 l 272 825 l 181 943 l 254 1003 l 354 878 l 453 1003 l 529 943 l 436 825 z "},"Ţ":{"ha":785,"x_min":28,"x_max":757,"o":"m 461 0 l 322 0 l 322 843 l 28 843 l 28 972 l 757 972 l 757 843 l 461 843 l 461 0 m 329 -335 l 329 -279 q 381 -257 367 -274 q 396 -207 396 -240 l 325 -207 l 325 -71 l 475 -71 l 475 -187 q 440 -293 475 -257 q 329 -335 406 -329 z "},"ţ":{"ha":514,"x_min":35,"x_max":458,"o":"m 143 231 l 143 618 l 35 618 l 35 736 l 146 736 l 146 917 l 275 917 l 275 736 l 458 736 l 458 618 l 276 618 l 276 244 q 296 156 276 181 q 371 131 315 131 l 426 131 l 426 0 l 361 0 q 193 56 243 0 q 143 231 143 111 m 182 -335 l 182 -279 q 234 -257 219 -274 q 249 -207 249 -240 l 178 -207 l 178 -71 l 328 -71 l 328 -187 q 293 -293 328 -257 q 182 -335 258 -329 z "},"Ť":{"ha":785,"x_min":28,"x_max":757,"o":"m 461 0 l 322 0 l 322 843 l 28 843 l 28 972 l 757 972 l 757 843 l 461 843 l 461 0 m 482 1063 l 318 1063 l 226 1181 l 300 1240 l 400 1115 l 499 1240 l 575 1181 l 482 1063 z "},"ť":{"ha":514,"x_min":35,"x_max":542,"o":"m 143 231 l 143 618 l 35 618 l 35 736 l 146 736 l 146 917 l 275 917 l 275 736 l 458 736 l 458 618 l 276 618 l 276 244 q 296 156 276 181 q 371 131 315 131 l 426 131 l 426 0 l 361 0 q 193 56 243 0 q 143 231 143 111 m 465 797 l 379 797 l 421 1014 l 542 1014 l 465 797 z "},"Ŧ":{"ha":785,"x_min":28,"x_max":757,"o":"m 461 0 l 322 0 l 322 442 l 124 442 l 124 553 l 322 553 l 322 843 l 28 843 l 28 972 l 757 972 l 757 843 l 461 843 l 461 553 l 661 553 l 661 442 l 461 442 l 461 0 z "},"ŧ":{"ha":514,"x_min":35,"x_max":458,"o":"m 143 231 l 143 333 l 35 333 l 35 444 l 143 444 l 143 618 l 35 618 l 35 736 l 146 736 l 146 917 l 275 917 l 275 736 l 458 736 l 458 618 l 276 618 l 276 444 l 458 444 l 458 333 l 276 333 l 276 244 q 296 156 276 181 q 371 131 315 131 l 426 131 l 426 0 l 361 0 q 193 56 243 0 q 143 231 143 111 z "},"Ũ":{"ha":913,"x_min":104,"x_max":808,"o":"m 104 317 l 104 972 l 243 972 l 243 325 q 297 165 243 221 q 456 110 351 110 q 615 165 561 110 q 669 322 669 219 l 669 972 l 808 972 l 808 317 q 716 66 808 153 q 456 -21 624 -21 q 197 66 289 -21 q 104 317 104 153 m 333 1063 l 263 1063 q 392 1200 286 1200 q 483 1174 435 1200 q 554 1147 535 1147 q 604 1193 594 1147 l 676 1193 q 547 1056 651 1056 q 454 1082 506 1056 q 383 1108 403 1108 q 333 1063 344 1108 z "},"ũ":{"ha":800,"x_min":104,"x_max":689,"o":"m 104 258 l 104 736 l 239 736 l 239 276 q 273 145 239 183 q 388 107 307 107 q 509 153 464 107 q 554 283 554 200 l 554 736 l 689 736 l 689 0 l 558 0 l 558 71 l 556 71 q 357 -21 488 -21 q 169 51 235 -21 q 104 258 104 122 m 268 833 l 197 833 q 326 971 219 971 q 418 944 369 971 q 489 918 469 918 q 539 964 528 918 l 611 964 q 482 826 586 826 q 389 853 440 826 q 318 879 338 879 q 268 833 278 879 z "},"Ū":{"ha":913,"x_min":104,"x_max":808,"o":"m 104 317 l 104 972 l 243 972 l 243 325 q 297 165 243 221 q 456 110 351 110 q 615 165 561 110 q 669 322 669 219 l 669 972 l 808 972 l 808 317 q 716 66 808 153 q 456 -21 624 -21 q 197 66 289 -21 q 104 317 104 153 m 663 1063 l 263 1063 l 263 1156 l 663 1156 l 663 1063 z "},"ū":{"ha":800,"x_min":104,"x_max":689,"o":"m 104 258 l 104 736 l 239 736 l 239 276 q 273 145 239 183 q 388 107 307 107 q 509 153 464 107 q 554 283 554 200 l 554 736 l 689 736 l 689 0 l 558 0 l 558 71 l 556 71 q 357 -21 488 -21 q 169 51 235 -21 q 104 258 104 122 m 599 861 l 199 861 l 199 954 l 599 954 l 599 861 z "},"Ŭ":{"ha":913,"x_min":104,"x_max":808,"o":"m 104 317 l 104 972 l 243 972 l 243 325 q 297 165 243 221 q 456 110 351 110 q 615 165 561 110 q 669 322 669 219 l 669 972 l 808 972 l 808 317 q 716 66 808 153 q 456 -21 624 -21 q 197 66 289 -21 q 104 317 104 153 m 285 1218 l 356 1218 q 388 1163 360 1183 q 463 1142 415 1142 q 535 1163 508 1142 q 567 1218 563 1183 l 639 1218 q 590 1094 639 1140 q 463 1049 542 1049 q 334 1094 383 1049 q 285 1218 285 1140 z "},"ŭ":{"ha":800,"x_min":104,"x_max":689,"o":"m 104 258 l 104 736 l 239 736 l 239 276 q 273 145 239 183 q 388 107 307 107 q 509 153 464 107 q 554 283 554 200 l 554 736 l 689 736 l 689 0 l 558 0 l 558 71 l 556 71 q 357 -21 488 -21 q 169 51 235 -21 q 104 258 104 122 m 225 982 l 296 982 q 328 926 300 947 q 403 906 356 906 q 476 926 449 906 q 507 982 503 947 l 579 982 q 531 858 579 904 q 403 813 482 813 q 274 858 324 813 q 225 982 225 904 z "},"Ů":{"ha":913,"x_min":104,"x_max":808,"o":"m 104 317 l 104 972 l 243 972 l 243 325 q 297 165 243 221 q 456 110 351 110 q 615 165 561 110 q 669 322 669 219 l 669 972 l 808 972 l 808 317 q 716 66 808 153 q 456 -21 624 -21 q 197 66 289 -21 q 104 317 104 153 m 328 1092 q 368 1194 328 1151 q 467 1236 408 1236 q 567 1195 528 1236 q 606 1092 606 1154 q 567 988 606 1028 q 467 947 528 947 q 367 988 406 947 q 328 1092 328 1029 m 422 1036 q 431 1026 422 1036 q 467 1015 440 1015 q 512 1036 493 1015 q 531 1093 531 1057 q 512 1148 531 1128 q 467 1168 493 1168 q 422 1148 439 1168 q 404 1093 404 1128 q 422 1036 404 1057 z "},"ů":{"ha":800,"x_min":104,"x_max":689,"o":"m 104 258 l 104 736 l 239 736 l 239 276 q 273 145 239 183 q 388 107 307 107 q 509 153 464 107 q 554 283 554 200 l 554 736 l 689 736 l 689 0 l 558 0 l 558 71 l 556 71 q 357 -21 488 -21 q 169 51 235 -21 q 104 258 104 122 m 258 869 q 299 972 258 929 q 397 1014 339 1014 q 497 973 458 1014 q 536 869 536 932 q 497 766 536 807 q 397 725 458 725 q 297 766 336 725 q 258 869 258 807 m 353 814 q 362 803 353 814 q 397 793 371 793 q 442 815 424 793 q 461 871 461 836 q 442 926 461 907 q 397 946 424 946 q 352 926 369 946 q 335 871 335 907 q 353 814 335 835 z "},"Ű":{"ha":913,"x_min":104,"x_max":808,"o":"m 104 317 l 104 972 l 243 972 l 243 325 q 297 165 243 221 q 456 110 351 110 q 615 165 561 110 q 669 322 669 219 l 669 972 l 808 972 l 808 317 q 716 66 808 153 q 456 -21 624 -21 q 197 66 289 -21 q 104 317 104 153 m 418 1063 l 319 1063 l 424 1222 l 563 1222 l 418 1063 m 618 1063 l 519 1063 l 624 1222 l 763 1222 l 618 1063 z "},"ű":{"ha":800,"x_min":104,"x_max":690,"o":"m 104 258 l 104 736 l 239 736 l 239 276 q 273 145 239 183 q 388 107 307 107 q 509 153 464 107 q 554 283 554 200 l 554 736 l 689 736 l 689 0 l 558 0 l 558 71 l 556 71 q 357 -21 488 -21 q 169 51 235 -21 q 104 258 104 122 m 346 849 l 247 849 l 351 1008 l 490 1008 l 346 849 m 546 849 l 447 849 l 551 1008 l 690 1008 l 546 849 z "},"Ų":{"ha":913,"x_min":104,"x_max":808,"o":"m 596 -162 l 643 -206 q 471 -296 565 -296 q 370 -271 408 -296 q 332 -194 332 -246 q 439 -21 332 -100 q 192 70 279 -17 q 104 317 104 157 l 104 972 l 243 972 l 243 325 q 297 165 243 221 q 456 110 351 110 q 615 165 561 110 q 669 322 669 219 l 669 972 l 808 972 l 808 317 q 738 90 808 175 q 538 -14 667 6 q 443 -162 443 -101 q 503 -212 443 -212 q 596 -162 547 -212 z "},"ų":{"ha":800,"x_min":104,"x_max":778,"o":"m 731 -162 l 778 -206 q 606 -296 700 -296 q 505 -271 543 -296 q 467 -194 467 -246 q 604 0 467 -86 l 558 0 l 558 71 l 556 71 q 357 -21 488 -21 q 169 51 235 -21 q 104 258 104 122 l 104 736 l 239 736 l 239 276 q 273 145 239 183 q 388 107 307 107 q 509 153 464 107 q 554 283 554 200 l 554 736 l 689 736 l 689 0 q 578 -162 578 -99 q 638 -212 578 -212 q 731 -162 683 -212 z "},"Ŵ":{"ha":1253,"x_min":56,"x_max":1197,"o":"m 394 0 l 238 0 l 56 972 l 197 972 l 336 229 l 339 229 l 574 972 l 681 972 l 917 229 l 919 229 l 1058 972 l 1197 972 l 1015 0 l 860 0 l 626 736 l 624 736 l 394 0 m 528 1038 l 453 1097 l 546 1215 l 708 1215 l 801 1097 l 726 1038 l 628 1163 l 528 1038 z "},"ŵ":{"ha":1097,"x_min":56,"x_max":1042,"o":"m 303 203 l 488 736 l 610 736 l 797 203 l 800 203 l 908 736 l 1042 736 l 879 0 l 749 0 l 550 578 l 547 578 l 349 0 l 218 0 l 56 736 l 189 736 l 300 203 l 303 203 m 442 807 l 367 867 l 460 986 l 622 986 l 715 867 l 640 807 l 542 932 l 442 807 z "},"Ŷ":{"ha":801,"x_min":14,"x_max":788,"o":"m 468 0 l 332 0 l 332 410 l 14 972 l 164 972 l 399 538 l 401 538 l 638 972 l 788 972 l 468 410 l 468 0 m 310 1038 l 235 1097 l 328 1215 l 490 1215 l 583 1097 l 508 1038 l 410 1163 l 310 1038 z "},"ŷ":{"ha":724,"x_min":21,"x_max":703,"o":"m 289 -312 l 157 -312 l 299 51 l 21 736 l 163 736 l 364 210 l 564 736 l 703 736 l 289 -312 m 274 807 l 199 867 l 292 986 l 454 986 l 547 867 l 472 807 l 374 932 l 274 807 z "},"Ÿ":{"ha":801,"x_min":14,"x_max":788,"o":"m 468 0 l 332 0 l 332 410 l 14 972 l 164 972 l 399 538 l 401 538 l 638 972 l 788 972 l 468 410 l 468 0 m 343 1063 l 203 1063 l 203 1200 l 343 1200 l 343 1063 m 614 1063 l 472 1063 l 472 1200 l 614 1200 l 614 1063 z "},"Ź":{"ha":832,"x_min":69,"x_max":763,"o":"m 756 0 l 69 0 l 69 121 l 586 838 l 586 840 l 92 840 l 92 972 l 763 972 l 763 850 l 243 135 l 243 132 l 756 132 l 756 0 m 456 1063 l 339 1063 l 449 1232 l 606 1232 l 456 1063 z "},"ź":{"ha":758,"x_min":69,"x_max":689,"o":"m 689 0 l 69 0 l 69 110 l 507 608 l 507 611 l 92 611 l 92 736 l 682 736 l 682 629 l 250 131 l 250 128 l 689 128 l 689 0 m 419 826 l 303 826 l 413 996 l 569 996 l 419 826 z "},"Ż":{"ha":832,"x_min":69,"x_max":763,"o":"m 756 0 l 69 0 l 69 121 l 586 838 l 586 840 l 92 840 l 92 972 l 763 972 l 763 850 l 243 135 l 243 132 l 756 132 l 756 0 m 475 1063 l 325 1063 l 325 1208 l 475 1208 l 475 1063 z "},"ż":{"ha":758,"x_min":69,"x_max":689,"o":"m 689 0 l 69 0 l 69 110 l 507 608 l 507 611 l 92 611 l 92 736 l 682 736 l 682 629 l 250 131 l 250 128 l 689 128 l 689 0 m 451 838 l 301 838 l 301 985 l 451 985 l 451 838 z "},"Ž":{"ha":832,"x_min":69,"x_max":763,"o":"m 756 0 l 69 0 l 69 121 l 586 838 l 586 840 l 92 840 l 92 972 l 763 972 l 763 850 l 243 135 l 243 132 l 756 132 l 756 0 m 504 1063 l 340 1063 l 249 1181 l 322 1240 l 422 1115 l 521 1240 l 597 1181 l 504 1063 z "},"ž":{"ha":758,"x_min":69,"x_max":689,"o":"m 689 0 l 69 0 l 69 110 l 507 608 l 507 611 l 92 611 l 92 736 l 682 736 l 682 629 l 250 131 l 250 128 l 689 128 l 689 0 m 461 825 l 297 825 l 206 943 l 279 1003 l 379 878 l 478 1003 l 554 943 l 461 825 z "},"ſ":{"ha":422,"x_min":35,"x_max":408,"o":"m 257 0 l 122 0 l 122 618 l 35 618 l 35 736 l 124 736 l 124 844 q 167 974 124 935 q 296 1014 210 1014 l 408 1014 l 408 892 l 322 892 q 268 876 282 892 q 254 815 254 861 l 257 0 z "},"ƒ":{"ha":689,"x_min":97,"x_max":661,"o":"m 232 -240 l 97 -240 l 233 536 l 97 536 l 115 646 l 251 646 l 286 824 q 490 1035 326 1035 q 661 956 583 1035 l 588 853 q 503 901 539 901 q 447 879 467 901 q 415 801 426 857 l 386 646 l 585 646 l 565 536 l 368 536 l 232 -240 z "},"Ǻ":{"ha":876,"x_min":21,"x_max":856,"o":"m 856 0 l 708 0 l 644 179 l 228 179 l 165 0 l 21 0 l 369 964 q 299 1092 299 1001 q 335 1190 299 1149 q 425 1235 371 1231 l 504 1357 l 661 1357 l 526 1204 q 576 1092 576 1161 q 508 964 576 1003 l 856 0 m 438 772 l 435 772 l 269 299 l 603 299 l 438 772 m 393 1036 q 402 1026 393 1036 q 438 1015 411 1015 q 483 1036 464 1015 q 501 1093 501 1057 q 483 1148 501 1128 q 438 1168 464 1168 q 392 1148 410 1168 q 375 1093 375 1128 q 393 1036 375 1057 z "},"ǻ":{"ha":750,"x_min":63,"x_max":653,"o":"m 653 0 l 535 0 l 535 78 l 532 78 q 460 13 519 50 q 315 -21 403 -21 q 128 38 193 -21 q 63 192 63 96 q 119 335 63 283 q 310 421 175 388 q 471 474 435 454 q 514 539 514 496 q 476 611 514 583 q 369 639 439 639 q 199 500 232 639 l 81 542 q 153 678 97 624 q 296 750 208 733 q 240 869 240 792 q 273 963 240 922 q 357 1011 306 1003 l 438 1136 l 594 1136 l 463 986 q 518 869 518 944 q 458 747 518 786 q 653 486 653 703 l 653 0 m 340 322 q 226 272 257 299 q 194 200 194 244 q 328 99 194 99 q 469 138 418 99 q 521 238 521 178 l 521 403 l 518 403 q 478 367 513 385 q 340 322 443 350 m 335 814 q 344 803 335 814 q 379 793 353 793 q 424 815 406 793 q 443 871 443 836 q 412 938 443 918 q 349 938 381 957 q 317 871 317 918 q 335 814 317 835 z "},"Ǽ":{"ha":1203,"x_min":7,"x_max":1099,"o":"m 150 0 l 7 0 l 372 972 l 1099 972 l 1099 843 l 692 843 l 692 561 l 1060 561 l 1060 439 l 692 439 l 692 128 l 1099 128 l 1099 0 l 553 0 l 553 194 l 224 194 l 150 0 m 460 843 l 267 317 l 553 317 l 553 843 l 460 843 m 597 1063 l 481 1063 l 590 1232 l 747 1232 l 597 1063 z "},"ǽ":{"ha":1258,"x_min":63,"x_max":1196,"o":"m 1069 251 l 1183 182 q 1063 34 1143 89 q 871 -21 982 -21 q 594 119 693 -21 l 592 119 q 582 99 590 113 q 553 63 574 85 q 505 24 533 42 q 429 -8 476 6 q 326 -21 382 -21 q 130 37 197 -21 q 63 192 63 94 q 117 335 63 282 q 300 418 172 388 q 471 472 428 450 q 514 540 514 497 q 478 610 514 582 q 376 639 443 639 q 200 500 233 639 l 81 539 q 177 699 100 640 q 371 757 254 757 q 615 644 542 757 q 863 757 708 757 q 1103 651 1010 757 q 1196 368 1196 549 l 1196 328 l 663 328 q 719 163 665 226 q 868 100 774 100 q 1010 161 960 100 q 1069 251 1047 204 m 340 322 q 226 272 257 299 q 194 200 194 244 q 328 99 194 99 q 469 138 418 99 q 521 238 521 178 l 521 403 l 518 403 q 478 367 513 385 q 340 322 443 350 m 663 433 l 1060 433 q 1005 579 1056 522 q 861 636 954 636 q 717 572 768 636 q 663 433 664 510 m 442 826 l 325 826 l 435 996 l 592 996 l 442 826 z "},"Ǿ":{"ha":965,"x_min":56,"x_max":882,"o":"m 222 -21 l 157 15 l 196 83 q 56 494 56 219 q 176 863 56 731 q 471 993 299 993 q 679 931 583 993 l 715 993 l 778 954 l 738 885 q 882 490 882 743 q 754 94 882 219 q 471 -21 639 -21 q 256 38 350 -21 l 222 -21 m 665 757 l 324 157 q 471 108 385 108 q 665 206 593 108 q 736 490 736 303 q 665 757 736 658 m 271 214 l 613 814 q 471 863 547 863 q 276 766 350 863 q 201 494 201 669 q 271 214 201 317 m 546 1063 l 429 1063 l 539 1232 l 696 1232 l 546 1063 z "},"ǿ":{"ha":796,"x_min":63,"x_max":733,"o":"m 138 -18 l 89 21 l 146 94 q 63 368 63 197 q 160 653 63 550 q 400 757 258 757 q 604 683 514 757 l 658 753 l 707 713 l 649 639 q 733 368 733 536 q 639 82 733 185 q 400 -21 544 -21 q 190 50 275 -21 l 138 -18 m 564 529 l 269 153 q 400 101 321 101 q 545 173 490 101 q 600 368 600 244 q 564 529 600 460 m 231 204 l 525 583 q 400 633 472 633 q 252 563 308 633 q 196 368 196 493 q 231 204 196 268 m 474 826 l 357 826 l 467 996 l 624 996 l 474 826 z "},"Ș":{"ha":846,"x_min":63,"x_max":797,"o":"m 63 332 l 208 361 q 281 169 226 232 q 454 110 332 110 q 606 151 551 110 q 660 258 660 192 q 611 361 660 324 q 396 451 563 400 q 170 566 238 501 q 103 731 103 631 q 188 915 103 839 q 417 993 274 993 q 649 924 557 993 q 763 725 742 854 l 624 694 q 557 820 606 778 q 417 863 508 863 q 288 826 333 863 q 242 731 242 790 q 286 647 242 679 q 486 565 326 618 q 732 440 667 506 q 797 267 797 375 q 704 61 797 142 q 453 -21 611 -21 q 182 69 281 -21 q 63 332 83 158 m 396 -335 l 396 -279 q 448 -257 433 -274 q 463 -207 463 -240 l 392 -207 l 392 -71 l 542 -71 l 542 -187 q 507 -293 542 -257 q 396 -335 472 -329 z "},"ș":{"ha":718,"x_min":56,"x_max":661,"o":"m 56 247 l 181 275 q 371 94 201 94 q 494 124 450 94 q 538 200 538 153 q 497 272 538 249 q 329 333 457 297 q 138 418 194 371 q 82 547 82 465 q 151 694 82 632 q 344 757 222 757 q 538 701 464 757 q 639 543 613 644 l 522 511 q 346 643 478 643 q 244 617 282 643 q 207 551 207 590 q 244 489 207 510 q 419 429 279 469 q 608 338 556 390 q 661 199 661 285 q 590 44 664 111 q 375 -21 517 -21 q 147 56 225 -21 q 56 247 68 133 m 306 -335 l 306 -279 q 358 -257 343 -274 q 372 -207 372 -240 l 301 -207 l 301 -71 l 451 -71 l 451 -187 q 417 -293 451 -257 q 306 -335 382 -329 z "},"ȷ":{"ha":353,"x_min":28,"x_max":249,"o":"m 83 -271 l 28 -271 l 28 -147 l 54 -147 q 99 -131 85 -147 q 114 -75 114 -115 l 114 736 l 249 736 l 249 -82 q 208 -226 249 -181 q 83 -271 168 -271 z "},"ˆ":{"ha":432,"x_min":42,"x_max":390,"o":"m 117 807 l 42 867 l 135 986 l 297 986 l 390 867 l 315 807 l 217 932 l 117 807 z "},"ˇ":{"ha":432,"x_min":42,"x_max":390,"o":"m 297 825 l 133 825 l 42 943 l 115 1003 l 215 878 l 314 1003 l 390 943 l 297 825 z "},"˘":{"ha":465,"x_min":56,"x_max":410,"o":"m 56 982 l 126 982 q 158 926 131 947 q 233 906 186 906 q 306 926 279 906 q 338 982 333 947 l 410 982 q 361 858 410 904 q 233 813 313 813 q 105 858 154 813 q 56 982 56 904 z "},"˙":{"ha":372,"x_min":111,"x_max":261,"o":"m 261 838 l 111 838 l 111 985 l 261 985 l 261 838 z "},"˚":{"ha":417,"x_min":69,"x_max":347,"o":"m 69 869 q 110 972 69 929 q 208 1014 150 1014 q 308 973 269 1014 q 347 869 347 932 q 308 766 347 807 q 208 725 269 725 q 108 766 147 725 q 69 869 69 807 m 164 814 q 173 803 164 814 q 208 793 182 793 q 253 815 235 793 q 272 871 272 836 q 253 926 272 907 q 208 946 235 946 q 163 926 181 946 q 146 871 146 907 q 164 814 146 835 z "},"˛":{"ha":394,"x_min":42,"x_max":353,"o":"m 306 -162 l 353 -206 q 181 -296 275 -296 q 80 -271 118 -296 q 42 -194 42 -246 q 179 0 42 -86 l 264 0 q 153 -162 153 -99 q 213 -212 153 -212 q 306 -162 258 -212 z "},"˜":{"ha":553,"x_min":69,"x_max":483,"o":"m 140 833 l 69 833 q 199 971 92 971 q 290 944 242 971 q 361 918 342 918 q 411 964 400 918 l 483 964 q 354 826 458 826 q 261 853 313 826 q 190 879 210 879 q 140 833 150 879 z "},"˝":{"ha":665,"x_min":111,"x_max":554,"o":"m 210 826 l 111 826 l 215 986 l 354 986 l 210 826 m 410 826 l 311 826 l 415 986 l 554 986 l 410 826 z "},"̒":{"ha":393,"x_min":125,"x_max":268,"o":"m 260 1090 l 260 1042 q 206 972 206 1033 l 268 972 l 268 832 l 125 832 l 125 951 q 260 1090 125 1081 z "},"π":{"ha":1006,"x_min":111,"x_max":908,"o":"m 297 119 l 264 0 l 128 0 l 165 131 q 224 436 189 215 q 261 842 261 658 l 111 842 l 111 972 l 908 972 l 908 842 l 800 842 l 800 207 q 818 0 800 78 l 686 0 q 663 199 663 43 l 663 842 l 397 842 q 364 447 397 658 q 297 119 331 240 z "},"Ẁ":{"ha":1253,"x_min":56,"x_max":1197,"o":"m 394 0 l 238 0 l 56 972 l 197 972 l 336 229 l 339 229 l 574 972 l 681 972 l 917 229 l 919 229 l 1058 972 l 1197 972 l 1015 0 l 860 0 l 626 736 l 624 736 l 394 0 m 682 1063 l 565 1063 l 414 1232 l 571 1232 l 682 1063 z "},"ẁ":{"ha":1097,"x_min":56,"x_max":1042,"o":"m 303 203 l 488 736 l 610 736 l 797 203 l 800 203 l 908 736 l 1042 736 l 879 0 l 749 0 l 550 578 l 547 578 l 349 0 l 218 0 l 56 736 l 189 736 l 300 203 l 303 203 m 600 826 l 483 826 l 332 996 l 489 996 l 600 826 z "},"Ẃ":{"ha":1253,"x_min":56,"x_max":1197,"o":"m 394 0 l 238 0 l 56 972 l 197 972 l 336 229 l 339 229 l 574 972 l 681 972 l 917 229 l 919 229 l 1058 972 l 1197 972 l 1015 0 l 860 0 l 626 736 l 624 736 l 394 0 m 679 1063 l 563 1063 l 672 1232 l 829 1232 l 679 1063 z "},"ẃ":{"ha":1097,"x_min":56,"x_max":1042,"o":"m 303 203 l 488 736 l 610 736 l 797 203 l 800 203 l 908 736 l 1042 736 l 879 0 l 749 0 l 550 578 l 547 578 l 349 0 l 218 0 l 56 736 l 189 736 l 300 203 l 303 203 m 604 826 l 488 826 l 597 996 l 754 996 l 604 826 z "},"Ẅ":{"ha":1253,"x_min":56,"x_max":1197,"o":"m 394 0 l 238 0 l 56 972 l 197 972 l 336 229 l 339 229 l 574 972 l 681 972 l 917 229 l 919 229 l 1058 972 l 1197 972 l 1015 0 l 860 0 l 626 736 l 624 736 l 394 0 m 556 1063 l 415 1063 l 415 1200 l 556 1200 l 556 1063 m 826 1063 l 685 1063 l 685 1200 l 826 1200 l 826 1063 z "},"ẅ":{"ha":1097,"x_min":56,"x_max":1042,"o":"m 303 203 l 488 736 l 610 736 l 797 203 l 800 203 l 908 736 l 1042 736 l 879 0 l 749 0 l 550 578 l 547 578 l 349 0 l 218 0 l 56 736 l 189 736 l 300 203 l 303 203 m 472 842 l 332 842 l 332 979 l 472 979 l 472 842 m 743 842 l 601 842 l 601 979 l 743 979 l 743 842 z "},"Ỳ":{"ha":801,"x_min":14,"x_max":788,"o":"m 468 0 l 332 0 l 332 410 l 14 972 l 164 972 l 399 538 l 401 538 l 638 972 l 788 972 l 468 410 l 468 0 m 482 1063 l 365 1063 l 214 1232 l 371 1232 l 482 1063 z "},"ỳ":{"ha":724,"x_min":21,"x_max":703,"o":"m 289 -312 l 157 -312 l 299 51 l 21 736 l 163 736 l 364 210 l 564 736 l 703 736 l 289 -312 m 431 826 l 314 826 l 163 996 l 319 996 l 431 826 z "},"–":{"ha":832,"x_min":69,"x_max":763,"o":"m 763 407 l 69 407 l 69 525 l 763 525 l 763 407 z "},"—":{"ha":1374,"x_min":139,"x_max":1235,"o":"m 1235 407 l 139 407 l 139 525 l 1235 525 l 1235 407 z "},"‘":{"ha":426,"x_min":97,"x_max":274,"o":"m 274 713 l 274 639 q 97 821 97 651 l 97 972 l 274 972 l 274 800 l 207 800 q 221 739 207 758 q 274 713 235 719 z "},"’":{"ha":426,"x_min":125,"x_max":301,"o":"m 125 639 l 125 713 q 178 739 164 719 q 192 800 192 758 l 125 800 l 125 972 l 301 972 l 301 821 q 125 639 301 651 z "},"‚":{"ha":426,"x_min":111,"x_max":288,"o":"m 111 -161 l 111 -87 q 164 -61 150 -81 q 178 0 178 -42 l 111 0 l 111 172 l 288 172 l 288 21 q 111 -161 288 -149 z "},"“":{"ha":690,"x_min":97,"x_max":538,"o":"m 274 713 l 274 639 q 97 821 97 651 l 97 972 l 274 972 l 274 800 l 207 800 q 221 739 207 758 q 274 713 235 719 m 538 713 l 538 639 q 361 821 361 651 l 361 972 l 538 972 l 538 800 l 471 800 q 485 739 471 758 q 538 713 499 719 z "},"”":{"ha":690,"x_min":111,"x_max":551,"o":"m 111 639 l 111 713 q 164 739 150 719 q 178 800 178 758 l 111 800 l 111 972 l 288 972 l 288 821 q 111 639 288 651 m 375 639 l 375 713 q 428 739 414 719 q 442 800 442 758 l 375 800 l 375 972 l 551 972 l 551 821 q 375 639 551 651 z "},"„":{"ha":690,"x_min":125,"x_max":565,"o":"m 125 -161 l 125 -87 q 178 -61 164 -81 q 192 0 192 -42 l 125 0 l 125 172 l 301 172 l 301 21 q 125 -161 301 -149 m 389 -161 l 389 -87 q 442 -61 428 -81 q 456 0 456 -42 l 389 0 l 389 172 l 565 172 l 565 21 q 389 -161 565 -149 z "},"†":{"ha":872,"x_min":69,"x_max":803,"o":"m 499 -312 l 374 -312 l 374 578 l 69 578 l 69 696 l 374 696 l 374 1014 l 499 1014 l 499 696 l 803 696 l 803 578 l 499 578 l 499 -312 z "},"‡":{"ha":872,"x_min":69,"x_max":803,"o":"m 499 -312 l 374 -312 l 374 0 l 69 0 l 69 114 l 374 114 l 374 581 l 69 581 l 69 696 l 374 696 l 374 1014 l 499 1014 l 499 696 l 803 696 l 803 581 l 499 581 l 499 114 l 803 114 l 803 0 l 499 0 l 499 -312 z "},"•":{"ha":433,"x_min":76,"x_max":357,"o":"m 357 483 q 357 452 357 483 q 317 381 357 421 q 215 340 276 340 q 114 381 154 340 q 76 483 76 419 q 114 586 76 547 q 215 626 154 626 q 317 586 276 626 q 357 483 357 546 z "},"…":{"ha":1167,"x_min":125,"x_max":1042,"o":"m 301 0 l 125 0 l 125 172 l 301 172 l 301 0 m 674 0 l 497 0 l 497 172 l 674 172 l 674 0 m 1042 0 l 864 0 l 864 172 l 1042 172 l 1042 0 z "},"‰":{"ha":1883,"x_min":97,"x_max":1786,"o":"m 1678 272 q 1646 400 1678 356 q 1556 444 1614 444 q 1465 400 1497 444 q 1433 272 1433 356 q 1465 133 1433 183 q 1556 83 1497 83 q 1646 133 1614 83 q 1678 272 1678 183 m 1556 -17 q 1388 59 1450 -17 q 1326 274 1326 135 q 1394 474 1326 404 q 1556 546 1463 546 q 1717 474 1649 546 q 1786 274 1786 401 q 1723 63 1786 142 q 1556 -17 1660 -17 m 449 715 q 417 843 449 799 q 326 888 385 888 q 236 843 268 888 q 204 715 204 799 q 236 576 204 626 q 326 526 268 526 q 417 576 385 526 q 449 715 449 626 m 97 717 q 165 917 97 847 q 326 989 233 989 q 488 917 419 989 q 557 717 557 844 q 494 502 557 578 q 326 426 432 426 q 159 502 221 426 q 97 717 97 578 m 1110 272 q 1078 400 1110 356 q 988 444 1046 444 q 897 400 929 444 q 865 272 865 356 q 897 133 865 183 q 988 83 929 83 q 1078 133 1046 83 q 1110 272 1110 183 m 758 274 q 826 474 758 404 q 988 546 894 546 q 1149 474 1081 546 q 1218 274 1218 401 q 1156 59 1218 135 q 988 -17 1093 -17 q 820 59 882 -17 q 758 274 758 135 m 343 -101 l 261 -51 l 940 1081 l 1021 1029 l 343 -101 z "},"‹":{"ha":518,"x_min":125,"x_max":407,"o":"m 407 125 l 281 125 l 125 390 l 275 649 l 401 649 l 249 390 l 407 125 z "},"›":{"ha":518,"x_min":97,"x_max":379,"o":"m 229 649 l 379 390 l 224 125 l 97 125 l 256 390 l 103 649 l 229 649 z "},"⁄":{"ha":454,"x_min":-153,"x_max":607,"o":"m -71 -101 l -153 -51 l 526 1081 l 607 1029 l -71 -101 z "},"⁰":{"ha":542,"x_min":49,"x_max":493,"o":"m 271 650 q 107 728 165 650 q 49 961 49 807 q 108 1180 49 1103 q 271 1257 168 1257 q 433 1180 374 1257 q 493 961 493 1103 q 434 728 493 807 q 271 650 375 650 m 386 963 q 271 1160 386 1160 q 156 963 156 1160 q 183 798 156 849 q 271 747 211 747 q 358 798 331 747 q 386 963 386 849 z "},"⁴":{"ha":531,"x_min":35,"x_max":475,"o":"m 303 785 l 35 785 l 35 879 l 260 1250 l 406 1250 l 406 879 l 475 879 l 475 785 l 406 785 l 406 657 l 303 657 l 303 785 m 301 1160 l 131 879 l 304 879 l 304 1160 l 301 1160 z "},"⁵":{"ha":533,"x_min":49,"x_max":485,"o":"m 49 806 l 143 850 q 268 744 169 744 q 353 775 321 744 q 385 860 385 806 q 353 944 385 914 q 271 975 321 975 q 147 913 193 975 l 68 951 l 119 1250 l 426 1250 l 426 1156 l 197 1156 l 169 1007 l 172 1007 q 297 1056 208 1056 q 429 1000 374 1056 q 485 858 485 944 q 424 707 485 764 q 268 650 363 650 q 49 806 103 650 z "},"⁶":{"ha":543,"x_min":49,"x_max":494,"o":"m 204 778 q 220 763 204 778 q 289 747 236 747 q 369 776 342 747 q 397 857 397 806 q 368 938 397 908 q 286 968 339 968 q 204 936 236 968 q 172 861 172 904 q 204 778 172 808 m 153 975 l 156 975 q 211 1026 169 1004 q 308 1049 253 1049 q 438 996 381 1049 q 494 853 494 943 q 436 706 494 761 q 289 650 378 650 q 115 727 181 650 q 49 946 49 804 q 113 1167 49 1078 q 288 1257 178 1257 q 412 1216 364 1257 q 474 1107 460 1175 l 381 1082 q 281 1165 360 1165 q 190 1113 225 1165 q 153 975 154 1061 z "},"⁷":{"ha":432,"x_min":7,"x_max":404,"o":"m 151 657 l 32 657 l 304 1153 l 304 1156 l 7 1156 l 7 1250 l 404 1250 l 404 1139 l 151 657 z "},"⁸":{"ha":486,"x_min":35,"x_max":451,"o":"m 179 1147 q 157 1093 157 1125 q 179 1039 157 1061 q 243 1017 201 1017 q 306 1039 285 1017 q 328 1093 328 1061 q 306 1147 328 1125 q 243 1171 285 1171 q 179 1147 203 1171 m 138 979 l 138 982 q 61 1101 61 1017 q 113 1213 61 1168 q 243 1257 164 1257 q 375 1211 324 1257 q 428 1101 428 1165 q 350 982 428 1022 l 350 979 q 424 922 396 964 q 451 828 451 881 q 394 698 451 746 q 243 650 336 650 q 92 698 150 650 q 35 828 35 746 q 63 922 35 881 q 138 979 90 964 m 133 838 q 243 744 133 744 q 353 838 353 744 q 324 912 353 885 q 243 939 296 939 q 162 912 190 939 q 133 838 133 885 z "},"⁹":{"ha":531,"x_min":42,"x_max":475,"o":"m 63 794 l 154 828 q 265 742 175 742 q 378 928 385 742 l 375 928 q 329 878 367 901 q 235 856 292 856 q 100 910 158 856 q 42 1054 42 967 q 99 1201 42 1144 q 246 1257 157 1257 q 411 1178 347 1257 q 475 950 475 1099 q 419 726 475 801 q 261 650 364 650 q 63 794 99 650 m 169 975 q 184 960 169 975 q 250 946 199 946 q 331 973 301 946 q 360 1049 360 1000 q 329 1132 360 1100 q 246 1164 299 1164 q 169 1133 199 1164 q 139 1054 139 1103 q 169 975 139 1004 z "},"⁺":{"ha":601,"x_min":69,"x_max":532,"o":"m 346 718 l 256 718 l 256 929 l 69 929 l 69 1015 l 256 1015 l 256 1204 l 346 1204 l 346 1015 l 532 1015 l 532 929 l 346 929 l 346 718 z "},"⁻":{"ha":560,"x_min":69,"x_max":490,"o":"m 490 1015 l 490 929 l 69 929 l 69 1015 l 490 1015 z "},"₀":{"ha":542,"x_min":49,"x_max":493,"o":"m 271 -285 q 107 -206 165 -285 q 49 26 49 -128 q 108 245 49 168 q 271 322 168 322 q 433 245 374 322 q 493 26 493 168 q 434 -206 493 -128 q 271 -285 375 -285 m 386 28 q 271 225 386 225 q 156 28 156 225 q 183 -137 156 -86 q 271 -187 211 -187 q 358 -137 331 -187 q 386 28 386 -86 z "},"₁":{"ha":367,"x_min":28,"x_max":256,"o":"m 256 -278 l 156 -278 l 156 196 l 28 117 l 28 231 l 164 315 l 256 315 l 256 -278 z "},"₂":{"ha":494,"x_min":42,"x_max":453,"o":"m 453 -278 l 47 -278 l 47 -199 q 86 -75 47 -122 q 215 13 117 -36 q 326 82 308 63 q 351 146 351 110 q 326 207 351 183 q 253 231 300 231 q 140 108 153 231 l 42 121 q 103 269 47 217 q 254 322 160 322 q 394 272 339 322 q 449 139 449 221 q 411 33 449 75 q 293 -49 374 -10 q 172 -126 192 -99 q 161 -174 161 -146 l 453 -174 l 453 -278 z "},"₃":{"ha":485,"x_min":21,"x_max":450,"o":"m 21 -82 l 121 -60 q 244 -193 138 -193 q 326 -168 297 -193 q 354 -100 354 -143 q 239 -8 354 -8 l 201 -8 l 201 74 l 232 74 q 301 92 275 74 q 328 147 328 111 q 304 207 328 185 q 238 229 281 229 q 144 136 158 229 l 50 154 q 108 277 57 232 q 242 322 160 322 q 372 278 321 322 q 424 163 424 235 q 401 86 424 117 q 347 44 379 56 l 347 42 q 419 -8 389 31 q 450 -108 450 -47 q 394 -235 450 -186 q 244 -285 339 -285 q 92 -233 150 -285 q 21 -82 33 -181 z "},"₄":{"ha":531,"x_min":35,"x_max":475,"o":"m 303 -150 l 35 -150 l 35 -56 l 260 315 l 406 315 l 406 -56 l 475 -56 l 475 -150 l 406 -150 l 406 -278 l 303 -278 l 303 -150 m 301 225 l 131 -56 l 304 -56 l 304 225 l 301 225 z "},"₅":{"ha":533,"x_min":49,"x_max":485,"o":"m 49 -129 l 143 -85 q 268 -190 169 -190 q 353 -160 321 -190 q 385 -75 385 -129 q 353 10 385 -21 q 271 40 321 40 q 147 -22 193 40 l 68 17 l 119 315 l 426 315 l 426 221 l 197 221 l 169 72 l 172 72 q 297 121 208 121 q 429 65 374 121 q 485 -76 485 10 q 424 -228 485 -171 q 268 -285 363 -285 q 49 -129 103 -285 z "},"₆":{"ha":543,"x_min":49,"x_max":494,"o":"m 204 -158 q 220 -174 204 -158 q 289 -189 236 -189 q 369 -160 342 -189 q 397 -79 397 -131 q 368 2 397 -28 q 286 32 339 32 q 204 0 236 32 q 172 -75 172 -32 q 204 -158 172 -128 m 153 39 l 156 39 q 211 90 169 68 q 308 113 253 113 q 438 60 381 113 q 494 -83 494 7 q 436 -231 494 -175 q 289 -286 378 -286 q 115 -209 181 -286 q 49 10 49 -132 q 113 231 49 142 q 288 321 178 321 q 412 280 364 321 q 474 171 460 239 l 381 146 q 281 229 360 229 q 190 177 225 229 q 153 39 154 125 z "},"₇":{"ha":432,"x_min":7,"x_max":404,"o":"m 151 -278 l 32 -278 l 304 218 l 304 221 l 7 221 l 7 315 l 404 315 l 404 204 l 151 -278 z "},"₈":{"ha":486,"x_min":35,"x_max":451,"o":"m 179 213 q 157 158 157 190 q 179 104 157 126 q 243 82 201 82 q 306 104 285 82 q 328 158 328 126 q 306 213 328 190 q 243 236 285 236 q 179 213 203 236 m 138 44 l 138 47 q 61 167 61 82 q 113 278 61 233 q 243 322 164 322 q 375 276 324 322 q 428 167 428 231 q 350 47 428 88 l 350 44 q 424 -12 396 29 q 451 -107 451 -54 q 394 -237 451 -189 q 243 -285 336 -285 q 92 -237 150 -285 q 35 -107 35 -189 q 63 -12 35 -54 q 138 44 90 29 m 133 -97 q 243 -190 133 -190 q 353 -97 353 -190 q 324 -23 353 -50 q 243 4 296 4 q 162 -23 190 4 q 133 -97 133 -50 z "},"₉":{"ha":531,"x_min":42,"x_max":475,"o":"m 63 -140 l 154 -107 q 265 -193 175 -193 q 378 -7 385 -193 l 375 -7 q 329 -56 367 -33 q 235 -79 292 -79 q 100 -24 157 -79 q 42 119 42 31 q 99 266 42 210 q 246 322 157 322 q 411 243 347 322 q 475 15 475 164 q 419 -209 475 -133 q 261 -285 364 -285 q 63 -140 99 -285 m 169 40 q 184 26 169 40 q 250 11 199 11 q 331 38 301 11 q 360 114 360 65 q 329 197 360 165 q 246 229 299 229 q 169 199 199 229 q 139 119 139 168 q 169 40 139 69 z "},"€":{"ha":1083,"x_min":97,"x_max":1000,"o":"m 97 319 l 97 424 l 211 424 q 210 535 207 492 l 97 535 l 97 639 l 222 639 q 369 901 257 808 q 624 993 482 993 q 878 900 779 993 q 999 650 981 806 l 861 628 q 787 803 847 738 q 624 868 726 868 q 460 808 531 868 q 365 639 390 749 l 632 639 l 632 535 l 350 535 l 350 494 q 353 424 350 454 l 632 424 l 632 319 l 371 319 q 466 160 399 217 q 624 104 533 104 q 788 175 731 104 q 856 369 846 246 l 1000 347 q 886 78 986 176 q 624 -21 786 -21 q 372 63 483 -21 q 225 319 264 147 l 97 319 z "},"™":{"ha":1057,"x_min":69,"x_max":1008,"o":"m 296 501 l 206 501 l 206 888 l 69 888 l 69 972 l 428 972 l 428 888 l 296 888 l 296 501 m 583 501 l 496 501 l 496 972 l 604 972 l 750 626 l 753 626 l 900 972 l 1008 972 l 1008 501 l 921 501 l 921 832 l 918 832 l 782 501 l 721 501 l 586 826 l 583 826 l 583 501 z "},"Ω":{"ha":969,"x_min":83,"x_max":886,"o":"m 436 0 l 88 0 l 88 111 l 236 111 q 125 274 167 171 q 83 501 83 376 q 197 867 83 740 q 485 993 311 993 q 771 867 657 993 q 886 501 886 739 q 844 274 886 376 q 732 111 801 171 l 882 111 l 882 0 l 533 0 l 533 82 q 533 104 531 93 q 684 222 625 122 q 743 482 743 322 q 674 764 743 668 q 485 860 604 860 q 297 763 367 860 q 226 482 226 667 q 285 222 226 321 q 436 104 343 122 l 436 0 z "},"⅓":{"ha":1190,"x_min":35,"x_max":1114,"o":"m 257 -101 l 175 -51 l 854 1081 l 935 1029 l 257 -101 m 263 379 l 163 379 l 163 853 l 35 774 l 35 888 l 171 972 l 263 972 l 263 379 m 685 196 l 785 218 q 908 85 801 85 q 990 110 961 85 q 1018 178 1018 135 q 903 269 1018 269 l 865 269 l 865 351 l 896 351 q 965 370 939 351 q 992 425 992 389 q 968 485 992 463 q 901 507 944 507 q 808 414 822 507 l 714 432 q 772 555 721 510 q 906 600 824 600 q 1036 556 985 600 q 1088 440 1088 513 q 1065 364 1088 394 q 1011 322 1043 333 l 1011 319 q 1083 269 1053 308 q 1114 169 1114 231 q 1058 42 1114 92 q 908 -7 1003 -7 q 756 45 814 -7 q 685 196 697 97 z "},"⅔":{"ha":1322,"x_min":28,"x_max":1246,"o":"m 399 -101 l 317 -51 l 996 1081 l 1076 1029 l 399 -101 m 439 379 l 33 379 l 33 458 q 72 582 33 535 q 201 669 103 619 q 313 739 294 719 q 338 803 338 767 q 312 864 338 840 q 239 888 286 888 q 126 765 139 888 l 28 778 q 90 926 33 874 q 240 979 146 979 q 380 928 325 979 q 435 796 435 878 q 397 690 435 732 q 279 608 360 647 q 158 531 178 558 q 147 483 147 511 l 439 483 l 439 379 m 817 199 l 917 221 q 1040 88 933 88 q 1122 113 1093 88 q 1150 181 1150 138 q 1035 272 1150 272 l 997 272 l 997 354 l 1028 354 q 1097 373 1071 354 q 1124 428 1124 392 q 1100 488 1124 465 q 1033 510 1076 510 q 940 417 954 510 l 846 435 q 904 558 853 513 q 1038 603 956 603 q 1168 559 1117 603 q 1219 443 1219 515 q 1197 367 1219 397 q 1143 325 1175 336 l 1143 322 q 1215 272 1185 311 q 1246 172 1246 233 q 1190 45 1246 94 q 1040 -4 1135 -4 q 888 48 946 -4 q 817 199 829 100 z "},"⅕":{"ha":1192,"x_min":35,"x_max":1150,"o":"m 257 -101 l 175 -51 l 854 1081 l 935 1029 l 257 -101 m 263 379 l 163 379 l 163 853 l 35 774 l 35 888 l 171 972 l 263 972 l 263 379 m 714 149 l 808 193 q 933 88 835 88 q 1018 118 986 88 q 1050 203 1050 149 q 1018 288 1050 257 q 936 318 986 318 q 813 256 858 318 l 733 294 l 785 593 l 1092 593 l 1092 499 l 863 499 l 835 350 l 838 350 q 963 399 874 399 q 1094 343 1039 399 q 1150 201 1150 288 q 1089 50 1150 107 q 933 -7 1028 -7 q 714 149 768 -7 z "},"⅖":{"ha":1335,"x_min":28,"x_max":1293,"o":"m 399 -101 l 317 -51 l 996 1081 l 1076 1029 l 399 -101 m 439 379 l 33 379 l 33 458 q 72 582 33 535 q 201 669 103 619 q 313 739 294 719 q 338 803 338 767 q 312 864 338 840 q 239 888 286 888 q 126 765 139 888 l 28 778 q 90 926 33 874 q 240 979 146 979 q 380 928 325 979 q 435 796 435 878 q 397 690 435 732 q 279 608 360 647 q 158 531 178 558 q 147 483 147 511 l 439 483 l 439 379 m 857 149 l 951 193 q 1076 88 978 88 q 1161 118 1129 88 q 1193 203 1193 149 q 1161 288 1193 257 q 1079 318 1129 318 q 956 256 1001 318 l 876 294 l 928 593 l 1235 593 l 1235 499 l 1006 499 l 978 350 l 981 350 q 1106 399 1017 399 q 1238 343 1182 399 q 1293 201 1293 288 q 1232 50 1293 107 q 1076 -7 1171 -7 q 857 149 911 -7 z "},"⅗":{"ha":1324,"x_min":49,"x_max":1282,"o":"m 371 -101 l 289 -51 l 968 1081 l 1049 1029 l 371 -101 m 49 575 l 149 597 q 272 464 165 464 q 353 489 325 464 q 382 557 382 514 q 267 649 382 649 l 229 649 l 229 731 l 260 731 q 329 749 303 731 q 356 804 356 768 q 332 864 356 842 q 265 886 308 886 q 172 793 186 886 l 78 811 q 136 934 85 889 q 269 979 188 979 q 400 935 349 979 q 451 819 451 892 q 429 743 451 774 q 375 701 407 713 l 375 699 q 447 649 417 688 q 478 549 478 610 q 422 422 478 471 q 272 372 367 372 q 119 424 178 372 q 49 575 61 476 m 846 149 l 940 193 q 1065 88 967 88 q 1150 118 1118 88 q 1182 203 1182 149 q 1150 288 1182 257 q 1068 318 1118 318 q 944 256 990 318 l 865 294 l 917 593 l 1224 593 l 1224 499 l 994 499 l 967 350 l 969 350 q 1094 399 1006 399 q 1226 343 1171 399 q 1282 201 1282 288 q 1221 50 1282 107 q 1065 -7 1160 -7 q 846 149 900 -7 z "},"⅘":{"ha":1331,"x_min":35,"x_max":1289,"o":"m 381 -101 l 299 -51 l 978 1081 l 1058 1029 l 381 -101 m 303 507 l 35 507 l 35 601 l 260 972 l 406 972 l 406 601 l 475 601 l 475 507 l 406 507 l 406 379 l 303 379 l 303 507 m 301 882 l 131 601 l 304 601 l 304 882 l 301 882 m 853 149 l 947 193 q 1072 88 974 88 q 1157 118 1125 88 q 1189 203 1189 149 q 1157 288 1189 257 q 1075 318 1125 318 q 951 256 997 318 l 872 294 l 924 593 l 1231 593 l 1231 499 l 1001 499 l 974 350 l 976 350 q 1101 399 1013 399 q 1233 343 1178 399 q 1289 201 1289 288 q 1228 50 1289 107 q 1072 -7 1167 -7 q 853 149 907 -7 z "},"⅙":{"ha":1189,"x_min":35,"x_max":1147,"o":"m 257 -101 l 175 -51 l 854 1081 l 935 1029 l 257 -101 m 263 379 l 163 379 l 163 853 l 35 774 l 35 888 l 171 972 l 263 972 l 263 379 m 857 121 q 873 106 857 121 q 942 90 889 90 q 1022 119 994 90 q 1050 200 1050 149 q 1021 281 1050 251 q 939 311 992 311 q 857 279 889 311 q 825 204 825 247 q 857 121 825 151 m 806 318 l 808 318 q 864 369 822 347 q 961 392 906 392 q 1090 339 1033 392 q 1147 196 1147 286 q 1089 49 1147 104 q 942 -7 1031 -7 q 767 70 833 -7 q 701 289 701 147 q 765 510 701 421 q 940 600 831 600 q 1065 559 1017 600 q 1126 450 1113 518 l 1033 425 q 933 508 1013 508 q 842 456 878 508 q 806 318 807 404 z "},"⅚":{"ha":1304,"x_min":56,"x_max":1256,"o":"m 360 -101 l 278 -51 l 957 1081 l 1038 1029 l 360 -101 m 56 528 l 150 572 q 275 467 176 467 q 360 497 328 467 q 392 582 392 528 q 360 667 392 636 q 278 697 328 697 q 154 635 200 697 l 75 674 l 126 972 l 433 972 l 433 878 l 204 878 l 176 729 l 179 729 q 304 778 215 778 q 436 722 381 778 q 492 581 492 667 q 431 429 492 486 q 275 372 369 372 q 56 528 110 372 m 965 121 q 981 106 965 121 q 1050 90 997 90 q 1131 119 1103 90 q 1158 200 1158 149 q 1129 281 1158 251 q 1047 311 1100 311 q 965 279 997 311 q 933 204 933 247 q 965 121 933 151 m 914 318 l 917 318 q 972 369 931 347 q 1069 392 1014 392 q 1199 339 1142 392 q 1256 196 1256 286 q 1197 49 1256 104 q 1050 -7 1139 -7 q 876 70 942 -7 q 810 289 810 147 q 874 510 810 421 q 1049 600 939 600 q 1173 559 1125 600 q 1235 450 1221 518 l 1142 425 q 1042 508 1121 508 q 951 456 986 508 q 914 318 915 404 z "},"⅛":{"ha":1167,"x_min":35,"x_max":1097,"o":"m 257 -101 l 175 -51 l 854 1081 l 935 1029 l 257 -101 m 263 379 l 163 379 l 163 853 l 35 774 l 35 888 l 171 972 l 263 972 l 263 379 m 825 490 q 803 436 803 468 q 825 382 803 404 q 889 360 847 360 q 951 382 931 360 q 974 436 974 404 q 951 490 974 468 q 889 514 931 514 q 825 490 849 514 m 783 322 l 783 325 q 707 444 707 360 q 758 556 707 511 q 889 600 810 600 q 1021 554 969 600 q 1074 444 1074 508 q 996 325 1074 365 l 996 322 q 1069 265 1042 307 q 1097 171 1097 224 q 1040 41 1097 89 q 889 -7 982 -7 q 738 41 796 -7 q 681 171 681 89 q 708 265 681 224 q 783 322 736 307 m 779 181 q 889 88 779 88 q 999 181 999 88 q 970 255 999 228 q 889 282 942 282 q 808 255 836 282 q 779 181 779 228 z "},"⅜":{"ha":1315,"x_min":49,"x_max":1246,"o":"m 371 -101 l 289 -51 l 968 1081 l 1049 1029 l 371 -101 m 49 575 l 149 597 q 272 464 165 464 q 353 489 325 464 q 382 557 382 514 q 267 649 382 649 l 229 649 l 229 731 l 260 731 q 329 749 303 731 q 356 804 356 768 q 332 864 356 842 q 265 886 308 886 q 172 793 186 886 l 78 811 q 136 934 85 889 q 269 979 188 979 q 400 935 349 979 q 451 819 451 892 q 429 743 451 774 q 375 701 407 713 l 375 699 q 447 649 417 688 q 478 549 478 610 q 422 422 478 471 q 272 372 367 372 q 119 424 178 372 q 49 575 61 476 m 974 490 q 951 436 951 468 q 974 382 951 404 q 1038 360 996 360 q 1100 382 1079 360 q 1122 436 1122 404 q 1100 490 1122 468 q 1038 514 1079 514 q 974 490 997 514 m 932 322 l 932 325 q 856 444 856 360 q 907 556 856 511 q 1038 600 958 600 q 1169 554 1117 600 q 1222 444 1222 508 q 1144 325 1222 365 l 1144 322 q 1218 265 1190 307 q 1246 171 1246 224 q 1188 41 1246 89 q 1038 -7 1131 -7 q 887 41 944 -7 q 829 171 829 89 q 857 265 829 224 q 932 322 885 307 m 928 181 q 1038 88 928 88 q 1147 181 1147 88 q 1119 255 1147 228 q 1038 282 1090 282 q 956 255 985 282 q 928 181 928 228 z "},"⅝":{"ha":1296,"x_min":56,"x_max":1226,"o":"m 360 -101 l 278 -51 l 957 1081 l 1038 1029 l 360 -101 m 56 528 l 150 572 q 275 467 176 467 q 360 497 328 467 q 392 582 392 528 q 360 667 392 636 q 278 697 328 697 q 154 635 200 697 l 75 674 l 126 972 l 433 972 l 433 878 l 204 878 l 176 729 l 179 729 q 304 778 215 778 q 436 722 381 778 q 492 581 492 667 q 431 429 492 486 q 275 372 369 372 q 56 528 110 372 m 954 490 q 932 436 932 468 q 954 382 932 404 q 1018 360 976 360 q 1081 382 1060 360 q 1103 436 1103 404 q 1081 490 1103 468 q 1018 514 1060 514 q 954 490 978 514 m 913 322 l 913 325 q 836 444 836 360 q 888 556 836 511 q 1018 600 939 600 q 1150 554 1097 600 q 1203 444 1203 508 q 1125 325 1203 365 l 1125 322 q 1199 265 1171 307 q 1226 171 1226 224 q 1169 41 1226 89 q 1018 -7 1111 -7 q 867 41 925 -7 q 810 171 810 89 q 838 265 810 224 q 913 322 865 307 m 908 181 q 1018 88 908 88 q 1128 181 1128 88 q 1099 255 1128 228 q 1018 282 1071 282 q 937 255 965 282 q 908 181 908 228 z "},"⅞":{"ha":1213,"x_min":28,"x_max":1143,"o":"m 272 -101 l 190 -51 l 869 1081 l 950 1029 l 272 -101 m 172 379 l 53 379 l 325 875 l 325 878 l 28 878 l 28 972 l 425 972 l 425 861 l 172 379 m 871 490 q 849 436 849 468 q 871 382 849 404 q 935 360 893 360 q 997 382 976 360 q 1019 436 1019 404 q 997 490 1019 468 q 935 514 976 514 q 871 490 894 514 m 829 322 l 829 325 q 753 444 753 360 q 804 556 753 511 q 935 600 856 600 q 1067 554 1014 600 q 1119 444 1119 508 q 1042 325 1119 365 l 1042 322 q 1115 265 1088 307 q 1143 171 1143 224 q 1085 41 1143 89 q 935 -7 1028 -7 q 784 41 842 -7 q 726 171 726 89 q 754 265 726 224 q 829 322 782 307 m 825 181 q 935 88 825 88 q 1044 181 1044 88 q 1016 255 1044 228 q 935 282 988 282 q 853 255 882 282 q 825 181 825 228 z "},"←":{"ha":972,"x_min":21,"x_max":861,"o":"m 207 544 l 861 544 l 861 419 l 207 419 l 382 135 l 271 68 l 21 481 l 269 890 l 381 825 l 207 544 z "},"↑":{"ha":918,"x_min":49,"x_max":869,"o":"m 803 539 l 521 717 l 521 57 l 396 57 l 397 717 l 114 539 l 49 649 l 458 897 l 869 649 l 803 539 z "},"→":{"ha":972,"x_min":83,"x_max":924,"o":"m 738 419 l 83 419 l 83 544 l 738 544 l 564 825 l 675 890 l 924 481 l 674 68 l 563 135 l 738 419 z "},"↓":{"ha":918,"x_min":35,"x_max":856,"o":"m 382 897 l 507 897 l 507 238 l 789 415 l 856 306 l 444 57 l 35 306 l 100 415 l 383 238 l 382 897 z "},"↔":{"ha":1171,"x_min":49,"x_max":1122,"o":"m 767 138 l 942 419 l 228 419 l 404 138 l 296 72 l 49 481 l 293 885 l 403 819 l 229 543 l 942 543 l 767 819 l 876 885 l 1122 481 l 875 72 l 767 138 z "},"↕":{"ha":921,"x_min":49,"x_max":872,"o":"m 460 -61 l 49 186 l 114 297 l 396 118 l 396 833 l 115 656 l 49 765 l 460 1014 l 872 765 l 806 656 l 524 833 l 524 118 l 806 297 l 872 186 l 460 -61 z "},"↖":{"ha":861,"x_min":56,"x_max":806,"o":"m 336 682 l 806 214 l 718 126 l 250 596 l 175 269 l 56 297 l 169 764 l 632 876 l 660 757 l 336 682 z "},"↗":{"ha":861,"x_min":42,"x_max":792,"o":"m 597 596 l 129 126 l 42 214 l 511 682 l 188 757 l 215 876 l 678 764 l 792 297 l 672 269 l 597 596 z "},"↘":{"ha":861,"x_min":42,"x_max":792,"o":"m 511 274 l 42 742 l 129 829 l 597 360 l 672 686 l 792 658 l 678 192 l 215 79 l 188 199 l 511 274 z "},"↙":{"ha":861,"x_min":56,"x_max":806,"o":"m 250 360 l 718 829 l 806 742 l 336 274 l 660 199 l 632 79 l 169 192 l 56 658 l 175 686 l 250 360 z "},"↳":{"ha":974,"x_min":83,"x_max":925,"o":"m 738 419 l 83 419 l 83 972 l 215 972 l 215 544 l 739 544 l 565 824 l 676 890 l 925 481 l 674 68 l 564 133 l 738 419 z "},"↵":{"ha":974,"x_min":56,"x_max":897,"o":"m 765 972 l 897 972 l 897 419 l 243 419 l 417 133 l 307 68 l 56 481 l 304 890 l 415 824 l 242 544 l 765 544 l 765 972 z "},"∂":{"ha":814,"x_min":63,"x_max":738,"o":"m 250 910 l 189 1004 l 210 1018 q 275 1057 254 1046 q 417 1094 350 1094 q 658 946 581 1094 q 738 558 738 797 q 703 263 738 388 q 585 56 667 132 q 386 -21 503 -21 q 150 70 238 -21 q 63 318 63 161 q 93 504 63 422 q 195 640 124 586 q 371 694 267 693 q 611 633 468 694 q 559 885 610 792 q 415 978 508 978 q 250 910 349 978 m 388 106 q 604 513 583 113 q 382 575 482 575 q 269 535 314 575 q 193 317 193 469 q 244 162 194 218 q 388 106 294 106 z "},"∆":{"ha":896,"x_min":35,"x_max":861,"o":"m 861 0 l 35 0 l 378 972 l 518 972 l 861 0 m 447 788 l 226 132 l 668 132 l 447 788 z "},"∏":{"ha":943,"x_min":56,"x_max":888,"o":"m 350 -196 l 221 -196 l 221 778 l 56 778 l 56 903 l 888 903 l 888 778 l 724 778 l 724 -196 l 594 -196 l 594 778 l 350 778 l 350 -196 z "},"∑":{"ha":825,"x_min":83,"x_max":756,"o":"m 756 -139 l 83 -139 l 83 -4 l 417 431 l 97 838 l 97 972 l 756 972 l 756 840 l 265 840 l 579 432 l 246 -7 l 756 -7 l 756 -139 z "},"−":{"ha":860,"x_min":69,"x_max":790,"o":"m 790 464 l 69 464 l 69 575 l 790 575 l 790 464 z "},"√":{"ha":876,"x_min":14,"x_max":828,"o":"m 490 0 l 363 0 l 200 468 l 14 468 l 14 586 l 300 586 l 426 199 l 689 972 l 828 972 l 490 0 z "},"∞":{"ha":1003,"x_min":83,"x_max":919,"o":"m 317 153 q 149 228 215 153 q 83 421 83 306 q 147 614 83 538 q 315 692 213 692 q 429 653 378 692 q 501 574 481 617 q 574 653 522 617 q 688 692 625 692 q 854 614 789 692 q 919 421 919 536 q 854 228 919 306 q 689 153 789 153 q 574 188 625 153 q 503 264 522 222 q 431 188 483 224 q 317 153 379 153 m 539 421 q 682 274 593 274 q 775 318 747 274 q 803 421 803 365 q 776 522 806 475 q 681 571 747 568 q 539 421 594 571 m 463 421 q 322 571 411 571 q 226 522 256 568 q 200 421 197 475 q 230 315 200 357 q 324 274 260 274 q 463 421 411 274 z "},"∫":{"ha":585,"x_min":56,"x_max":529,"o":"m 56 -333 l 56 -214 q 189 -180 153 -212 q 225 -62 225 -147 l 225 739 q 292 969 225 906 q 529 1035 361 1035 l 529 914 q 392 878 428 914 q 358 751 358 842 l 358 -37 q 290 -268 358 -204 q 56 -333 222 -333 z "},"≈":{"ha":826,"x_min":69,"x_max":757,"o":"m 149 557 l 69 601 q 136 735 83 676 q 267 793 189 793 q 376 765 317 796 q 488 702 436 733 q 569 672 540 671 q 644 715 621 672 q 676 796 663 747 l 757 751 q 692 617 740 676 q 567 560 643 560 q 456 588 517 557 q 344 651 396 619 q 264 681 293 682 q 149 557 185 681 m 149 254 l 69 299 q 136 432 83 374 q 267 490 189 490 q 376 462 317 493 q 488 399 436 431 q 569 369 540 368 q 644 413 621 369 q 676 493 663 444 l 757 449 q 692 314 740 374 q 567 257 643 257 q 456 285 517 254 q 344 348 396 317 q 264 378 293 379 q 149 254 185 378 z "},"≠":{"ha":810,"x_min":83,"x_max":726,"o":"m 394 576 l 83 576 l 83 688 l 457 688 l 549 851 l 622 808 l 554 688 l 726 688 l 726 576 l 492 576 l 418 447 l 726 447 l 726 336 l 356 336 l 260 164 l 186 206 l 260 336 l 83 336 l 83 447 l 322 447 l 394 576 z "},"≤":{"ha":743,"x_min":69,"x_max":674,"o":"m 671 0 l 69 0 l 69 111 l 671 111 l 671 0 m 611 204 l 69 531 l 69 628 l 613 951 l 674 853 l 217 579 l 672 304 l 611 204 z "},"≥":{"ha":743,"x_min":42,"x_max":646,"o":"m 44 111 l 646 111 l 646 0 l 44 0 l 44 111 m 103 951 l 646 628 l 646 531 l 104 204 l 43 304 l 499 579 l 42 853 l 103 951 z "},"◊":{"ha":813,"x_min":42,"x_max":771,"o":"m 489 0 l 321 0 l 42 494 l 319 972 l 490 972 l 771 494 l 489 0 m 181 493 l 406 97 l 632 494 l 406 871 l 181 493 z "},"":{"ha":400,"x_min":125,"x_max":275,"o":"m 129 -335 l 129 -279 q 181 -257 167 -274 q 196 -207 196 -240 l 125 -207 l 125 -71 l 275 -71 l 275 -187 q 240 -293 275 -257 q 129 -335 206 -329 z "},"":{"ha":1064,"x_min":125,"x_max":939,"o":"m 161 0 l 125 0 l 125 588 q 244 871 125 749 q 531 993 363 993 q 818 871 700 993 q 939 588 939 750 l 939 0 l 900 0 l 810 90 l 715 0 l 628 90 l 529 0 l 433 90 l 346 0 l 253 90 l 161 0 m 611 524 q 640 455 611 483 q 708 426 668 426 q 778 456 749 426 q 808 524 808 485 q 778 594 808 565 q 708 624 749 624 q 640 594 668 624 q 611 524 611 565 m 257 524 q 286 455 257 483 q 356 426 315 426 q 426 455 397 426 q 454 524 454 483 q 426 594 454 565 q 356 624 397 624 q 286 594 315 624 q 257 524 257 565 z "},"ﬁ":{"ha":806,"x_min":35,"x_max":694,"o":"m 278 0 l 143 0 l 143 618 l 35 618 l 35 736 l 144 736 l 144 844 q 188 974 144 935 q 317 1014 231 1014 l 422 1014 l 422 892 l 343 892 q 289 876 303 892 q 275 815 275 861 l 275 736 l 689 736 l 689 0 l 553 0 l 553 618 l 278 618 l 278 0 m 694 871 l 547 871 l 547 1014 l 694 1014 l 694 871 z "},"ﬂ":{"ha":797,"x_min":35,"x_max":686,"o":"m 278 0 l 143 0 l 143 618 l 35 618 l 35 736 l 144 736 l 144 844 q 188 974 144 935 q 317 1014 231 1014 l 422 1014 l 422 892 l 343 892 q 289 876 303 892 q 275 815 275 861 l 275 736 l 547 736 l 547 1014 l 686 1014 l 686 0 l 547 0 l 547 618 l 278 618 l 278 0 z "}}}
